M48
;DRILL file {KiCad 4.0.4-stable} date 08/01/17 14:05:32
;FORMAT={-:-/ absolute / metric / decimal}
FMAT,2
METRIC,TZ
T1C0.300
T2C0.400
T3C0.600
T4C0.800
T5C0.900
%
G90
G05
M71
T1
X74.Y-89.4
X74.Y-93.4
X81.2Y-87.2
X84.3Y-82.15
X84.4Y-93.4
X93.45Y-82.15
X104.7Y-93.7
X108.2Y-91.4
X108.2Y-93.7
X112.2Y-88.8
X112.6Y-91.4
X112.6Y-93.7
X129.7Y-90.9
X131.6Y-81.6
X133.5Y-88.1
X139.2Y-81.5
X144.5Y-83.4
X149.7Y-81.8
X153.9Y-92.7
X155.5Y-84.4
X155.9Y-90.7
X163.2Y-81.2
X165.8Y-89.
X165.8Y-90.9
X168.2Y-89.
X173.1Y-93.4
X175.4Y-93.4
X177.4Y-93.4
X178.1Y-88.3
X179.5Y-93.4
X180.6Y-88.3
X181.6Y-93.4
X184.4Y-93.4
X187.1Y-93.4
X196.2Y-93.6
X202.2Y-87.1
X203.9Y-91.5
X204.3Y-93.6
X204.8Y-87.1
X207.Y-87.1
X207.1Y-91.5
X207.1Y-93.6
X223.2Y-89.2
X223.8Y-93.6
T2
X84.7Y-95.4
X93.Y-94.5
X93.8Y-96.4
X96.25Y-90.1
X102.4Y-101.25
X125.5Y-84.1
X133.6Y-85.9
X137.5Y-101.15
X142.1Y-95.
X149.175Y-88.009
X150.75Y-85.8
X150.9Y-90.7
X156.3Y-96.1
X193.35Y-101.
X209.2Y-95.5
X213.1Y-95.1
X217.7Y-96.1
T3
X145.Y-94.9
T4
X156.9Y-83.3
T5
X115.Y-87.1
X117.5Y-87.1
X120.Y-87.1
X122.5Y-87.1
X125.Y-87.1
X127.5Y-87.1
X171.4Y-87.2
X173.9Y-87.2
X185.1Y-87.1
X187.6Y-87.1
X190.1Y-87.1
X192.6Y-87.1
X195.1Y-87.1
X197.6Y-87.1
T0
M30
