G04 #@! TF.FileFunction,Other,Fab,Top*
%FSLAX46Y46*%
G04 Gerber Fmt 4.6, Leading zero omitted, Abs format (unit mm)*
G04 Created by KiCad (PCBNEW 4.0.4-stable) date 08/01/17 14:05:29*
%MOMM*%
%LPD*%
G01*
G04 APERTURE LIST*
%ADD10C,0.100000*%
%ADD11C,0.150000*%
%ADD12C,0.075000*%
%ADD13C,0.050000*%
G04 APERTURE END LIST*
D10*
X168900000Y-80500000D02*
X168900000Y-88700000D01*
X168900000Y-88700000D02*
X176400000Y-88700000D01*
X176400000Y-88700000D02*
X176400000Y-80500000D01*
X176400000Y-80500000D02*
X168900000Y-80500000D01*
X171400000Y-88700000D02*
X171100000Y-89300000D01*
X171100000Y-89300000D02*
X171700000Y-89300000D01*
X171700000Y-89300000D02*
X171400000Y-88700000D01*
X139550000Y-89430000D02*
X139550000Y-90670000D01*
X137550000Y-89430000D02*
X139550000Y-89430000D01*
X137550000Y-90670000D02*
X137550000Y-89430000D01*
X139550000Y-90670000D02*
X137550000Y-90670000D01*
X104860000Y-100910000D02*
X103620000Y-100910000D01*
X104860000Y-98910000D02*
X104860000Y-100910000D01*
X103620000Y-98910000D02*
X104860000Y-98910000D01*
X103620000Y-100910000D02*
X103620000Y-98910000D01*
X135570000Y-100900000D02*
X134330000Y-100900000D01*
X135570000Y-98900000D02*
X135570000Y-100900000D01*
X134330000Y-98900000D02*
X135570000Y-98900000D01*
X134330000Y-100900000D02*
X134330000Y-98900000D01*
X196790000Y-100730000D02*
X195550000Y-100730000D01*
X196790000Y-98730000D02*
X196790000Y-100730000D01*
X195550000Y-98730000D02*
X196790000Y-98730000D01*
X195550000Y-100730000D02*
X195550000Y-98730000D01*
X151400000Y-84370000D02*
X151400000Y-83130000D01*
X153400000Y-84370000D02*
X151400000Y-84370000D01*
X153400000Y-83130000D02*
X153400000Y-84370000D01*
X151400000Y-83130000D02*
X153400000Y-83130000D01*
X148350000Y-83080000D02*
X148350000Y-84320000D01*
X146350000Y-83080000D02*
X148350000Y-83080000D01*
X146350000Y-84320000D02*
X146350000Y-83080000D01*
X148350000Y-84320000D02*
X146350000Y-84320000D01*
X139600000Y-86780000D02*
X139600000Y-88020000D01*
X137600000Y-86780000D02*
X139600000Y-86780000D01*
X137600000Y-88020000D02*
X137600000Y-86780000D01*
X139600000Y-88020000D02*
X137600000Y-88020000D01*
X139550000Y-91580000D02*
X139550000Y-92820000D01*
X137550000Y-91580000D02*
X139550000Y-91580000D01*
X137550000Y-92820000D02*
X137550000Y-91580000D01*
X139550000Y-92820000D02*
X137550000Y-92820000D01*
X161600000Y-87180000D02*
X161600000Y-88420000D01*
X159600000Y-87180000D02*
X161600000Y-87180000D01*
X159600000Y-88420000D02*
X159600000Y-87180000D01*
X161600000Y-88420000D02*
X159600000Y-88420000D01*
X161600000Y-89330000D02*
X161600000Y-90570000D01*
X159600000Y-89330000D02*
X161600000Y-89330000D01*
X159600000Y-90570000D02*
X159600000Y-89330000D01*
X161600000Y-90570000D02*
X159600000Y-90570000D01*
X161600000Y-91580000D02*
X161600000Y-92820000D01*
X159600000Y-91580000D02*
X161600000Y-91580000D01*
X159600000Y-92820000D02*
X159600000Y-91580000D01*
X161600000Y-92820000D02*
X159600000Y-92820000D01*
X220100000Y-96780000D02*
X220100000Y-98020000D01*
X218100000Y-96780000D02*
X220100000Y-96780000D01*
X218100000Y-98020000D02*
X218100000Y-96780000D01*
X220100000Y-98020000D02*
X218100000Y-98020000D01*
X158800000Y-96980000D02*
X158800000Y-98220000D01*
X156800000Y-96980000D02*
X158800000Y-96980000D01*
X156800000Y-98220000D02*
X156800000Y-96980000D01*
X158800000Y-98220000D02*
X156800000Y-98220000D01*
X98500000Y-97080000D02*
X98500000Y-98320000D01*
X96500000Y-97080000D02*
X98500000Y-97080000D01*
X96500000Y-98320000D02*
X96500000Y-97080000D01*
X98500000Y-98320000D02*
X96500000Y-98320000D01*
D11*
X149050000Y-85550000D02*
X151950000Y-85550000D01*
X151950000Y-85550000D02*
X151950000Y-90450000D01*
X151950000Y-90450000D02*
X148050000Y-90450000D01*
X148050000Y-90450000D02*
X148050000Y-86550000D01*
X148050000Y-86550000D02*
X149050000Y-85550000D01*
D10*
X205300000Y-96120000D02*
X205300000Y-94880000D01*
X207300000Y-96120000D02*
X205300000Y-96120000D01*
X207300000Y-94880000D02*
X207300000Y-96120000D01*
X205300000Y-94880000D02*
X207300000Y-94880000D01*
X149700000Y-94280000D02*
X149700000Y-95520000D01*
X147700000Y-94280000D02*
X149700000Y-94280000D01*
X147700000Y-95520000D02*
X147700000Y-94280000D01*
X149700000Y-95520000D02*
X147700000Y-95520000D01*
X89700000Y-94880000D02*
X89700000Y-96120000D01*
X87700000Y-94880000D02*
X89700000Y-94880000D01*
X87700000Y-96120000D02*
X87700000Y-94880000D01*
X89700000Y-96120000D02*
X87700000Y-96120000D01*
X211000000Y-89820000D02*
X211000000Y-88580000D01*
X213000000Y-89820000D02*
X211000000Y-89820000D01*
X213000000Y-88580000D02*
X213000000Y-89820000D01*
X211000000Y-88580000D02*
X213000000Y-88580000D01*
X132180000Y-93100000D02*
X133420000Y-93100000D01*
X132180000Y-95100000D02*
X132180000Y-93100000D01*
X133420000Y-95100000D02*
X132180000Y-95100000D01*
X133420000Y-93100000D02*
X133420000Y-95100000D01*
X92030000Y-90300000D02*
X93270000Y-90300000D01*
X92030000Y-92300000D02*
X92030000Y-90300000D01*
X93270000Y-92300000D02*
X92030000Y-92300000D01*
X93270000Y-90300000D02*
X93270000Y-92300000D01*
X209980000Y-91500000D02*
X211220000Y-91500000D01*
X209980000Y-93500000D02*
X209980000Y-91500000D01*
X211220000Y-93500000D02*
X209980000Y-93500000D01*
X211220000Y-91500000D02*
X211220000Y-93500000D01*
X130400000Y-92080000D02*
X130400000Y-93320000D01*
X128400000Y-92080000D02*
X130400000Y-92080000D01*
X128400000Y-93320000D02*
X128400000Y-92080000D01*
X130400000Y-93320000D02*
X128400000Y-93320000D01*
X90300000Y-89280000D02*
X90300000Y-90520000D01*
X88300000Y-89280000D02*
X90300000Y-89280000D01*
X88300000Y-90520000D02*
X88300000Y-89280000D01*
X90300000Y-90520000D02*
X88300000Y-90520000D01*
X212500000Y-90950000D02*
X212500000Y-93400000D01*
X213050000Y-90380000D02*
X213900000Y-90380000D01*
X212500000Y-90950000D02*
X213050000Y-90380000D01*
X213900000Y-90380000D02*
X213900000Y-93420000D01*
X212500000Y-93420000D02*
X213900000Y-93420000D01*
X131100000Y-94700000D02*
X128650000Y-94700000D01*
X131670000Y-95250000D02*
X131670000Y-96100000D01*
X131100000Y-94700000D02*
X131670000Y-95250000D01*
X131670000Y-96100000D02*
X128630000Y-96100000D01*
X128630000Y-94700000D02*
X128630000Y-96100000D01*
X90950000Y-92000000D02*
X88500000Y-92000000D01*
X91520000Y-92550000D02*
X91520000Y-93400000D01*
X90950000Y-92000000D02*
X91520000Y-92550000D01*
X91520000Y-93400000D02*
X88480000Y-93400000D01*
X88480000Y-92000000D02*
X88480000Y-93400000D01*
X112500000Y-80400000D02*
X112500000Y-88600000D01*
X112500000Y-88600000D02*
X130000000Y-88600000D01*
X130000000Y-88600000D02*
X130000000Y-80400000D01*
X130000000Y-80400000D02*
X112500000Y-80400000D01*
X115000000Y-88600000D02*
X114700000Y-89200000D01*
X114700000Y-89200000D02*
X115300000Y-89200000D01*
X115300000Y-89200000D02*
X115000000Y-88600000D01*
X182600000Y-80400000D02*
X182600000Y-88600000D01*
X182600000Y-88600000D02*
X200100000Y-88600000D01*
X200100000Y-88600000D02*
X200100000Y-80400000D01*
X200100000Y-80400000D02*
X182600000Y-80400000D01*
X185100000Y-88600000D02*
X184800000Y-89200000D01*
X184800000Y-89200000D02*
X185400000Y-89200000D01*
X185400000Y-89200000D02*
X185100000Y-88600000D01*
D11*
X166638095Y-83752381D02*
X166638095Y-82752381D01*
X167019048Y-82752381D01*
X167114286Y-82800000D01*
X167161905Y-82847619D01*
X167209524Y-82942857D01*
X167209524Y-83085714D01*
X167161905Y-83180952D01*
X167114286Y-83228571D01*
X167019048Y-83276190D01*
X166638095Y-83276190D01*
X167828571Y-82752381D02*
X168019048Y-82752381D01*
X168114286Y-82800000D01*
X168209524Y-82895238D01*
X168257143Y-83085714D01*
X168257143Y-83419048D01*
X168209524Y-83609524D01*
X168114286Y-83704762D01*
X168019048Y-83752381D01*
X167828571Y-83752381D01*
X167733333Y-83704762D01*
X167638095Y-83609524D01*
X167590476Y-83419048D01*
X167590476Y-83085714D01*
X167638095Y-82895238D01*
X167733333Y-82800000D01*
X167828571Y-82752381D01*
X168590476Y-82752381D02*
X168828571Y-83752381D01*
X169019048Y-83038095D01*
X169209524Y-83752381D01*
X169447619Y-82752381D01*
X169828571Y-83228571D02*
X170161905Y-83228571D01*
X170304762Y-83752381D02*
X169828571Y-83752381D01*
X169828571Y-82752381D01*
X170304762Y-82752381D01*
X171304762Y-83752381D02*
X170971428Y-83276190D01*
X170733333Y-83752381D02*
X170733333Y-82752381D01*
X171114286Y-82752381D01*
X171209524Y-82800000D01*
X171257143Y-82847619D01*
X171304762Y-82942857D01*
X171304762Y-83085714D01*
X171257143Y-83180952D01*
X171209524Y-83228571D01*
X171114286Y-83276190D01*
X170733333Y-83276190D01*
X171495238Y-83847619D02*
X172257143Y-83847619D01*
X173066667Y-83657143D02*
X173019048Y-83704762D01*
X172876191Y-83752381D01*
X172780953Y-83752381D01*
X172638095Y-83704762D01*
X172542857Y-83609524D01*
X172495238Y-83514286D01*
X172447619Y-83323810D01*
X172447619Y-83180952D01*
X172495238Y-82990476D01*
X172542857Y-82895238D01*
X172638095Y-82800000D01*
X172780953Y-82752381D01*
X172876191Y-82752381D01*
X173019048Y-82800000D01*
X173066667Y-82847619D01*
X173685714Y-82752381D02*
X173876191Y-82752381D01*
X173971429Y-82800000D01*
X174066667Y-82895238D01*
X174114286Y-83085714D01*
X174114286Y-83419048D01*
X174066667Y-83609524D01*
X173971429Y-83704762D01*
X173876191Y-83752381D01*
X173685714Y-83752381D01*
X173590476Y-83704762D01*
X173495238Y-83609524D01*
X173447619Y-83419048D01*
X173447619Y-83085714D01*
X173495238Y-82895238D01*
X173590476Y-82800000D01*
X173685714Y-82752381D01*
X174542857Y-83752381D02*
X174542857Y-82752381D01*
X175114286Y-83752381D01*
X175114286Y-82752381D01*
X175590476Y-83752381D02*
X175590476Y-82752381D01*
X176161905Y-83752381D01*
X176161905Y-82752381D01*
X171911905Y-85652381D02*
X171911905Y-84652381D01*
X172292858Y-84652381D01*
X172388096Y-84700000D01*
X172435715Y-84747619D01*
X172483334Y-84842857D01*
X172483334Y-84985714D01*
X172435715Y-85080952D01*
X172388096Y-85128571D01*
X172292858Y-85176190D01*
X171911905Y-85176190D01*
X172816667Y-84652381D02*
X173435715Y-84652381D01*
X173102381Y-85033333D01*
X173245239Y-85033333D01*
X173340477Y-85080952D01*
X173388096Y-85128571D01*
X173435715Y-85223810D01*
X173435715Y-85461905D01*
X173388096Y-85557143D01*
X173340477Y-85604762D01*
X173245239Y-85652381D01*
X172959524Y-85652381D01*
X172864286Y-85604762D01*
X172816667Y-85557143D01*
X141300000Y-89552381D02*
X141395239Y-89552381D01*
X141490477Y-89600000D01*
X141538096Y-89647619D01*
X141585715Y-89742857D01*
X141633334Y-89933333D01*
X141633334Y-90171429D01*
X141585715Y-90361905D01*
X141538096Y-90457143D01*
X141490477Y-90504762D01*
X141395239Y-90552381D01*
X141300000Y-90552381D01*
X141204762Y-90504762D01*
X141157143Y-90457143D01*
X141109524Y-90361905D01*
X141061905Y-90171429D01*
X141061905Y-89933333D01*
X141109524Y-89742857D01*
X141157143Y-89647619D01*
X141204762Y-89600000D01*
X141300000Y-89552381D01*
X142061905Y-90028571D02*
X142395239Y-90028571D01*
X142538096Y-90552381D02*
X142061905Y-90552381D01*
X142061905Y-89552381D01*
X142538096Y-89552381D01*
D12*
X138466667Y-90276190D02*
X138300000Y-90038095D01*
X138180953Y-90276190D02*
X138180953Y-89776190D01*
X138371429Y-89776190D01*
X138419048Y-89800000D01*
X138442857Y-89823810D01*
X138466667Y-89871429D01*
X138466667Y-89942857D01*
X138442857Y-89990476D01*
X138419048Y-90014286D01*
X138371429Y-90038095D01*
X138180953Y-90038095D01*
X138657143Y-89823810D02*
X138680953Y-89800000D01*
X138728572Y-89776190D01*
X138847619Y-89776190D01*
X138895238Y-89800000D01*
X138919048Y-89823810D01*
X138942857Y-89871429D01*
X138942857Y-89919048D01*
X138919048Y-89990476D01*
X138633334Y-90276190D01*
X138942857Y-90276190D01*
D11*
X105442381Y-101600476D02*
X105442381Y-100981428D01*
X105823333Y-101314762D01*
X105823333Y-101171904D01*
X105870952Y-101076666D01*
X105918571Y-101029047D01*
X106013810Y-100981428D01*
X106251905Y-100981428D01*
X106347143Y-101029047D01*
X106394762Y-101076666D01*
X106442381Y-101171904D01*
X106442381Y-101457619D01*
X106394762Y-101552857D01*
X106347143Y-101600476D01*
X105442381Y-100362381D02*
X105442381Y-100267142D01*
X105490000Y-100171904D01*
X105537619Y-100124285D01*
X105632857Y-100076666D01*
X105823333Y-100029047D01*
X106061429Y-100029047D01*
X106251905Y-100076666D01*
X106347143Y-100124285D01*
X106394762Y-100171904D01*
X106442381Y-100267142D01*
X106442381Y-100362381D01*
X106394762Y-100457619D01*
X106347143Y-100505238D01*
X106251905Y-100552857D01*
X106061429Y-100600476D01*
X105823333Y-100600476D01*
X105632857Y-100552857D01*
X105537619Y-100505238D01*
X105490000Y-100457619D01*
X105442381Y-100362381D01*
X105775714Y-99600476D02*
X106775714Y-99600476D01*
X105823333Y-99600476D02*
X105775714Y-99505238D01*
X105775714Y-99314761D01*
X105823333Y-99219523D01*
X105870952Y-99171904D01*
X105966190Y-99124285D01*
X106251905Y-99124285D01*
X106347143Y-99171904D01*
X106394762Y-99219523D01*
X106442381Y-99314761D01*
X106442381Y-99505238D01*
X106394762Y-99600476D01*
X105918571Y-98362380D02*
X105918571Y-98695714D01*
X106442381Y-98695714D02*
X105442381Y-98695714D01*
X105442381Y-98219523D01*
X102847143Y-100076666D02*
X102894762Y-100124285D01*
X102942381Y-100267142D01*
X102942381Y-100362380D01*
X102894762Y-100505238D01*
X102799524Y-100600476D01*
X102704286Y-100648095D01*
X102513810Y-100695714D01*
X102370952Y-100695714D01*
X102180476Y-100648095D01*
X102085238Y-100600476D01*
X101990000Y-100505238D01*
X101942381Y-100362380D01*
X101942381Y-100267142D01*
X101990000Y-100124285D01*
X102037619Y-100076666D01*
X102942381Y-99124285D02*
X102942381Y-99695714D01*
X102942381Y-99410000D02*
X101942381Y-99410000D01*
X102085238Y-99505238D01*
X102180476Y-99600476D01*
X102228095Y-99695714D01*
X136152381Y-101590476D02*
X136152381Y-100971428D01*
X136533333Y-101304762D01*
X136533333Y-101161904D01*
X136580952Y-101066666D01*
X136628571Y-101019047D01*
X136723810Y-100971428D01*
X136961905Y-100971428D01*
X137057143Y-101019047D01*
X137104762Y-101066666D01*
X137152381Y-101161904D01*
X137152381Y-101447619D01*
X137104762Y-101542857D01*
X137057143Y-101590476D01*
X136152381Y-100352381D02*
X136152381Y-100257142D01*
X136200000Y-100161904D01*
X136247619Y-100114285D01*
X136342857Y-100066666D01*
X136533333Y-100019047D01*
X136771429Y-100019047D01*
X136961905Y-100066666D01*
X137057143Y-100114285D01*
X137104762Y-100161904D01*
X137152381Y-100257142D01*
X137152381Y-100352381D01*
X137104762Y-100447619D01*
X137057143Y-100495238D01*
X136961905Y-100542857D01*
X136771429Y-100590476D01*
X136533333Y-100590476D01*
X136342857Y-100542857D01*
X136247619Y-100495238D01*
X136200000Y-100447619D01*
X136152381Y-100352381D01*
X136485714Y-99590476D02*
X137485714Y-99590476D01*
X136533333Y-99590476D02*
X136485714Y-99495238D01*
X136485714Y-99304761D01*
X136533333Y-99209523D01*
X136580952Y-99161904D01*
X136676190Y-99114285D01*
X136961905Y-99114285D01*
X137057143Y-99161904D01*
X137104762Y-99209523D01*
X137152381Y-99304761D01*
X137152381Y-99495238D01*
X137104762Y-99590476D01*
X136628571Y-98352380D02*
X136628571Y-98685714D01*
X137152381Y-98685714D02*
X136152381Y-98685714D01*
X136152381Y-98209523D01*
X133557143Y-100066666D02*
X133604762Y-100114285D01*
X133652381Y-100257142D01*
X133652381Y-100352380D01*
X133604762Y-100495238D01*
X133509524Y-100590476D01*
X133414286Y-100638095D01*
X133223810Y-100685714D01*
X133080952Y-100685714D01*
X132890476Y-100638095D01*
X132795238Y-100590476D01*
X132700000Y-100495238D01*
X132652381Y-100352380D01*
X132652381Y-100257142D01*
X132700000Y-100114285D01*
X132747619Y-100066666D01*
X132747619Y-99685714D02*
X132700000Y-99638095D01*
X132652381Y-99542857D01*
X132652381Y-99304761D01*
X132700000Y-99209523D01*
X132747619Y-99161904D01*
X132842857Y-99114285D01*
X132938095Y-99114285D01*
X133080952Y-99161904D01*
X133652381Y-99733333D01*
X133652381Y-99114285D01*
X197372381Y-101420476D02*
X197372381Y-100801428D01*
X197753333Y-101134762D01*
X197753333Y-100991904D01*
X197800952Y-100896666D01*
X197848571Y-100849047D01*
X197943810Y-100801428D01*
X198181905Y-100801428D01*
X198277143Y-100849047D01*
X198324762Y-100896666D01*
X198372381Y-100991904D01*
X198372381Y-101277619D01*
X198324762Y-101372857D01*
X198277143Y-101420476D01*
X197372381Y-100182381D02*
X197372381Y-100087142D01*
X197420000Y-99991904D01*
X197467619Y-99944285D01*
X197562857Y-99896666D01*
X197753333Y-99849047D01*
X197991429Y-99849047D01*
X198181905Y-99896666D01*
X198277143Y-99944285D01*
X198324762Y-99991904D01*
X198372381Y-100087142D01*
X198372381Y-100182381D01*
X198324762Y-100277619D01*
X198277143Y-100325238D01*
X198181905Y-100372857D01*
X197991429Y-100420476D01*
X197753333Y-100420476D01*
X197562857Y-100372857D01*
X197467619Y-100325238D01*
X197420000Y-100277619D01*
X197372381Y-100182381D01*
X197705714Y-99420476D02*
X198705714Y-99420476D01*
X197753333Y-99420476D02*
X197705714Y-99325238D01*
X197705714Y-99134761D01*
X197753333Y-99039523D01*
X197800952Y-98991904D01*
X197896190Y-98944285D01*
X198181905Y-98944285D01*
X198277143Y-98991904D01*
X198324762Y-99039523D01*
X198372381Y-99134761D01*
X198372381Y-99325238D01*
X198324762Y-99420476D01*
X197848571Y-98182380D02*
X197848571Y-98515714D01*
X198372381Y-98515714D02*
X197372381Y-98515714D01*
X197372381Y-98039523D01*
X194777143Y-99896666D02*
X194824762Y-99944285D01*
X194872381Y-100087142D01*
X194872381Y-100182380D01*
X194824762Y-100325238D01*
X194729524Y-100420476D01*
X194634286Y-100468095D01*
X194443810Y-100515714D01*
X194300952Y-100515714D01*
X194110476Y-100468095D01*
X194015238Y-100420476D01*
X193920000Y-100325238D01*
X193872381Y-100182380D01*
X193872381Y-100087142D01*
X193920000Y-99944285D01*
X193967619Y-99896666D01*
X193872381Y-99563333D02*
X193872381Y-98944285D01*
X194253333Y-99277619D01*
X194253333Y-99134761D01*
X194300952Y-99039523D01*
X194348571Y-98991904D01*
X194443810Y-98944285D01*
X194681905Y-98944285D01*
X194777143Y-98991904D01*
X194824762Y-99039523D01*
X194872381Y-99134761D01*
X194872381Y-99420476D01*
X194824762Y-99515714D01*
X194777143Y-99563333D01*
X151152381Y-82852381D02*
X150580952Y-82852381D01*
X150866666Y-82852381D02*
X150866666Y-81852381D01*
X150771428Y-81995238D01*
X150676190Y-82090476D01*
X150580952Y-82138095D01*
X151771428Y-81852381D02*
X151866667Y-81852381D01*
X151961905Y-81900000D01*
X152009524Y-81947619D01*
X152057143Y-82042857D01*
X152104762Y-82233333D01*
X152104762Y-82471429D01*
X152057143Y-82661905D01*
X152009524Y-82757143D01*
X151961905Y-82804762D01*
X151866667Y-82852381D01*
X151771428Y-82852381D01*
X151676190Y-82804762D01*
X151628571Y-82757143D01*
X151580952Y-82661905D01*
X151533333Y-82471429D01*
X151533333Y-82233333D01*
X151580952Y-82042857D01*
X151628571Y-81947619D01*
X151676190Y-81900000D01*
X151771428Y-81852381D01*
X152723809Y-81852381D02*
X152819048Y-81852381D01*
X152914286Y-81900000D01*
X152961905Y-81947619D01*
X153009524Y-82042857D01*
X153057143Y-82233333D01*
X153057143Y-82471429D01*
X153009524Y-82661905D01*
X152961905Y-82757143D01*
X152914286Y-82804762D01*
X152819048Y-82852381D01*
X152723809Y-82852381D01*
X152628571Y-82804762D01*
X152580952Y-82757143D01*
X152533333Y-82661905D01*
X152485714Y-82471429D01*
X152485714Y-82233333D01*
X152533333Y-82042857D01*
X152580952Y-81947619D01*
X152628571Y-81900000D01*
X152723809Y-81852381D01*
X153485714Y-82185714D02*
X153485714Y-82852381D01*
X153485714Y-82280952D02*
X153533333Y-82233333D01*
X153628571Y-82185714D01*
X153771429Y-82185714D01*
X153866667Y-82233333D01*
X153914286Y-82328571D01*
X153914286Y-82852381D01*
X154723810Y-82328571D02*
X154390476Y-82328571D01*
X154390476Y-82852381D02*
X154390476Y-81852381D01*
X154866667Y-81852381D01*
D10*
X152416667Y-83878571D02*
X152392857Y-83902381D01*
X152321429Y-83926190D01*
X152273810Y-83926190D01*
X152202381Y-83902381D01*
X152154762Y-83854762D01*
X152130953Y-83807143D01*
X152107143Y-83711905D01*
X152107143Y-83640476D01*
X152130953Y-83545238D01*
X152154762Y-83497619D01*
X152202381Y-83450000D01*
X152273810Y-83426190D01*
X152321429Y-83426190D01*
X152392857Y-83450000D01*
X152416667Y-83473810D01*
X152845238Y-83592857D02*
X152845238Y-83926190D01*
X152726191Y-83402381D02*
X152607143Y-83759524D01*
X152916667Y-83759524D01*
D11*
X146128572Y-82752381D02*
X145557143Y-82752381D01*
X145842857Y-82752381D02*
X145842857Y-81752381D01*
X145747619Y-81895238D01*
X145652381Y-81990476D01*
X145557143Y-82038095D01*
X146747619Y-81752381D02*
X146842858Y-81752381D01*
X146938096Y-81800000D01*
X146985715Y-81847619D01*
X147033334Y-81942857D01*
X147080953Y-82133333D01*
X147080953Y-82371429D01*
X147033334Y-82561905D01*
X146985715Y-82657143D01*
X146938096Y-82704762D01*
X146842858Y-82752381D01*
X146747619Y-82752381D01*
X146652381Y-82704762D01*
X146604762Y-82657143D01*
X146557143Y-82561905D01*
X146509524Y-82371429D01*
X146509524Y-82133333D01*
X146557143Y-81942857D01*
X146604762Y-81847619D01*
X146652381Y-81800000D01*
X146747619Y-81752381D01*
X147938096Y-82085714D02*
X147938096Y-82752381D01*
X147509524Y-82085714D02*
X147509524Y-82609524D01*
X147557143Y-82704762D01*
X147652381Y-82752381D01*
X147795239Y-82752381D01*
X147890477Y-82704762D01*
X147938096Y-82657143D01*
X148747620Y-82228571D02*
X148414286Y-82228571D01*
X148414286Y-82752381D02*
X148414286Y-81752381D01*
X148890477Y-81752381D01*
D10*
X147316667Y-83878571D02*
X147292857Y-83902381D01*
X147221429Y-83926190D01*
X147173810Y-83926190D01*
X147102381Y-83902381D01*
X147054762Y-83854762D01*
X147030953Y-83807143D01*
X147007143Y-83711905D01*
X147007143Y-83640476D01*
X147030953Y-83545238D01*
X147054762Y-83497619D01*
X147102381Y-83450000D01*
X147173810Y-83426190D01*
X147221429Y-83426190D01*
X147292857Y-83450000D01*
X147316667Y-83473810D01*
X147769048Y-83426190D02*
X147530953Y-83426190D01*
X147507143Y-83664286D01*
X147530953Y-83640476D01*
X147578572Y-83616667D01*
X147697619Y-83616667D01*
X147745238Y-83640476D01*
X147769048Y-83664286D01*
X147792857Y-83711905D01*
X147792857Y-83830952D01*
X147769048Y-83878571D01*
X147745238Y-83902381D01*
X147697619Y-83926190D01*
X147578572Y-83926190D01*
X147530953Y-83902381D01*
X147507143Y-83878571D01*
D11*
X141300000Y-86852381D02*
X141395239Y-86852381D01*
X141490477Y-86900000D01*
X141538096Y-86947619D01*
X141585715Y-87042857D01*
X141633334Y-87233333D01*
X141633334Y-87471429D01*
X141585715Y-87661905D01*
X141538096Y-87757143D01*
X141490477Y-87804762D01*
X141395239Y-87852381D01*
X141300000Y-87852381D01*
X141204762Y-87804762D01*
X141157143Y-87757143D01*
X141109524Y-87661905D01*
X141061905Y-87471429D01*
X141061905Y-87233333D01*
X141109524Y-87042857D01*
X141157143Y-86947619D01*
X141204762Y-86900000D01*
X141300000Y-86852381D01*
X142061905Y-87328571D02*
X142395239Y-87328571D01*
X142538096Y-87852381D02*
X142061905Y-87852381D01*
X142061905Y-86852381D01*
X142538096Y-86852381D01*
D12*
X138486667Y-87366190D02*
X138320000Y-87128095D01*
X138200953Y-87366190D02*
X138200953Y-86866190D01*
X138391429Y-86866190D01*
X138439048Y-86890000D01*
X138462857Y-86913810D01*
X138486667Y-86961429D01*
X138486667Y-87032857D01*
X138462857Y-87080476D01*
X138439048Y-87104286D01*
X138391429Y-87128095D01*
X138200953Y-87128095D01*
X138962857Y-87366190D02*
X138677143Y-87366190D01*
X138820000Y-87366190D02*
X138820000Y-86866190D01*
X138772381Y-86937619D01*
X138724762Y-86985238D01*
X138677143Y-87009048D01*
D11*
X141300000Y-91752381D02*
X141395239Y-91752381D01*
X141490477Y-91800000D01*
X141538096Y-91847619D01*
X141585715Y-91942857D01*
X141633334Y-92133333D01*
X141633334Y-92371429D01*
X141585715Y-92561905D01*
X141538096Y-92657143D01*
X141490477Y-92704762D01*
X141395239Y-92752381D01*
X141300000Y-92752381D01*
X141204762Y-92704762D01*
X141157143Y-92657143D01*
X141109524Y-92561905D01*
X141061905Y-92371429D01*
X141061905Y-92133333D01*
X141109524Y-91942857D01*
X141157143Y-91847619D01*
X141204762Y-91800000D01*
X141300000Y-91752381D01*
X142061905Y-92228571D02*
X142395239Y-92228571D01*
X142538096Y-92752381D02*
X142061905Y-92752381D01*
X142061905Y-91752381D01*
X142538096Y-91752381D01*
D12*
X138466667Y-92426190D02*
X138300000Y-92188095D01*
X138180953Y-92426190D02*
X138180953Y-91926190D01*
X138371429Y-91926190D01*
X138419048Y-91950000D01*
X138442857Y-91973810D01*
X138466667Y-92021429D01*
X138466667Y-92092857D01*
X138442857Y-92140476D01*
X138419048Y-92164286D01*
X138371429Y-92188095D01*
X138180953Y-92188095D01*
X138633334Y-91926190D02*
X138942857Y-91926190D01*
X138776191Y-92116667D01*
X138847619Y-92116667D01*
X138895238Y-92140476D01*
X138919048Y-92164286D01*
X138942857Y-92211905D01*
X138942857Y-92330952D01*
X138919048Y-92378571D01*
X138895238Y-92402381D01*
X138847619Y-92426190D01*
X138704762Y-92426190D01*
X138657143Y-92402381D01*
X138633334Y-92378571D01*
D13*
X160350001Y-86176190D02*
X160397620Y-86176190D01*
X160445239Y-86200000D01*
X160469048Y-86223810D01*
X160492858Y-86271429D01*
X160516667Y-86366667D01*
X160516667Y-86485714D01*
X160492858Y-86580952D01*
X160469048Y-86628571D01*
X160445239Y-86652381D01*
X160397620Y-86676190D01*
X160350001Y-86676190D01*
X160302382Y-86652381D01*
X160278572Y-86628571D01*
X160254763Y-86580952D01*
X160230953Y-86485714D01*
X160230953Y-86366667D01*
X160254763Y-86271429D01*
X160278572Y-86223810D01*
X160302382Y-86200000D01*
X160350001Y-86176190D01*
X160730953Y-86414286D02*
X160897619Y-86414286D01*
X160969048Y-86676190D02*
X160730953Y-86676190D01*
X160730953Y-86176190D01*
X160969048Y-86176190D01*
D12*
X160516667Y-88026190D02*
X160350000Y-87788095D01*
X160230953Y-88026190D02*
X160230953Y-87526190D01*
X160421429Y-87526190D01*
X160469048Y-87550000D01*
X160492857Y-87573810D01*
X160516667Y-87621429D01*
X160516667Y-87692857D01*
X160492857Y-87740476D01*
X160469048Y-87764286D01*
X160421429Y-87788095D01*
X160230953Y-87788095D01*
X160945238Y-87692857D02*
X160945238Y-88026190D01*
X160826191Y-87502381D02*
X160707143Y-87859524D01*
X161016667Y-87859524D01*
D13*
X160350001Y-88626190D02*
X160397620Y-88626190D01*
X160445239Y-88650000D01*
X160469048Y-88673810D01*
X160492858Y-88721429D01*
X160516667Y-88816667D01*
X160516667Y-88935714D01*
X160492858Y-89030952D01*
X160469048Y-89078571D01*
X160445239Y-89102381D01*
X160397620Y-89126190D01*
X160350001Y-89126190D01*
X160302382Y-89102381D01*
X160278572Y-89078571D01*
X160254763Y-89030952D01*
X160230953Y-88935714D01*
X160230953Y-88816667D01*
X160254763Y-88721429D01*
X160278572Y-88673810D01*
X160302382Y-88650000D01*
X160350001Y-88626190D01*
X160730953Y-88864286D02*
X160897619Y-88864286D01*
X160969048Y-89126190D02*
X160730953Y-89126190D01*
X160730953Y-88626190D01*
X160969048Y-88626190D01*
D12*
X160516667Y-90176190D02*
X160350000Y-89938095D01*
X160230953Y-90176190D02*
X160230953Y-89676190D01*
X160421429Y-89676190D01*
X160469048Y-89700000D01*
X160492857Y-89723810D01*
X160516667Y-89771429D01*
X160516667Y-89842857D01*
X160492857Y-89890476D01*
X160469048Y-89914286D01*
X160421429Y-89938095D01*
X160230953Y-89938095D01*
X160969048Y-89676190D02*
X160730953Y-89676190D01*
X160707143Y-89914286D01*
X160730953Y-89890476D01*
X160778572Y-89866667D01*
X160897619Y-89866667D01*
X160945238Y-89890476D01*
X160969048Y-89914286D01*
X160992857Y-89961905D01*
X160992857Y-90080952D01*
X160969048Y-90128571D01*
X160945238Y-90152381D01*
X160897619Y-90176190D01*
X160778572Y-90176190D01*
X160730953Y-90152381D01*
X160707143Y-90128571D01*
D13*
X160350001Y-90826190D02*
X160397620Y-90826190D01*
X160445239Y-90850000D01*
X160469048Y-90873810D01*
X160492858Y-90921429D01*
X160516667Y-91016667D01*
X160516667Y-91135714D01*
X160492858Y-91230952D01*
X160469048Y-91278571D01*
X160445239Y-91302381D01*
X160397620Y-91326190D01*
X160350001Y-91326190D01*
X160302382Y-91302381D01*
X160278572Y-91278571D01*
X160254763Y-91230952D01*
X160230953Y-91135714D01*
X160230953Y-91016667D01*
X160254763Y-90921429D01*
X160278572Y-90873810D01*
X160302382Y-90850000D01*
X160350001Y-90826190D01*
X160730953Y-91064286D02*
X160897619Y-91064286D01*
X160969048Y-91326190D02*
X160730953Y-91326190D01*
X160730953Y-90826190D01*
X160969048Y-90826190D01*
D12*
X160516667Y-92426190D02*
X160350000Y-92188095D01*
X160230953Y-92426190D02*
X160230953Y-91926190D01*
X160421429Y-91926190D01*
X160469048Y-91950000D01*
X160492857Y-91973810D01*
X160516667Y-92021429D01*
X160516667Y-92092857D01*
X160492857Y-92140476D01*
X160469048Y-92164286D01*
X160421429Y-92188095D01*
X160230953Y-92188095D01*
X160945238Y-91926190D02*
X160850000Y-91926190D01*
X160802381Y-91950000D01*
X160778572Y-91973810D01*
X160730953Y-92045238D01*
X160707143Y-92140476D01*
X160707143Y-92330952D01*
X160730953Y-92378571D01*
X160754762Y-92402381D01*
X160802381Y-92426190D01*
X160897619Y-92426190D01*
X160945238Y-92402381D01*
X160969048Y-92378571D01*
X160992857Y-92330952D01*
X160992857Y-92211905D01*
X160969048Y-92164286D01*
X160945238Y-92140476D01*
X160897619Y-92116667D01*
X160802381Y-92116667D01*
X160754762Y-92140476D01*
X160730953Y-92164286D01*
X160707143Y-92211905D01*
D11*
X218985715Y-99552381D02*
X218414286Y-99552381D01*
X218700000Y-99552381D02*
X218700000Y-98552381D01*
X218604762Y-98695238D01*
X218509524Y-98790476D01*
X218414286Y-98838095D01*
X219414286Y-99552381D02*
X219414286Y-98552381D01*
X219985715Y-99552381D02*
X219557143Y-98980952D01*
X219985715Y-98552381D02*
X219414286Y-99123810D01*
D12*
X219016667Y-97626190D02*
X218850000Y-97388095D01*
X218730953Y-97626190D02*
X218730953Y-97126190D01*
X218921429Y-97126190D01*
X218969048Y-97150000D01*
X218992857Y-97173810D01*
X219016667Y-97221429D01*
X219016667Y-97292857D01*
X218992857Y-97340476D01*
X218969048Y-97364286D01*
X218921429Y-97388095D01*
X218730953Y-97388095D01*
X219183334Y-97126190D02*
X219516667Y-97126190D01*
X219302381Y-97626190D01*
D11*
X157585715Y-99752381D02*
X157014286Y-99752381D01*
X157300000Y-99752381D02*
X157300000Y-98752381D01*
X157204762Y-98895238D01*
X157109524Y-98990476D01*
X157014286Y-99038095D01*
X158014286Y-99752381D02*
X158014286Y-98752381D01*
X158585715Y-99752381D02*
X158157143Y-99180952D01*
X158585715Y-98752381D02*
X158014286Y-99323810D01*
D12*
X157716667Y-97826190D02*
X157550000Y-97588095D01*
X157430953Y-97826190D02*
X157430953Y-97326190D01*
X157621429Y-97326190D01*
X157669048Y-97350000D01*
X157692857Y-97373810D01*
X157716667Y-97421429D01*
X157716667Y-97492857D01*
X157692857Y-97540476D01*
X157669048Y-97564286D01*
X157621429Y-97588095D01*
X157430953Y-97588095D01*
X158002381Y-97540476D02*
X157954762Y-97516667D01*
X157930953Y-97492857D01*
X157907143Y-97445238D01*
X157907143Y-97421429D01*
X157930953Y-97373810D01*
X157954762Y-97350000D01*
X158002381Y-97326190D01*
X158097619Y-97326190D01*
X158145238Y-97350000D01*
X158169048Y-97373810D01*
X158192857Y-97421429D01*
X158192857Y-97445238D01*
X158169048Y-97492857D01*
X158145238Y-97516667D01*
X158097619Y-97540476D01*
X158002381Y-97540476D01*
X157954762Y-97564286D01*
X157930953Y-97588095D01*
X157907143Y-97635714D01*
X157907143Y-97730952D01*
X157930953Y-97778571D01*
X157954762Y-97802381D01*
X158002381Y-97826190D01*
X158097619Y-97826190D01*
X158145238Y-97802381D01*
X158169048Y-97778571D01*
X158192857Y-97730952D01*
X158192857Y-97635714D01*
X158169048Y-97588095D01*
X158145238Y-97564286D01*
X158097619Y-97540476D01*
D11*
X97285715Y-99737321D02*
X96714286Y-99737321D01*
X97000000Y-99737321D02*
X97000000Y-98737321D01*
X96904762Y-98880178D01*
X96809524Y-98975416D01*
X96714286Y-99023035D01*
X97714286Y-99737321D02*
X97714286Y-98737321D01*
X98285715Y-99737321D02*
X97857143Y-99165892D01*
X98285715Y-98737321D02*
X97714286Y-99308750D01*
D12*
X97416667Y-97926190D02*
X97250000Y-97688095D01*
X97130953Y-97926190D02*
X97130953Y-97426190D01*
X97321429Y-97426190D01*
X97369048Y-97450000D01*
X97392857Y-97473810D01*
X97416667Y-97521429D01*
X97416667Y-97592857D01*
X97392857Y-97640476D01*
X97369048Y-97664286D01*
X97321429Y-97688095D01*
X97130953Y-97688095D01*
X97654762Y-97926190D02*
X97750000Y-97926190D01*
X97797619Y-97902381D01*
X97821429Y-97878571D01*
X97869048Y-97807143D01*
X97892857Y-97711905D01*
X97892857Y-97521429D01*
X97869048Y-97473810D01*
X97845238Y-97450000D01*
X97797619Y-97426190D01*
X97702381Y-97426190D01*
X97654762Y-97450000D01*
X97630953Y-97473810D01*
X97607143Y-97521429D01*
X97607143Y-97640476D01*
X97630953Y-97688095D01*
X97654762Y-97711905D01*
X97702381Y-97735714D01*
X97797619Y-97735714D01*
X97845238Y-97711905D01*
X97869048Y-97688095D01*
X97892857Y-97640476D01*
D11*
X144985714Y-91052381D02*
X145557143Y-91052381D01*
X145271428Y-92052381D02*
X145271428Y-91052381D01*
X145747619Y-91052381D02*
X146319048Y-91052381D01*
X146033333Y-92052381D02*
X146033333Y-91052381D01*
X146652381Y-92052381D02*
X146652381Y-91052381D01*
X147033334Y-91052381D01*
X147128572Y-91100000D01*
X147176191Y-91147619D01*
X147223810Y-91242857D01*
X147223810Y-91385714D01*
X147176191Y-91480952D01*
X147128572Y-91528571D01*
X147033334Y-91576190D01*
X146652381Y-91576190D01*
X147604762Y-91147619D02*
X147652381Y-91100000D01*
X147747619Y-91052381D01*
X147985715Y-91052381D01*
X148080953Y-91100000D01*
X148128572Y-91147619D01*
X148176191Y-91242857D01*
X148176191Y-91338095D01*
X148128572Y-91480952D01*
X147557143Y-92052381D01*
X148176191Y-92052381D01*
X148557143Y-91147619D02*
X148604762Y-91100000D01*
X148700000Y-91052381D01*
X148938096Y-91052381D01*
X149033334Y-91100000D01*
X149080953Y-91147619D01*
X149128572Y-91242857D01*
X149128572Y-91338095D01*
X149080953Y-91480952D01*
X148509524Y-92052381D01*
X149128572Y-92052381D01*
X149985715Y-91385714D02*
X149985715Y-92052381D01*
X149747619Y-91004762D02*
X149509524Y-91719048D01*
X150128572Y-91719048D01*
X150509524Y-92052381D02*
X150509524Y-91052381D01*
X151080953Y-92052381D01*
X151080953Y-91052381D01*
X151557143Y-91671429D02*
X152319048Y-91671429D01*
X153128572Y-91528571D02*
X153271429Y-91576190D01*
X153319048Y-91623810D01*
X153366667Y-91719048D01*
X153366667Y-91861905D01*
X153319048Y-91957143D01*
X153271429Y-92004762D01*
X153176191Y-92052381D01*
X152795238Y-92052381D01*
X152795238Y-91052381D01*
X153128572Y-91052381D01*
X153223810Y-91100000D01*
X153271429Y-91147619D01*
X153319048Y-91242857D01*
X153319048Y-91338095D01*
X153271429Y-91433333D01*
X153223810Y-91480952D01*
X153128572Y-91528571D01*
X152795238Y-91528571D01*
X153747619Y-92004762D02*
X153890476Y-92052381D01*
X154128572Y-92052381D01*
X154223810Y-92004762D01*
X154271429Y-91957143D01*
X154319048Y-91861905D01*
X154319048Y-91766667D01*
X154271429Y-91671429D01*
X154223810Y-91623810D01*
X154128572Y-91576190D01*
X153938095Y-91528571D01*
X153842857Y-91480952D01*
X153795238Y-91433333D01*
X153747619Y-91338095D01*
X153747619Y-91242857D01*
X153795238Y-91147619D01*
X153842857Y-91100000D01*
X153938095Y-91052381D01*
X154176191Y-91052381D01*
X154319048Y-91100000D01*
X155080953Y-91528571D02*
X155223810Y-91576190D01*
X155271429Y-91623810D01*
X155319048Y-91719048D01*
X155319048Y-91861905D01*
X155271429Y-91957143D01*
X155223810Y-92004762D01*
X155128572Y-92052381D01*
X154747619Y-92052381D01*
X154747619Y-91052381D01*
X155080953Y-91052381D01*
X155176191Y-91100000D01*
X155223810Y-91147619D01*
X155271429Y-91242857D01*
X155271429Y-91338095D01*
X155223810Y-91433333D01*
X155176191Y-91480952D01*
X155080953Y-91528571D01*
X154747619Y-91528571D01*
X149490476Y-88561905D02*
X149490476Y-89209524D01*
X149528571Y-89285714D01*
X149566667Y-89323810D01*
X149642857Y-89361905D01*
X149795238Y-89361905D01*
X149871429Y-89323810D01*
X149909524Y-89285714D01*
X149947619Y-89209524D01*
X149947619Y-88561905D01*
X150747619Y-89361905D02*
X150290476Y-89361905D01*
X150519047Y-89361905D02*
X150519047Y-88561905D01*
X150442857Y-88676190D01*
X150366666Y-88752381D01*
X150290476Y-88790476D01*
X18623809Y-78728571D02*
X18290475Y-78728571D01*
X18290475Y-79252381D02*
X18290475Y-78252381D01*
X18766666Y-78252381D01*
X19576190Y-79252381D02*
X19576190Y-78728571D01*
X19528571Y-78633333D01*
X19433333Y-78585714D01*
X19242856Y-78585714D01*
X19147618Y-78633333D01*
X19576190Y-79204762D02*
X19480952Y-79252381D01*
X19242856Y-79252381D01*
X19147618Y-79204762D01*
X19099999Y-79109524D01*
X19099999Y-79014286D01*
X19147618Y-78919048D01*
X19242856Y-78871429D01*
X19480952Y-78871429D01*
X19576190Y-78823810D01*
X20052380Y-79252381D02*
X20052380Y-78252381D01*
X20052380Y-78633333D02*
X20147618Y-78585714D01*
X20338095Y-78585714D01*
X20433333Y-78633333D01*
X20480952Y-78680952D01*
X20528571Y-78776190D01*
X20528571Y-79061905D01*
X20480952Y-79157143D01*
X20433333Y-79204762D01*
X20338095Y-79252381D01*
X20147618Y-79252381D01*
X20052380Y-79204762D01*
X21719047Y-79252381D02*
X21719047Y-78252381D01*
X21957142Y-78252381D01*
X22100000Y-78300000D01*
X22195238Y-78395238D01*
X22242857Y-78490476D01*
X22290476Y-78680952D01*
X22290476Y-78823810D01*
X22242857Y-79014286D01*
X22195238Y-79109524D01*
X22100000Y-79204762D01*
X21957142Y-79252381D01*
X21719047Y-79252381D01*
X23100000Y-79204762D02*
X23004762Y-79252381D01*
X22814285Y-79252381D01*
X22719047Y-79204762D01*
X22671428Y-79109524D01*
X22671428Y-78728571D01*
X22719047Y-78633333D01*
X22814285Y-78585714D01*
X23004762Y-78585714D01*
X23100000Y-78633333D01*
X23147619Y-78728571D01*
X23147619Y-78823810D01*
X22671428Y-78919048D01*
X23433333Y-78585714D02*
X23814285Y-78585714D01*
X23576190Y-78252381D02*
X23576190Y-79109524D01*
X23623809Y-79204762D01*
X23719047Y-79252381D01*
X23814285Y-79252381D01*
X24576191Y-79252381D02*
X24576191Y-78728571D01*
X24528572Y-78633333D01*
X24433334Y-78585714D01*
X24242857Y-78585714D01*
X24147619Y-78633333D01*
X24576191Y-79204762D02*
X24480953Y-79252381D01*
X24242857Y-79252381D01*
X24147619Y-79204762D01*
X24100000Y-79109524D01*
X24100000Y-79014286D01*
X24147619Y-78919048D01*
X24242857Y-78871429D01*
X24480953Y-78871429D01*
X24576191Y-78823810D01*
X25052381Y-79252381D02*
X25052381Y-78585714D01*
X25052381Y-78252381D02*
X25004762Y-78300000D01*
X25052381Y-78347619D01*
X25100000Y-78300000D01*
X25052381Y-78252381D01*
X25052381Y-78347619D01*
X25671428Y-79252381D02*
X25576190Y-79204762D01*
X25528571Y-79109524D01*
X25528571Y-78252381D01*
X26004762Y-79204762D02*
X26100000Y-79252381D01*
X26290476Y-79252381D01*
X26385715Y-79204762D01*
X26433334Y-79109524D01*
X26433334Y-79061905D01*
X26385715Y-78966667D01*
X26290476Y-78919048D01*
X26147619Y-78919048D01*
X26052381Y-78871429D01*
X26004762Y-78776190D01*
X26004762Y-78728571D01*
X26052381Y-78633333D01*
X26147619Y-78585714D01*
X26290476Y-78585714D01*
X26385715Y-78633333D01*
X27480953Y-78585714D02*
X27861905Y-78585714D01*
X27623810Y-78252381D02*
X27623810Y-79109524D01*
X27671429Y-79204762D01*
X27766667Y-79252381D01*
X27861905Y-79252381D01*
X28623811Y-79252381D02*
X28623811Y-78728571D01*
X28576192Y-78633333D01*
X28480954Y-78585714D01*
X28290477Y-78585714D01*
X28195239Y-78633333D01*
X28623811Y-79204762D02*
X28528573Y-79252381D01*
X28290477Y-79252381D01*
X28195239Y-79204762D01*
X28147620Y-79109524D01*
X28147620Y-79014286D01*
X28195239Y-78919048D01*
X28290477Y-78871429D01*
X28528573Y-78871429D01*
X28623811Y-78823810D01*
X29100001Y-79252381D02*
X29100001Y-78252381D01*
X29100001Y-78633333D02*
X29195239Y-78585714D01*
X29385716Y-78585714D01*
X29480954Y-78633333D01*
X29528573Y-78680952D01*
X29576192Y-78776190D01*
X29576192Y-79061905D01*
X29528573Y-79157143D01*
X29480954Y-79204762D01*
X29385716Y-79252381D01*
X29195239Y-79252381D01*
X29100001Y-79204762D01*
X30147620Y-79252381D02*
X30052382Y-79204762D01*
X30004763Y-79109524D01*
X30004763Y-78252381D01*
X30909526Y-79204762D02*
X30814288Y-79252381D01*
X30623811Y-79252381D01*
X30528573Y-79204762D01*
X30480954Y-79109524D01*
X30480954Y-78728571D01*
X30528573Y-78633333D01*
X30623811Y-78585714D01*
X30814288Y-78585714D01*
X30909526Y-78633333D01*
X30957145Y-78728571D01*
X30957145Y-78823810D01*
X30480954Y-78919048D01*
X206085715Y-94352381D02*
X205514286Y-94352381D01*
X205800000Y-94352381D02*
X205800000Y-93352381D01*
X205704762Y-93495238D01*
X205609524Y-93590476D01*
X205514286Y-93638095D01*
X206514286Y-94352381D02*
X206514286Y-93352381D01*
X207085715Y-94352381D02*
X206657143Y-93780952D01*
X207085715Y-93352381D02*
X206514286Y-93923810D01*
D12*
X205978572Y-95726190D02*
X205811905Y-95488095D01*
X205692858Y-95726190D02*
X205692858Y-95226190D01*
X205883334Y-95226190D01*
X205930953Y-95250000D01*
X205954762Y-95273810D01*
X205978572Y-95321429D01*
X205978572Y-95392857D01*
X205954762Y-95440476D01*
X205930953Y-95464286D01*
X205883334Y-95488095D01*
X205692858Y-95488095D01*
X206454762Y-95726190D02*
X206169048Y-95726190D01*
X206311905Y-95726190D02*
X206311905Y-95226190D01*
X206264286Y-95297619D01*
X206216667Y-95345238D01*
X206169048Y-95369048D01*
X206764286Y-95226190D02*
X206811905Y-95226190D01*
X206859524Y-95250000D01*
X206883333Y-95273810D01*
X206907143Y-95321429D01*
X206930952Y-95416667D01*
X206930952Y-95535714D01*
X206907143Y-95630952D01*
X206883333Y-95678571D01*
X206859524Y-95702381D01*
X206811905Y-95726190D01*
X206764286Y-95726190D01*
X206716667Y-95702381D01*
X206692857Y-95678571D01*
X206669048Y-95630952D01*
X206645238Y-95535714D01*
X206645238Y-95416667D01*
X206669048Y-95321429D01*
X206692857Y-95273810D01*
X206716667Y-95250000D01*
X206764286Y-95226190D01*
D11*
X151885715Y-95252381D02*
X151314286Y-95252381D01*
X151600000Y-95252381D02*
X151600000Y-94252381D01*
X151504762Y-94395238D01*
X151409524Y-94490476D01*
X151314286Y-94538095D01*
X152314286Y-95252381D02*
X152314286Y-94252381D01*
X152885715Y-95252381D02*
X152457143Y-94680952D01*
X152885715Y-94252381D02*
X152314286Y-94823810D01*
D12*
X148378572Y-95126190D02*
X148211905Y-94888095D01*
X148092858Y-95126190D02*
X148092858Y-94626190D01*
X148283334Y-94626190D01*
X148330953Y-94650000D01*
X148354762Y-94673810D01*
X148378572Y-94721429D01*
X148378572Y-94792857D01*
X148354762Y-94840476D01*
X148330953Y-94864286D01*
X148283334Y-94888095D01*
X148092858Y-94888095D01*
X148854762Y-95126190D02*
X148569048Y-95126190D01*
X148711905Y-95126190D02*
X148711905Y-94626190D01*
X148664286Y-94697619D01*
X148616667Y-94745238D01*
X148569048Y-94769048D01*
X149330952Y-95126190D02*
X149045238Y-95126190D01*
X149188095Y-95126190D02*
X149188095Y-94626190D01*
X149140476Y-94697619D01*
X149092857Y-94745238D01*
X149045238Y-94769048D01*
D11*
X91785715Y-95752381D02*
X91214286Y-95752381D01*
X91500000Y-95752381D02*
X91500000Y-94752381D01*
X91404762Y-94895238D01*
X91309524Y-94990476D01*
X91214286Y-95038095D01*
X92214286Y-95752381D02*
X92214286Y-94752381D01*
X92785715Y-95752381D02*
X92357143Y-95180952D01*
X92785715Y-94752381D02*
X92214286Y-95323810D01*
D12*
X88378572Y-95726190D02*
X88211905Y-95488095D01*
X88092858Y-95726190D02*
X88092858Y-95226190D01*
X88283334Y-95226190D01*
X88330953Y-95250000D01*
X88354762Y-95273810D01*
X88378572Y-95321429D01*
X88378572Y-95392857D01*
X88354762Y-95440476D01*
X88330953Y-95464286D01*
X88283334Y-95488095D01*
X88092858Y-95488095D01*
X88854762Y-95726190D02*
X88569048Y-95726190D01*
X88711905Y-95726190D02*
X88711905Y-95226190D01*
X88664286Y-95297619D01*
X88616667Y-95345238D01*
X88569048Y-95369048D01*
X89045238Y-95273810D02*
X89069048Y-95250000D01*
X89116667Y-95226190D01*
X89235714Y-95226190D01*
X89283333Y-95250000D01*
X89307143Y-95273810D01*
X89330952Y-95321429D01*
X89330952Y-95369048D01*
X89307143Y-95440476D01*
X89021429Y-95726190D01*
X89330952Y-95726190D01*
D11*
X210976191Y-87535714D02*
X210976191Y-88202381D01*
X210738095Y-87154762D02*
X210500000Y-87869048D01*
X211119048Y-87869048D01*
X211500000Y-88107143D02*
X211547619Y-88154762D01*
X211500000Y-88202381D01*
X211452381Y-88154762D01*
X211500000Y-88107143D01*
X211500000Y-88202381D01*
X211880952Y-87202381D02*
X212547619Y-87202381D01*
X212119047Y-88202381D01*
X212928571Y-88202381D02*
X212928571Y-87202381D01*
X213500000Y-88202381D02*
X213071428Y-87630952D01*
X213500000Y-87202381D02*
X212928571Y-87773810D01*
D12*
X211678572Y-89426190D02*
X211511905Y-89188095D01*
X211392858Y-89426190D02*
X211392858Y-88926190D01*
X211583334Y-88926190D01*
X211630953Y-88950000D01*
X211654762Y-88973810D01*
X211678572Y-89021429D01*
X211678572Y-89092857D01*
X211654762Y-89140476D01*
X211630953Y-89164286D01*
X211583334Y-89188095D01*
X211392858Y-89188095D01*
X212154762Y-89426190D02*
X211869048Y-89426190D01*
X212011905Y-89426190D02*
X212011905Y-88926190D01*
X211964286Y-88997619D01*
X211916667Y-89045238D01*
X211869048Y-89069048D01*
X212321429Y-88926190D02*
X212630952Y-88926190D01*
X212464286Y-89116667D01*
X212535714Y-89116667D01*
X212583333Y-89140476D01*
X212607143Y-89164286D01*
X212630952Y-89211905D01*
X212630952Y-89330952D01*
X212607143Y-89378571D01*
X212583333Y-89402381D01*
X212535714Y-89426190D01*
X212392857Y-89426190D01*
X212345238Y-89402381D01*
X212321429Y-89378571D01*
D11*
X134335714Y-95123809D02*
X135002381Y-95123809D01*
X133954762Y-95361905D02*
X134669048Y-95600000D01*
X134669048Y-94980952D01*
X134907143Y-94600000D02*
X134954762Y-94552381D01*
X135002381Y-94600000D01*
X134954762Y-94647619D01*
X134907143Y-94600000D01*
X135002381Y-94600000D01*
X134002381Y-94219048D02*
X134002381Y-93552381D01*
X135002381Y-93980953D01*
X135002381Y-93171429D02*
X134002381Y-93171429D01*
X135002381Y-92600000D02*
X134430952Y-93028572D01*
X134002381Y-92600000D02*
X134573810Y-93171429D01*
D12*
X133026190Y-94421428D02*
X132788095Y-94588095D01*
X133026190Y-94707142D02*
X132526190Y-94707142D01*
X132526190Y-94516666D01*
X132550000Y-94469047D01*
X132573810Y-94445238D01*
X132621429Y-94421428D01*
X132692857Y-94421428D01*
X132740476Y-94445238D01*
X132764286Y-94469047D01*
X132788095Y-94516666D01*
X132788095Y-94707142D01*
X133026190Y-93945238D02*
X133026190Y-94230952D01*
X133026190Y-94088095D02*
X132526190Y-94088095D01*
X132597619Y-94135714D01*
X132645238Y-94183333D01*
X132669048Y-94230952D01*
X132692857Y-93516667D02*
X133026190Y-93516667D01*
X132502381Y-93635714D02*
X132859524Y-93754762D01*
X132859524Y-93445238D01*
D11*
X94085714Y-92323809D02*
X94752381Y-92323809D01*
X93704762Y-92561905D02*
X94419048Y-92800000D01*
X94419048Y-92180952D01*
X94657143Y-91800000D02*
X94704762Y-91752381D01*
X94752381Y-91800000D01*
X94704762Y-91847619D01*
X94657143Y-91800000D01*
X94752381Y-91800000D01*
X93752381Y-91419048D02*
X93752381Y-90752381D01*
X94752381Y-91180953D01*
X94752381Y-90371429D02*
X93752381Y-90371429D01*
X94752381Y-89800000D02*
X94180952Y-90228572D01*
X93752381Y-89800000D02*
X94323810Y-90371429D01*
D12*
X92876190Y-91621428D02*
X92638095Y-91788095D01*
X92876190Y-91907142D02*
X92376190Y-91907142D01*
X92376190Y-91716666D01*
X92400000Y-91669047D01*
X92423810Y-91645238D01*
X92471429Y-91621428D01*
X92542857Y-91621428D01*
X92590476Y-91645238D01*
X92614286Y-91669047D01*
X92638095Y-91716666D01*
X92638095Y-91907142D01*
X92876190Y-91145238D02*
X92876190Y-91430952D01*
X92876190Y-91288095D02*
X92376190Y-91288095D01*
X92447619Y-91335714D01*
X92495238Y-91383333D01*
X92519048Y-91430952D01*
X92376190Y-90692857D02*
X92376190Y-90930952D01*
X92614286Y-90954762D01*
X92590476Y-90930952D01*
X92566667Y-90883333D01*
X92566667Y-90764286D01*
X92590476Y-90716667D01*
X92614286Y-90692857D01*
X92661905Y-90669048D01*
X92780952Y-90669048D01*
X92828571Y-90692857D01*
X92852381Y-90716667D01*
X92876190Y-90764286D01*
X92876190Y-90883333D01*
X92852381Y-90930952D01*
X92828571Y-90954762D01*
D11*
X208635714Y-93285714D02*
X209302381Y-93285714D01*
X208254762Y-93523810D02*
X208969048Y-93761905D01*
X208969048Y-93142857D01*
X208302381Y-92857143D02*
X208302381Y-92190476D01*
X209302381Y-92619048D01*
X209302381Y-91809524D02*
X208302381Y-91809524D01*
X209302381Y-91238095D02*
X208730952Y-91666667D01*
X208302381Y-91238095D02*
X208873810Y-91809524D01*
D12*
X210826190Y-92821428D02*
X210588095Y-92988095D01*
X210826190Y-93107142D02*
X210326190Y-93107142D01*
X210326190Y-92916666D01*
X210350000Y-92869047D01*
X210373810Y-92845238D01*
X210421429Y-92821428D01*
X210492857Y-92821428D01*
X210540476Y-92845238D01*
X210564286Y-92869047D01*
X210588095Y-92916666D01*
X210588095Y-93107142D01*
X210826190Y-92345238D02*
X210826190Y-92630952D01*
X210826190Y-92488095D02*
X210326190Y-92488095D01*
X210397619Y-92535714D01*
X210445238Y-92583333D01*
X210469048Y-92630952D01*
X210326190Y-91916667D02*
X210326190Y-92011905D01*
X210350000Y-92059524D01*
X210373810Y-92083333D01*
X210445238Y-92130952D01*
X210540476Y-92154762D01*
X210730952Y-92154762D01*
X210778571Y-92130952D01*
X210802381Y-92107143D01*
X210826190Y-92059524D01*
X210826190Y-91964286D01*
X210802381Y-91916667D01*
X210778571Y-91892857D01*
X210730952Y-91869048D01*
X210611905Y-91869048D01*
X210564286Y-91892857D01*
X210540476Y-91916667D01*
X210516667Y-91964286D01*
X210516667Y-92059524D01*
X210540476Y-92107143D01*
X210564286Y-92130952D01*
X210611905Y-92154762D01*
D11*
X128614286Y-90735714D02*
X128614286Y-91402381D01*
X128376190Y-90354762D02*
X128138095Y-91069048D01*
X128757143Y-91069048D01*
X129042857Y-90402381D02*
X129709524Y-90402381D01*
X129280952Y-91402381D01*
X130090476Y-91402381D02*
X130090476Y-90402381D01*
X130661905Y-91402381D02*
X130233333Y-90830952D01*
X130661905Y-90402381D02*
X130090476Y-90973810D01*
D12*
X129078572Y-92926190D02*
X128911905Y-92688095D01*
X128792858Y-92926190D02*
X128792858Y-92426190D01*
X128983334Y-92426190D01*
X129030953Y-92450000D01*
X129054762Y-92473810D01*
X129078572Y-92521429D01*
X129078572Y-92592857D01*
X129054762Y-92640476D01*
X129030953Y-92664286D01*
X128983334Y-92688095D01*
X128792858Y-92688095D01*
X129554762Y-92926190D02*
X129269048Y-92926190D01*
X129411905Y-92926190D02*
X129411905Y-92426190D01*
X129364286Y-92497619D01*
X129316667Y-92545238D01*
X129269048Y-92569048D01*
X129721429Y-92426190D02*
X130054762Y-92426190D01*
X129840476Y-92926190D01*
D11*
X88614286Y-88185714D02*
X88614286Y-88852381D01*
X88376190Y-87804762D02*
X88138095Y-88519048D01*
X88757143Y-88519048D01*
X89042857Y-87852381D02*
X89709524Y-87852381D01*
X89280952Y-88852381D01*
X90090476Y-88852381D02*
X90090476Y-87852381D01*
X90661905Y-88852381D02*
X90233333Y-88280952D01*
X90661905Y-87852381D02*
X90090476Y-88423810D01*
D12*
X88978572Y-90126190D02*
X88811905Y-89888095D01*
X88692858Y-90126190D02*
X88692858Y-89626190D01*
X88883334Y-89626190D01*
X88930953Y-89650000D01*
X88954762Y-89673810D01*
X88978572Y-89721429D01*
X88978572Y-89792857D01*
X88954762Y-89840476D01*
X88930953Y-89864286D01*
X88883334Y-89888095D01*
X88692858Y-89888095D01*
X89454762Y-90126190D02*
X89169048Y-90126190D01*
X89311905Y-90126190D02*
X89311905Y-89626190D01*
X89264286Y-89697619D01*
X89216667Y-89745238D01*
X89169048Y-89769048D01*
X89740476Y-89840476D02*
X89692857Y-89816667D01*
X89669048Y-89792857D01*
X89645238Y-89745238D01*
X89645238Y-89721429D01*
X89669048Y-89673810D01*
X89692857Y-89650000D01*
X89740476Y-89626190D01*
X89835714Y-89626190D01*
X89883333Y-89650000D01*
X89907143Y-89673810D01*
X89930952Y-89721429D01*
X89930952Y-89745238D01*
X89907143Y-89792857D01*
X89883333Y-89816667D01*
X89835714Y-89840476D01*
X89740476Y-89840476D01*
X89692857Y-89864286D01*
X89669048Y-89888095D01*
X89645238Y-89935714D01*
X89645238Y-90030952D01*
X89669048Y-90078571D01*
X89692857Y-90102381D01*
X89740476Y-90126190D01*
X89835714Y-90126190D01*
X89883333Y-90102381D01*
X89907143Y-90078571D01*
X89930952Y-90030952D01*
X89930952Y-89935714D01*
X89907143Y-89888095D01*
X89883333Y-89864286D01*
X89835714Y-89840476D01*
D11*
X215009524Y-94002381D02*
X215009524Y-93002381D01*
X215342858Y-93716667D01*
X215676191Y-93002381D01*
X215676191Y-94002381D01*
X216152381Y-94002381D02*
X216152381Y-93002381D01*
X216485715Y-93716667D01*
X216819048Y-93002381D01*
X216819048Y-94002381D01*
X217628572Y-93478571D02*
X217771429Y-93526190D01*
X217819048Y-93573810D01*
X217866667Y-93669048D01*
X217866667Y-93811905D01*
X217819048Y-93907143D01*
X217771429Y-93954762D01*
X217676191Y-94002381D01*
X217295238Y-94002381D01*
X217295238Y-93002381D01*
X217628572Y-93002381D01*
X217723810Y-93050000D01*
X217771429Y-93097619D01*
X217819048Y-93192857D01*
X217819048Y-93288095D01*
X217771429Y-93383333D01*
X217723810Y-93430952D01*
X217628572Y-93478571D01*
X217295238Y-93478571D01*
X218152381Y-93002381D02*
X218723810Y-93002381D01*
X218438095Y-94002381D02*
X218438095Y-93002381D01*
X218961905Y-93002381D02*
X219580953Y-93002381D01*
X219247619Y-93383333D01*
X219390477Y-93383333D01*
X219485715Y-93430952D01*
X219533334Y-93478571D01*
X219580953Y-93573810D01*
X219580953Y-93811905D01*
X219533334Y-93907143D01*
X219485715Y-93954762D01*
X219390477Y-94002381D01*
X219104762Y-94002381D01*
X219009524Y-93954762D01*
X218961905Y-93907143D01*
X220057143Y-94002381D02*
X220247619Y-94002381D01*
X220342858Y-93954762D01*
X220390477Y-93907143D01*
X220485715Y-93764286D01*
X220533334Y-93573810D01*
X220533334Y-93192857D01*
X220485715Y-93097619D01*
X220438096Y-93050000D01*
X220342858Y-93002381D01*
X220152381Y-93002381D01*
X220057143Y-93050000D01*
X220009524Y-93097619D01*
X219961905Y-93192857D01*
X219961905Y-93430952D01*
X220009524Y-93526190D01*
X220057143Y-93573810D01*
X220152381Y-93621429D01*
X220342858Y-93621429D01*
X220438096Y-93573810D01*
X220485715Y-93526190D01*
X220533334Y-93430952D01*
X221152381Y-93002381D02*
X221247620Y-93002381D01*
X221342858Y-93050000D01*
X221390477Y-93097619D01*
X221438096Y-93192857D01*
X221485715Y-93383333D01*
X221485715Y-93621429D01*
X221438096Y-93811905D01*
X221390477Y-93907143D01*
X221342858Y-93954762D01*
X221247620Y-94002381D01*
X221152381Y-94002381D01*
X221057143Y-93954762D01*
X221009524Y-93907143D01*
X220961905Y-93811905D01*
X220914286Y-93621429D01*
X220914286Y-93383333D01*
X220961905Y-93192857D01*
X221009524Y-93097619D01*
X221057143Y-93050000D01*
X221152381Y-93002381D01*
X222342858Y-93335714D02*
X222342858Y-94002381D01*
X222104762Y-92954762D02*
X221866667Y-93669048D01*
X222485715Y-93669048D01*
D12*
X213473810Y-91947619D02*
X213450000Y-91995238D01*
X213402381Y-92042857D01*
X213330952Y-92114286D01*
X213307143Y-92161905D01*
X213307143Y-92209524D01*
X213426190Y-92185714D02*
X213402381Y-92233333D01*
X213354762Y-92280952D01*
X213259524Y-92304762D01*
X213092857Y-92304762D01*
X212997619Y-92280952D01*
X212950000Y-92233333D01*
X212926190Y-92185714D01*
X212926190Y-92090476D01*
X212950000Y-92042857D01*
X212997619Y-91995238D01*
X213092857Y-91971429D01*
X213259524Y-91971429D01*
X213354762Y-91995238D01*
X213402381Y-92042857D01*
X213426190Y-92090476D01*
X213426190Y-92185714D01*
X213426190Y-91495238D02*
X213426190Y-91780952D01*
X213426190Y-91638095D02*
X212926190Y-91638095D01*
X212997619Y-91685714D01*
X213045238Y-91733333D01*
X213069048Y-91780952D01*
X130102381Y-95673810D02*
X130054762Y-95650000D01*
X130007143Y-95602381D01*
X129935714Y-95530952D01*
X129888095Y-95507143D01*
X129840476Y-95507143D01*
X129864286Y-95626190D02*
X129816667Y-95602381D01*
X129769048Y-95554762D01*
X129745238Y-95459524D01*
X129745238Y-95292857D01*
X129769048Y-95197619D01*
X129816667Y-95150000D01*
X129864286Y-95126190D01*
X129959524Y-95126190D01*
X130007143Y-95150000D01*
X130054762Y-95197619D01*
X130078571Y-95292857D01*
X130078571Y-95459524D01*
X130054762Y-95554762D01*
X130007143Y-95602381D01*
X129959524Y-95626190D01*
X129864286Y-95626190D01*
X130269048Y-95173810D02*
X130292858Y-95150000D01*
X130340477Y-95126190D01*
X130459524Y-95126190D01*
X130507143Y-95150000D01*
X130530953Y-95173810D01*
X130554762Y-95221429D01*
X130554762Y-95269048D01*
X130530953Y-95340476D01*
X130245239Y-95626190D01*
X130554762Y-95626190D01*
X89952381Y-92973810D02*
X89904762Y-92950000D01*
X89857143Y-92902381D01*
X89785714Y-92830952D01*
X89738095Y-92807143D01*
X89690476Y-92807143D01*
X89714286Y-92926190D02*
X89666667Y-92902381D01*
X89619048Y-92854762D01*
X89595238Y-92759524D01*
X89595238Y-92592857D01*
X89619048Y-92497619D01*
X89666667Y-92450000D01*
X89714286Y-92426190D01*
X89809524Y-92426190D01*
X89857143Y-92450000D01*
X89904762Y-92497619D01*
X89928571Y-92592857D01*
X89928571Y-92759524D01*
X89904762Y-92854762D01*
X89857143Y-92902381D01*
X89809524Y-92926190D01*
X89714286Y-92926190D01*
X90095239Y-92426190D02*
X90404762Y-92426190D01*
X90238096Y-92616667D01*
X90309524Y-92616667D01*
X90357143Y-92640476D01*
X90380953Y-92664286D01*
X90404762Y-92711905D01*
X90404762Y-92830952D01*
X90380953Y-92878571D01*
X90357143Y-92902381D01*
X90309524Y-92926190D01*
X90166667Y-92926190D01*
X90119048Y-92902381D01*
X90095239Y-92878571D01*
D11*
X115614286Y-83452381D02*
X115614286Y-82452381D01*
X115852381Y-82452381D01*
X115995239Y-82500000D01*
X116090477Y-82595238D01*
X116138096Y-82690476D01*
X116185715Y-82880952D01*
X116185715Y-83023810D01*
X116138096Y-83214286D01*
X116090477Y-83309524D01*
X115995239Y-83404762D01*
X115852381Y-83452381D01*
X115614286Y-83452381D01*
X116614286Y-83452381D02*
X116614286Y-82452381D01*
X117661905Y-83452381D02*
X117328571Y-82976190D01*
X117090476Y-83452381D02*
X117090476Y-82452381D01*
X117471429Y-82452381D01*
X117566667Y-82500000D01*
X117614286Y-82547619D01*
X117661905Y-82642857D01*
X117661905Y-82785714D01*
X117614286Y-82880952D01*
X117566667Y-82928571D01*
X117471429Y-82976190D01*
X117090476Y-82976190D01*
X118090476Y-82928571D02*
X118423810Y-82928571D01*
X118566667Y-83452381D02*
X118090476Y-83452381D01*
X118090476Y-82452381D01*
X118566667Y-82452381D01*
X119566667Y-83357143D02*
X119519048Y-83404762D01*
X119376191Y-83452381D01*
X119280953Y-83452381D01*
X119138095Y-83404762D01*
X119042857Y-83309524D01*
X118995238Y-83214286D01*
X118947619Y-83023810D01*
X118947619Y-82880952D01*
X118995238Y-82690476D01*
X119042857Y-82595238D01*
X119138095Y-82500000D01*
X119280953Y-82452381D01*
X119376191Y-82452381D01*
X119519048Y-82500000D01*
X119566667Y-82547619D01*
X119852381Y-82452381D02*
X120423810Y-82452381D01*
X120138095Y-83452381D02*
X120138095Y-82452381D01*
X120519048Y-83547619D02*
X121280953Y-83547619D01*
X122090477Y-83357143D02*
X122042858Y-83404762D01*
X121900001Y-83452381D01*
X121804763Y-83452381D01*
X121661905Y-83404762D01*
X121566667Y-83309524D01*
X121519048Y-83214286D01*
X121471429Y-83023810D01*
X121471429Y-82880952D01*
X121519048Y-82690476D01*
X121566667Y-82595238D01*
X121661905Y-82500000D01*
X121804763Y-82452381D01*
X121900001Y-82452381D01*
X122042858Y-82500000D01*
X122090477Y-82547619D01*
X122709524Y-82452381D02*
X122900001Y-82452381D01*
X122995239Y-82500000D01*
X123090477Y-82595238D01*
X123138096Y-82785714D01*
X123138096Y-83119048D01*
X123090477Y-83309524D01*
X122995239Y-83404762D01*
X122900001Y-83452381D01*
X122709524Y-83452381D01*
X122614286Y-83404762D01*
X122519048Y-83309524D01*
X122471429Y-83119048D01*
X122471429Y-82785714D01*
X122519048Y-82595238D01*
X122614286Y-82500000D01*
X122709524Y-82452381D01*
X123566667Y-83452381D02*
X123566667Y-82452381D01*
X124138096Y-83452381D01*
X124138096Y-82452381D01*
X124614286Y-83452381D02*
X124614286Y-82452381D01*
X125185715Y-83452381D01*
X125185715Y-82452381D01*
X120511905Y-85552381D02*
X120511905Y-84552381D01*
X120892858Y-84552381D01*
X120988096Y-84600000D01*
X121035715Y-84647619D01*
X121083334Y-84742857D01*
X121083334Y-84885714D01*
X121035715Y-84980952D01*
X120988096Y-85028571D01*
X120892858Y-85076190D01*
X120511905Y-85076190D01*
X122035715Y-85552381D02*
X121464286Y-85552381D01*
X121750000Y-85552381D02*
X121750000Y-84552381D01*
X121654762Y-84695238D01*
X121559524Y-84790476D01*
X121464286Y-84838095D01*
X186390476Y-82552381D02*
X186961905Y-82552381D01*
X186676190Y-83552381D02*
X186676190Y-82552381D01*
X187485714Y-82552381D02*
X187676191Y-82552381D01*
X187771429Y-82600000D01*
X187866667Y-82695238D01*
X187914286Y-82885714D01*
X187914286Y-83219048D01*
X187866667Y-83409524D01*
X187771429Y-83504762D01*
X187676191Y-83552381D01*
X187485714Y-83552381D01*
X187390476Y-83504762D01*
X187295238Y-83409524D01*
X187247619Y-83219048D01*
X187247619Y-82885714D01*
X187295238Y-82695238D01*
X187390476Y-82600000D01*
X187485714Y-82552381D01*
X188342857Y-82552381D02*
X188342857Y-83361905D01*
X188390476Y-83457143D01*
X188438095Y-83504762D01*
X188533333Y-83552381D01*
X188723810Y-83552381D01*
X188819048Y-83504762D01*
X188866667Y-83457143D01*
X188914286Y-83361905D01*
X188914286Y-82552381D01*
X189961905Y-83457143D02*
X189914286Y-83504762D01*
X189771429Y-83552381D01*
X189676191Y-83552381D01*
X189533333Y-83504762D01*
X189438095Y-83409524D01*
X189390476Y-83314286D01*
X189342857Y-83123810D01*
X189342857Y-82980952D01*
X189390476Y-82790476D01*
X189438095Y-82695238D01*
X189533333Y-82600000D01*
X189676191Y-82552381D01*
X189771429Y-82552381D01*
X189914286Y-82600000D01*
X189961905Y-82647619D01*
X190390476Y-83552381D02*
X190390476Y-82552381D01*
X190390476Y-83028571D02*
X190961905Y-83028571D01*
X190961905Y-83552381D02*
X190961905Y-82552381D01*
X191200000Y-83647619D02*
X191961905Y-83647619D01*
X192771429Y-83457143D02*
X192723810Y-83504762D01*
X192580953Y-83552381D01*
X192485715Y-83552381D01*
X192342857Y-83504762D01*
X192247619Y-83409524D01*
X192200000Y-83314286D01*
X192152381Y-83123810D01*
X192152381Y-82980952D01*
X192200000Y-82790476D01*
X192247619Y-82695238D01*
X192342857Y-82600000D01*
X192485715Y-82552381D01*
X192580953Y-82552381D01*
X192723810Y-82600000D01*
X192771429Y-82647619D01*
X193390476Y-82552381D02*
X193580953Y-82552381D01*
X193676191Y-82600000D01*
X193771429Y-82695238D01*
X193819048Y-82885714D01*
X193819048Y-83219048D01*
X193771429Y-83409524D01*
X193676191Y-83504762D01*
X193580953Y-83552381D01*
X193390476Y-83552381D01*
X193295238Y-83504762D01*
X193200000Y-83409524D01*
X193152381Y-83219048D01*
X193152381Y-82885714D01*
X193200000Y-82695238D01*
X193295238Y-82600000D01*
X193390476Y-82552381D01*
X194247619Y-83552381D02*
X194247619Y-82552381D01*
X194819048Y-83552381D01*
X194819048Y-82552381D01*
X195295238Y-83552381D02*
X195295238Y-82552381D01*
X195866667Y-83552381D01*
X195866667Y-82552381D01*
X190611905Y-85552381D02*
X190611905Y-84552381D01*
X190992858Y-84552381D01*
X191088096Y-84600000D01*
X191135715Y-84647619D01*
X191183334Y-84742857D01*
X191183334Y-84885714D01*
X191135715Y-84980952D01*
X191088096Y-85028571D01*
X190992858Y-85076190D01*
X190611905Y-85076190D01*
X191564286Y-84647619D02*
X191611905Y-84600000D01*
X191707143Y-84552381D01*
X191945239Y-84552381D01*
X192040477Y-84600000D01*
X192088096Y-84647619D01*
X192135715Y-84742857D01*
X192135715Y-84838095D01*
X192088096Y-84980952D01*
X191516667Y-85552381D01*
X192135715Y-85552381D01*
M02*
