G04 #@! TF.FileFunction,Other,Fab,Bot*
%FSLAX46Y46*%
G04 Gerber Fmt 4.6, Leading zero omitted, Abs format (unit mm)*
G04 Created by KiCad (PCBNEW 4.0.4-stable) date 08/01/17 14:05:29*
%MOMM*%
%LPD*%
G01*
G04 APERTURE LIST*
%ADD10C,0.100000*%
%ADD11C,0.150000*%
G04 APERTURE END LIST*
D10*
X213200000Y-97800000D02*
X213200000Y-97000000D01*
X213200000Y-97400000D02*
X213800000Y-97800000D01*
X213800000Y-97000000D02*
X213200000Y-97400000D01*
X213800000Y-97800000D02*
X213800000Y-97000000D01*
X212600000Y-96780000D02*
X212600000Y-98020000D01*
X214600000Y-96780000D02*
X212600000Y-96780000D01*
X214600000Y-98020000D02*
X214600000Y-96780000D01*
X212600000Y-98020000D02*
X214600000Y-98020000D01*
X151800000Y-98000000D02*
X151800000Y-97200000D01*
X151800000Y-97600000D02*
X152400000Y-98000000D01*
X152400000Y-97200000D02*
X151800000Y-97600000D01*
X152400000Y-98000000D02*
X152400000Y-97200000D01*
X151200000Y-96980000D02*
X151200000Y-98220000D01*
X153200000Y-96980000D02*
X151200000Y-96980000D01*
X153200000Y-98220000D02*
X153200000Y-96980000D01*
X151200000Y-98220000D02*
X153200000Y-98220000D01*
X91500000Y-98100000D02*
X91500000Y-97300000D01*
X91500000Y-97700000D02*
X92100000Y-98100000D01*
X92100000Y-97300000D02*
X91500000Y-97700000D01*
X92100000Y-98100000D02*
X92100000Y-97300000D01*
X90900000Y-97080000D02*
X90900000Y-98320000D01*
X92900000Y-97080000D02*
X90900000Y-97080000D01*
X92900000Y-98320000D02*
X92900000Y-97080000D01*
X90900000Y-98320000D02*
X92900000Y-98320000D01*
X206700000Y-97800000D02*
X206700000Y-97000000D01*
X206700000Y-97400000D02*
X207300000Y-97800000D01*
X207300000Y-97000000D02*
X206700000Y-97400000D01*
X207300000Y-97800000D02*
X207300000Y-97000000D01*
X206100000Y-96780000D02*
X206100000Y-98020000D01*
X208100000Y-96780000D02*
X206100000Y-96780000D01*
X208100000Y-98020000D02*
X208100000Y-96780000D01*
X206100000Y-98020000D02*
X208100000Y-98020000D01*
X145200000Y-98000000D02*
X145200000Y-97200000D01*
X145200000Y-97600000D02*
X145800000Y-98000000D01*
X145800000Y-97200000D02*
X145200000Y-97600000D01*
X145800000Y-98000000D02*
X145800000Y-97200000D01*
X144600000Y-96980000D02*
X144600000Y-98220000D01*
X146600000Y-96980000D02*
X144600000Y-96980000D01*
X146600000Y-98220000D02*
X146600000Y-96980000D01*
X144600000Y-98220000D02*
X146600000Y-98220000D01*
X85000000Y-98100000D02*
X85000000Y-97300000D01*
X85000000Y-97700000D02*
X85600000Y-98100000D01*
X85600000Y-97300000D02*
X85000000Y-97700000D01*
X85600000Y-98100000D02*
X85600000Y-97300000D01*
X84400000Y-97080000D02*
X84400000Y-98320000D01*
X86400000Y-97080000D02*
X84400000Y-97080000D01*
X86400000Y-98320000D02*
X86400000Y-97080000D01*
X84400000Y-98320000D02*
X86400000Y-98320000D01*
D11*
X214619047Y-99652381D02*
X215095238Y-99652381D01*
X215095238Y-98652381D01*
X214285714Y-99128571D02*
X213952380Y-99128571D01*
X213809523Y-99652381D02*
X214285714Y-99652381D01*
X214285714Y-98652381D01*
X213809523Y-98652381D01*
X213380952Y-99652381D02*
X213380952Y-98652381D01*
X213142857Y-98652381D01*
X212999999Y-98700000D01*
X212904761Y-98795238D01*
X212857142Y-98890476D01*
X212809523Y-99080952D01*
X212809523Y-99223810D01*
X212857142Y-99414286D01*
X212904761Y-99509524D01*
X212999999Y-99604762D01*
X213142857Y-99652381D01*
X213380952Y-99652381D01*
X212190476Y-98652381D02*
X212095237Y-98652381D01*
X211999999Y-98700000D01*
X211952380Y-98747619D01*
X211904761Y-98842857D01*
X211857142Y-99033333D01*
X211857142Y-99271429D01*
X211904761Y-99461905D01*
X211952380Y-99557143D01*
X211999999Y-99604762D01*
X212095237Y-99652381D01*
X212190476Y-99652381D01*
X212285714Y-99604762D01*
X212333333Y-99557143D01*
X212380952Y-99461905D01*
X212428571Y-99271429D01*
X212428571Y-99033333D01*
X212380952Y-98842857D01*
X212333333Y-98747619D01*
X212285714Y-98700000D01*
X212190476Y-98652381D01*
X153119047Y-99652381D02*
X153595238Y-99652381D01*
X153595238Y-98652381D01*
X152785714Y-99128571D02*
X152452380Y-99128571D01*
X152309523Y-99652381D02*
X152785714Y-99652381D01*
X152785714Y-98652381D01*
X152309523Y-98652381D01*
X151880952Y-99652381D02*
X151880952Y-98652381D01*
X151642857Y-98652381D01*
X151499999Y-98700000D01*
X151404761Y-98795238D01*
X151357142Y-98890476D01*
X151309523Y-99080952D01*
X151309523Y-99223810D01*
X151357142Y-99414286D01*
X151404761Y-99509524D01*
X151499999Y-99604762D01*
X151642857Y-99652381D01*
X151880952Y-99652381D01*
X150357142Y-99652381D02*
X150928571Y-99652381D01*
X150642857Y-99652381D02*
X150642857Y-98652381D01*
X150738095Y-98795238D01*
X150833333Y-98890476D01*
X150928571Y-98938095D01*
X92619047Y-99752381D02*
X93095238Y-99752381D01*
X93095238Y-98752381D01*
X92285714Y-99228571D02*
X91952380Y-99228571D01*
X91809523Y-99752381D02*
X92285714Y-99752381D01*
X92285714Y-98752381D01*
X91809523Y-98752381D01*
X91380952Y-99752381D02*
X91380952Y-98752381D01*
X91142857Y-98752381D01*
X90999999Y-98800000D01*
X90904761Y-98895238D01*
X90857142Y-98990476D01*
X90809523Y-99180952D01*
X90809523Y-99323810D01*
X90857142Y-99514286D01*
X90904761Y-99609524D01*
X90999999Y-99704762D01*
X91142857Y-99752381D01*
X91380952Y-99752381D01*
X90428571Y-98847619D02*
X90380952Y-98800000D01*
X90285714Y-98752381D01*
X90047618Y-98752381D01*
X89952380Y-98800000D01*
X89904761Y-98847619D01*
X89857142Y-98942857D01*
X89857142Y-99038095D01*
X89904761Y-99180952D01*
X90476190Y-99752381D01*
X89857142Y-99752381D01*
X208219047Y-99452381D02*
X208695238Y-99452381D01*
X208695238Y-98452381D01*
X207885714Y-98928571D02*
X207552380Y-98928571D01*
X207409523Y-99452381D02*
X207885714Y-99452381D01*
X207885714Y-98452381D01*
X207409523Y-98452381D01*
X206980952Y-99452381D02*
X206980952Y-98452381D01*
X206742857Y-98452381D01*
X206599999Y-98500000D01*
X206504761Y-98595238D01*
X206457142Y-98690476D01*
X206409523Y-98880952D01*
X206409523Y-99023810D01*
X206457142Y-99214286D01*
X206504761Y-99309524D01*
X206599999Y-99404762D01*
X206742857Y-99452381D01*
X206980952Y-99452381D01*
X205790476Y-98452381D02*
X205695237Y-98452381D01*
X205599999Y-98500000D01*
X205552380Y-98547619D01*
X205504761Y-98642857D01*
X205457142Y-98833333D01*
X205457142Y-99071429D01*
X205504761Y-99261905D01*
X205552380Y-99357143D01*
X205599999Y-99404762D01*
X205695237Y-99452381D01*
X205790476Y-99452381D01*
X205885714Y-99404762D01*
X205933333Y-99357143D01*
X205980952Y-99261905D01*
X206028571Y-99071429D01*
X206028571Y-98833333D01*
X205980952Y-98642857D01*
X205933333Y-98547619D01*
X205885714Y-98500000D01*
X205790476Y-98452381D01*
X146719047Y-99552381D02*
X147195238Y-99552381D01*
X147195238Y-98552381D01*
X146385714Y-99028571D02*
X146052380Y-99028571D01*
X145909523Y-99552381D02*
X146385714Y-99552381D01*
X146385714Y-98552381D01*
X145909523Y-98552381D01*
X145480952Y-99552381D02*
X145480952Y-98552381D01*
X145242857Y-98552381D01*
X145099999Y-98600000D01*
X145004761Y-98695238D01*
X144957142Y-98790476D01*
X144909523Y-98980952D01*
X144909523Y-99123810D01*
X144957142Y-99314286D01*
X145004761Y-99409524D01*
X145099999Y-99504762D01*
X145242857Y-99552381D01*
X145480952Y-99552381D01*
X143957142Y-99552381D02*
X144528571Y-99552381D01*
X144242857Y-99552381D02*
X144242857Y-98552381D01*
X144338095Y-98695238D01*
X144433333Y-98790476D01*
X144528571Y-98838095D01*
X86619047Y-99852381D02*
X87095238Y-99852381D01*
X87095238Y-98852381D01*
X86285714Y-99328571D02*
X85952380Y-99328571D01*
X85809523Y-99852381D02*
X86285714Y-99852381D01*
X86285714Y-98852381D01*
X85809523Y-98852381D01*
X85380952Y-99852381D02*
X85380952Y-98852381D01*
X85142857Y-98852381D01*
X84999999Y-98900000D01*
X84904761Y-98995238D01*
X84857142Y-99090476D01*
X84809523Y-99280952D01*
X84809523Y-99423810D01*
X84857142Y-99614286D01*
X84904761Y-99709524D01*
X84999999Y-99804762D01*
X85142857Y-99852381D01*
X85380952Y-99852381D01*
X84428571Y-98947619D02*
X84380952Y-98900000D01*
X84285714Y-98852381D01*
X84047618Y-98852381D01*
X83952380Y-98900000D01*
X83904761Y-98947619D01*
X83857142Y-99042857D01*
X83857142Y-99138095D01*
X83904761Y-99280952D01*
X84476190Y-99852381D01*
X83857142Y-99852381D01*
M02*
