G04 #@! TF.FileFunction,Drawing*
%FSLAX46Y46*%
G04 Gerber Fmt 4.6, Leading zero omitted, Abs format (unit mm)*
G04 Created by KiCad (PCBNEW 4.0.4-stable) date 08/01/17 14:05:29*
%MOMM*%
%LPD*%
G01*
G04 APERTURE LIST*
%ADD10C,0.100000*%
%ADD11C,0.300000*%
%ADD12C,0.200000*%
%ADD13C,0.500000*%
%ADD14C,0.150000*%
G04 APERTURE END LIST*
D10*
D11*
X65871429Y-98164285D02*
X65800000Y-98092856D01*
X65728571Y-97949999D01*
X65728571Y-97592856D01*
X65800000Y-97449999D01*
X65871429Y-97378570D01*
X66014286Y-97307142D01*
X66157143Y-97307142D01*
X66371429Y-97378570D01*
X67228571Y-98235713D01*
X67228571Y-97307142D01*
X66228571Y-96021428D02*
X67228571Y-96021428D01*
X65657143Y-96378571D02*
X66728571Y-96735714D01*
X66728571Y-95807142D01*
X67085714Y-95235714D02*
X67157143Y-95164286D01*
X67228571Y-95235714D01*
X67157143Y-95307143D01*
X67085714Y-95235714D01*
X67228571Y-95235714D01*
X65728571Y-94235714D02*
X65728571Y-94092857D01*
X65800000Y-93950000D01*
X65871429Y-93878571D01*
X66014286Y-93807142D01*
X66300000Y-93735714D01*
X66657143Y-93735714D01*
X66942857Y-93807142D01*
X67085714Y-93878571D01*
X67157143Y-93950000D01*
X67228571Y-94092857D01*
X67228571Y-94235714D01*
X67157143Y-94378571D01*
X67085714Y-94450000D01*
X66942857Y-94521428D01*
X66657143Y-94592857D01*
X66300000Y-94592857D01*
X66014286Y-94521428D01*
X65871429Y-94450000D01*
X65800000Y-94378571D01*
X65728571Y-94235714D01*
X65728571Y-92807143D02*
X65728571Y-92664286D01*
X65800000Y-92521429D01*
X65871429Y-92450000D01*
X66014286Y-92378571D01*
X66300000Y-92307143D01*
X66657143Y-92307143D01*
X66942857Y-92378571D01*
X67085714Y-92450000D01*
X67157143Y-92521429D01*
X67228571Y-92664286D01*
X67228571Y-92807143D01*
X67157143Y-92950000D01*
X67085714Y-93021429D01*
X66942857Y-93092857D01*
X66657143Y-93164286D01*
X66300000Y-93164286D01*
X66014286Y-93092857D01*
X65871429Y-93021429D01*
X65800000Y-92950000D01*
X65728571Y-92807143D01*
X65728571Y-91378572D02*
X65728571Y-91235715D01*
X65800000Y-91092858D01*
X65871429Y-91021429D01*
X66014286Y-90950000D01*
X66300000Y-90878572D01*
X66657143Y-90878572D01*
X66942857Y-90950000D01*
X67085714Y-91021429D01*
X67157143Y-91092858D01*
X67228571Y-91235715D01*
X67228571Y-91378572D01*
X67157143Y-91521429D01*
X67085714Y-91592858D01*
X66942857Y-91664286D01*
X66657143Y-91735715D01*
X66300000Y-91735715D01*
X66014286Y-91664286D01*
X65871429Y-91592858D01*
X65800000Y-91521429D01*
X65728571Y-91378572D01*
X67228571Y-89092858D02*
X66228571Y-89092858D01*
X66371429Y-89092858D02*
X66300000Y-89021430D01*
X66228571Y-88878572D01*
X66228571Y-88664287D01*
X66300000Y-88521430D01*
X66442857Y-88450001D01*
X67228571Y-88450001D01*
X66442857Y-88450001D02*
X66300000Y-88378572D01*
X66228571Y-88235715D01*
X66228571Y-88021430D01*
X66300000Y-87878572D01*
X66442857Y-87807144D01*
X67228571Y-87807144D01*
X67228571Y-87092858D02*
X66228571Y-87092858D01*
X66371429Y-87092858D02*
X66300000Y-87021430D01*
X66228571Y-86878572D01*
X66228571Y-86664287D01*
X66300000Y-86521430D01*
X66442857Y-86450001D01*
X67228571Y-86450001D01*
X66442857Y-86450001D02*
X66300000Y-86378572D01*
X66228571Y-86235715D01*
X66228571Y-86021430D01*
X66300000Y-85878572D01*
X66442857Y-85807144D01*
X67228571Y-85807144D01*
X67900000Y-104000000D02*
X67900000Y-79900000D01*
X120000000Y-104000000D02*
X65200000Y-104000000D01*
X120000000Y-79900000D02*
X65200000Y-79900000D01*
X67900000Y-79900000D02*
X68486421Y-81026504D01*
X67900000Y-79900000D02*
X67313579Y-81026504D01*
X67900000Y-104000000D02*
X68486421Y-102873496D01*
X67900000Y-104000000D02*
X67313579Y-102873496D01*
X92571430Y-132228571D02*
X91857144Y-132228571D01*
X91785715Y-132942857D01*
X91857144Y-132871429D01*
X92000001Y-132800000D01*
X92357144Y-132800000D01*
X92500001Y-132871429D01*
X92571430Y-132942857D01*
X92642858Y-133085714D01*
X92642858Y-133442857D01*
X92571430Y-133585714D01*
X92500001Y-133657143D01*
X92357144Y-133728571D01*
X92000001Y-133728571D01*
X91857144Y-133657143D01*
X91785715Y-133585714D01*
X93571429Y-132228571D02*
X93714286Y-132228571D01*
X93857143Y-132300000D01*
X93928572Y-132371429D01*
X94000001Y-132514286D01*
X94071429Y-132800000D01*
X94071429Y-133157143D01*
X94000001Y-133442857D01*
X93928572Y-133585714D01*
X93857143Y-133657143D01*
X93714286Y-133728571D01*
X93571429Y-133728571D01*
X93428572Y-133657143D01*
X93357143Y-133585714D01*
X93285715Y-133442857D01*
X93214286Y-133157143D01*
X93214286Y-132800000D01*
X93285715Y-132514286D01*
X93357143Y-132371429D01*
X93428572Y-132300000D01*
X93571429Y-132228571D01*
X94714286Y-133585714D02*
X94785714Y-133657143D01*
X94714286Y-133728571D01*
X94642857Y-133657143D01*
X94714286Y-133585714D01*
X94714286Y-133728571D01*
X95714286Y-132228571D02*
X95857143Y-132228571D01*
X96000000Y-132300000D01*
X96071429Y-132371429D01*
X96142858Y-132514286D01*
X96214286Y-132800000D01*
X96214286Y-133157143D01*
X96142858Y-133442857D01*
X96071429Y-133585714D01*
X96000000Y-133657143D01*
X95857143Y-133728571D01*
X95714286Y-133728571D01*
X95571429Y-133657143D01*
X95500000Y-133585714D01*
X95428572Y-133442857D01*
X95357143Y-133157143D01*
X95357143Y-132800000D01*
X95428572Y-132514286D01*
X95500000Y-132371429D01*
X95571429Y-132300000D01*
X95714286Y-132228571D01*
X97142857Y-132228571D02*
X97285714Y-132228571D01*
X97428571Y-132300000D01*
X97500000Y-132371429D01*
X97571429Y-132514286D01*
X97642857Y-132800000D01*
X97642857Y-133157143D01*
X97571429Y-133442857D01*
X97500000Y-133585714D01*
X97428571Y-133657143D01*
X97285714Y-133728571D01*
X97142857Y-133728571D01*
X97000000Y-133657143D01*
X96928571Y-133585714D01*
X96857143Y-133442857D01*
X96785714Y-133157143D01*
X96785714Y-132800000D01*
X96857143Y-132514286D01*
X96928571Y-132371429D01*
X97000000Y-132300000D01*
X97142857Y-132228571D01*
X98571428Y-132228571D02*
X98714285Y-132228571D01*
X98857142Y-132300000D01*
X98928571Y-132371429D01*
X99000000Y-132514286D01*
X99071428Y-132800000D01*
X99071428Y-133157143D01*
X99000000Y-133442857D01*
X98928571Y-133585714D01*
X98857142Y-133657143D01*
X98714285Y-133728571D01*
X98571428Y-133728571D01*
X98428571Y-133657143D01*
X98357142Y-133585714D01*
X98285714Y-133442857D01*
X98214285Y-133157143D01*
X98214285Y-132800000D01*
X98285714Y-132514286D01*
X98357142Y-132371429D01*
X98428571Y-132300000D01*
X98571428Y-132228571D01*
X100857142Y-133728571D02*
X100857142Y-132728571D01*
X100857142Y-132871429D02*
X100928570Y-132800000D01*
X101071428Y-132728571D01*
X101285713Y-132728571D01*
X101428570Y-132800000D01*
X101499999Y-132942857D01*
X101499999Y-133728571D01*
X101499999Y-132942857D02*
X101571428Y-132800000D01*
X101714285Y-132728571D01*
X101928570Y-132728571D01*
X102071428Y-132800000D01*
X102142856Y-132942857D01*
X102142856Y-133728571D01*
X102857142Y-133728571D02*
X102857142Y-132728571D01*
X102857142Y-132871429D02*
X102928570Y-132800000D01*
X103071428Y-132728571D01*
X103285713Y-132728571D01*
X103428570Y-132800000D01*
X103499999Y-132942857D01*
X103499999Y-133728571D01*
X103499999Y-132942857D02*
X103571428Y-132800000D01*
X103714285Y-132728571D01*
X103928570Y-132728571D01*
X104071428Y-132800000D01*
X104142856Y-132942857D01*
X104142856Y-133728571D01*
X120000000Y-131700000D02*
X69900000Y-131700000D01*
X120000000Y-104000000D02*
X120000000Y-134400000D01*
X69900000Y-104000000D02*
X69900000Y-134400000D01*
X69900000Y-131700000D02*
X71026504Y-131113579D01*
X69900000Y-131700000D02*
X71026504Y-132286421D01*
X120000000Y-131700000D02*
X118873496Y-131113579D01*
X120000000Y-131700000D02*
X118873496Y-132286421D01*
X144500001Y-132328571D02*
X144214287Y-132328571D01*
X144071430Y-132400000D01*
X144000001Y-132471429D01*
X143857144Y-132685714D01*
X143785715Y-132971429D01*
X143785715Y-133542857D01*
X143857144Y-133685714D01*
X143928572Y-133757143D01*
X144071430Y-133828571D01*
X144357144Y-133828571D01*
X144500001Y-133757143D01*
X144571430Y-133685714D01*
X144642858Y-133542857D01*
X144642858Y-133185714D01*
X144571430Y-133042857D01*
X144500001Y-132971429D01*
X144357144Y-132900000D01*
X144071430Y-132900000D01*
X143928572Y-132971429D01*
X143857144Y-133042857D01*
X143785715Y-133185714D01*
X145571429Y-132328571D02*
X145714286Y-132328571D01*
X145857143Y-132400000D01*
X145928572Y-132471429D01*
X146000001Y-132614286D01*
X146071429Y-132900000D01*
X146071429Y-133257143D01*
X146000001Y-133542857D01*
X145928572Y-133685714D01*
X145857143Y-133757143D01*
X145714286Y-133828571D01*
X145571429Y-133828571D01*
X145428572Y-133757143D01*
X145357143Y-133685714D01*
X145285715Y-133542857D01*
X145214286Y-133257143D01*
X145214286Y-132900000D01*
X145285715Y-132614286D01*
X145357143Y-132471429D01*
X145428572Y-132400000D01*
X145571429Y-132328571D01*
X146714286Y-133685714D02*
X146785714Y-133757143D01*
X146714286Y-133828571D01*
X146642857Y-133757143D01*
X146714286Y-133685714D01*
X146714286Y-133828571D01*
X147714286Y-132328571D02*
X147857143Y-132328571D01*
X148000000Y-132400000D01*
X148071429Y-132471429D01*
X148142858Y-132614286D01*
X148214286Y-132900000D01*
X148214286Y-133257143D01*
X148142858Y-133542857D01*
X148071429Y-133685714D01*
X148000000Y-133757143D01*
X147857143Y-133828571D01*
X147714286Y-133828571D01*
X147571429Y-133757143D01*
X147500000Y-133685714D01*
X147428572Y-133542857D01*
X147357143Y-133257143D01*
X147357143Y-132900000D01*
X147428572Y-132614286D01*
X147500000Y-132471429D01*
X147571429Y-132400000D01*
X147714286Y-132328571D01*
X149142857Y-132328571D02*
X149285714Y-132328571D01*
X149428571Y-132400000D01*
X149500000Y-132471429D01*
X149571429Y-132614286D01*
X149642857Y-132900000D01*
X149642857Y-133257143D01*
X149571429Y-133542857D01*
X149500000Y-133685714D01*
X149428571Y-133757143D01*
X149285714Y-133828571D01*
X149142857Y-133828571D01*
X149000000Y-133757143D01*
X148928571Y-133685714D01*
X148857143Y-133542857D01*
X148785714Y-133257143D01*
X148785714Y-132900000D01*
X148857143Y-132614286D01*
X148928571Y-132471429D01*
X149000000Y-132400000D01*
X149142857Y-132328571D01*
X150571428Y-132328571D02*
X150714285Y-132328571D01*
X150857142Y-132400000D01*
X150928571Y-132471429D01*
X151000000Y-132614286D01*
X151071428Y-132900000D01*
X151071428Y-133257143D01*
X151000000Y-133542857D01*
X150928571Y-133685714D01*
X150857142Y-133757143D01*
X150714285Y-133828571D01*
X150571428Y-133828571D01*
X150428571Y-133757143D01*
X150357142Y-133685714D01*
X150285714Y-133542857D01*
X150214285Y-133257143D01*
X150214285Y-132900000D01*
X150285714Y-132614286D01*
X150357142Y-132471429D01*
X150428571Y-132400000D01*
X150571428Y-132328571D01*
X152857142Y-133828571D02*
X152857142Y-132828571D01*
X152857142Y-132971429D02*
X152928570Y-132900000D01*
X153071428Y-132828571D01*
X153285713Y-132828571D01*
X153428570Y-132900000D01*
X153499999Y-133042857D01*
X153499999Y-133828571D01*
X153499999Y-133042857D02*
X153571428Y-132900000D01*
X153714285Y-132828571D01*
X153928570Y-132828571D01*
X154071428Y-132900000D01*
X154142856Y-133042857D01*
X154142856Y-133828571D01*
X154857142Y-133828571D02*
X154857142Y-132828571D01*
X154857142Y-132971429D02*
X154928570Y-132900000D01*
X155071428Y-132828571D01*
X155285713Y-132828571D01*
X155428570Y-132900000D01*
X155499999Y-133042857D01*
X155499999Y-133828571D01*
X155499999Y-133042857D02*
X155571428Y-132900000D01*
X155714285Y-132828571D01*
X155928570Y-132828571D01*
X156071428Y-132900000D01*
X156142856Y-133042857D01*
X156142856Y-133828571D01*
X120000000Y-131800000D02*
X180000000Y-131800000D01*
X120000000Y-104000000D02*
X120000000Y-134500000D01*
X180000000Y-104000000D02*
X180000000Y-134500000D01*
X180000000Y-131800000D02*
X178873496Y-132386421D01*
X180000000Y-131800000D02*
X178873496Y-131213579D01*
X120000000Y-131800000D02*
X121126504Y-132386421D01*
X120000000Y-131800000D02*
X121126504Y-131213579D01*
X234271429Y-120785716D02*
X234271429Y-120071430D01*
X233557143Y-120000001D01*
X233628571Y-120071430D01*
X233700000Y-120214287D01*
X233700000Y-120571430D01*
X233628571Y-120714287D01*
X233557143Y-120785716D01*
X233414286Y-120857144D01*
X233057143Y-120857144D01*
X232914286Y-120785716D01*
X232842857Y-120714287D01*
X232771429Y-120571430D01*
X232771429Y-120214287D01*
X232842857Y-120071430D01*
X232914286Y-120000001D01*
X232914286Y-121500001D02*
X232842857Y-121571429D01*
X232771429Y-121500001D01*
X232842857Y-121428572D01*
X232914286Y-121500001D01*
X232771429Y-121500001D01*
X234271429Y-122500001D02*
X234271429Y-122642858D01*
X234200000Y-122785715D01*
X234128571Y-122857144D01*
X233985714Y-122928573D01*
X233700000Y-123000001D01*
X233342857Y-123000001D01*
X233057143Y-122928573D01*
X232914286Y-122857144D01*
X232842857Y-122785715D01*
X232771429Y-122642858D01*
X232771429Y-122500001D01*
X232842857Y-122357144D01*
X232914286Y-122285715D01*
X233057143Y-122214287D01*
X233342857Y-122142858D01*
X233700000Y-122142858D01*
X233985714Y-122214287D01*
X234128571Y-122285715D01*
X234200000Y-122357144D01*
X234271429Y-122500001D01*
X234271429Y-123928572D02*
X234271429Y-124071429D01*
X234200000Y-124214286D01*
X234128571Y-124285715D01*
X233985714Y-124357144D01*
X233700000Y-124428572D01*
X233342857Y-124428572D01*
X233057143Y-124357144D01*
X232914286Y-124285715D01*
X232842857Y-124214286D01*
X232771429Y-124071429D01*
X232771429Y-123928572D01*
X232842857Y-123785715D01*
X232914286Y-123714286D01*
X233057143Y-123642858D01*
X233342857Y-123571429D01*
X233700000Y-123571429D01*
X233985714Y-123642858D01*
X234128571Y-123714286D01*
X234200000Y-123785715D01*
X234271429Y-123928572D01*
X234271429Y-125357143D02*
X234271429Y-125500000D01*
X234200000Y-125642857D01*
X234128571Y-125714286D01*
X233985714Y-125785715D01*
X233700000Y-125857143D01*
X233342857Y-125857143D01*
X233057143Y-125785715D01*
X232914286Y-125714286D01*
X232842857Y-125642857D01*
X232771429Y-125500000D01*
X232771429Y-125357143D01*
X232842857Y-125214286D01*
X232914286Y-125142857D01*
X233057143Y-125071429D01*
X233342857Y-125000000D01*
X233700000Y-125000000D01*
X233985714Y-125071429D01*
X234128571Y-125142857D01*
X234200000Y-125214286D01*
X234271429Y-125357143D01*
X232771429Y-127642857D02*
X233771429Y-127642857D01*
X233628571Y-127642857D02*
X233700000Y-127714285D01*
X233771429Y-127857143D01*
X233771429Y-128071428D01*
X233700000Y-128214285D01*
X233557143Y-128285714D01*
X232771429Y-128285714D01*
X233557143Y-128285714D02*
X233700000Y-128357143D01*
X233771429Y-128500000D01*
X233771429Y-128714285D01*
X233700000Y-128857143D01*
X233557143Y-128928571D01*
X232771429Y-128928571D01*
X232771429Y-129642857D02*
X233771429Y-129642857D01*
X233628571Y-129642857D02*
X233700000Y-129714285D01*
X233771429Y-129857143D01*
X233771429Y-130071428D01*
X233700000Y-130214285D01*
X233557143Y-130285714D01*
X232771429Y-130285714D01*
X233557143Y-130285714D02*
X233700000Y-130357143D01*
X233771429Y-130500000D01*
X233771429Y-130714285D01*
X233700000Y-130857143D01*
X233557143Y-130928571D01*
X232771429Y-130928571D01*
X232100000Y-123000000D02*
X232100000Y-128000000D01*
X224900000Y-123000000D02*
X234800000Y-123000000D01*
X224900000Y-128000000D02*
X234800000Y-128000000D01*
X232100000Y-128000000D02*
X231513579Y-126873496D01*
X232100000Y-128000000D02*
X232686421Y-126873496D01*
X232100000Y-123000000D02*
X231513579Y-124126504D01*
X232100000Y-123000000D02*
X232686421Y-124126504D01*
X222685716Y-131228571D02*
X221971430Y-131228571D01*
X221900001Y-131942857D01*
X221971430Y-131871429D01*
X222114287Y-131800000D01*
X222471430Y-131800000D01*
X222614287Y-131871429D01*
X222685716Y-131942857D01*
X222757144Y-132085714D01*
X222757144Y-132442857D01*
X222685716Y-132585714D01*
X222614287Y-132657143D01*
X222471430Y-132728571D01*
X222114287Y-132728571D01*
X221971430Y-132657143D01*
X221900001Y-132585714D01*
X223400001Y-132585714D02*
X223471429Y-132657143D01*
X223400001Y-132728571D01*
X223328572Y-132657143D01*
X223400001Y-132585714D01*
X223400001Y-132728571D01*
X224400001Y-131228571D02*
X224542858Y-131228571D01*
X224685715Y-131300000D01*
X224757144Y-131371429D01*
X224828573Y-131514286D01*
X224900001Y-131800000D01*
X224900001Y-132157143D01*
X224828573Y-132442857D01*
X224757144Y-132585714D01*
X224685715Y-132657143D01*
X224542858Y-132728571D01*
X224400001Y-132728571D01*
X224257144Y-132657143D01*
X224185715Y-132585714D01*
X224114287Y-132442857D01*
X224042858Y-132157143D01*
X224042858Y-131800000D01*
X224114287Y-131514286D01*
X224185715Y-131371429D01*
X224257144Y-131300000D01*
X224400001Y-131228571D01*
X225828572Y-131228571D02*
X225971429Y-131228571D01*
X226114286Y-131300000D01*
X226185715Y-131371429D01*
X226257144Y-131514286D01*
X226328572Y-131800000D01*
X226328572Y-132157143D01*
X226257144Y-132442857D01*
X226185715Y-132585714D01*
X226114286Y-132657143D01*
X225971429Y-132728571D01*
X225828572Y-132728571D01*
X225685715Y-132657143D01*
X225614286Y-132585714D01*
X225542858Y-132442857D01*
X225471429Y-132157143D01*
X225471429Y-131800000D01*
X225542858Y-131514286D01*
X225614286Y-131371429D01*
X225685715Y-131300000D01*
X225828572Y-131228571D01*
X227257143Y-131228571D02*
X227400000Y-131228571D01*
X227542857Y-131300000D01*
X227614286Y-131371429D01*
X227685715Y-131514286D01*
X227757143Y-131800000D01*
X227757143Y-132157143D01*
X227685715Y-132442857D01*
X227614286Y-132585714D01*
X227542857Y-132657143D01*
X227400000Y-132728571D01*
X227257143Y-132728571D01*
X227114286Y-132657143D01*
X227042857Y-132585714D01*
X226971429Y-132442857D01*
X226900000Y-132157143D01*
X226900000Y-131800000D01*
X226971429Y-131514286D01*
X227042857Y-131371429D01*
X227114286Y-131300000D01*
X227257143Y-131228571D01*
X229542857Y-132728571D02*
X229542857Y-131728571D01*
X229542857Y-131871429D02*
X229614285Y-131800000D01*
X229757143Y-131728571D01*
X229971428Y-131728571D01*
X230114285Y-131800000D01*
X230185714Y-131942857D01*
X230185714Y-132728571D01*
X230185714Y-131942857D02*
X230257143Y-131800000D01*
X230400000Y-131728571D01*
X230614285Y-131728571D01*
X230757143Y-131800000D01*
X230828571Y-131942857D01*
X230828571Y-132728571D01*
X231542857Y-132728571D02*
X231542857Y-131728571D01*
X231542857Y-131871429D02*
X231614285Y-131800000D01*
X231757143Y-131728571D01*
X231971428Y-131728571D01*
X232114285Y-131800000D01*
X232185714Y-131942857D01*
X232185714Y-132728571D01*
X232185714Y-131942857D02*
X232257143Y-131800000D01*
X232400000Y-131728571D01*
X232614285Y-131728571D01*
X232757143Y-131800000D01*
X232828571Y-131942857D01*
X232828571Y-132728571D01*
X224900000Y-130700000D02*
X229900000Y-130700000D01*
X224900000Y-123000000D02*
X224900000Y-133400000D01*
X229900000Y-123000000D02*
X229900000Y-133400000D01*
X229900000Y-130700000D02*
X228773496Y-131286421D01*
X229900000Y-130700000D02*
X228773496Y-130113579D01*
X224900000Y-130700000D02*
X226026504Y-131286421D01*
X224900000Y-130700000D02*
X226026504Y-130113579D01*
X238971429Y-98500001D02*
X237971429Y-98500001D01*
X239542857Y-98142858D02*
X238471429Y-97785715D01*
X238471429Y-98714287D01*
X238828571Y-99500001D02*
X238900000Y-99357143D01*
X238971429Y-99285715D01*
X239114286Y-99214286D01*
X239185714Y-99214286D01*
X239328571Y-99285715D01*
X239400000Y-99357143D01*
X239471429Y-99500001D01*
X239471429Y-99785715D01*
X239400000Y-99928572D01*
X239328571Y-100000001D01*
X239185714Y-100071429D01*
X239114286Y-100071429D01*
X238971429Y-100000001D01*
X238900000Y-99928572D01*
X238828571Y-99785715D01*
X238828571Y-99500001D01*
X238757143Y-99357143D01*
X238685714Y-99285715D01*
X238542857Y-99214286D01*
X238257143Y-99214286D01*
X238114286Y-99285715D01*
X238042857Y-99357143D01*
X237971429Y-99500001D01*
X237971429Y-99785715D01*
X238042857Y-99928572D01*
X238114286Y-100000001D01*
X238257143Y-100071429D01*
X238542857Y-100071429D01*
X238685714Y-100000001D01*
X238757143Y-99928572D01*
X238828571Y-99785715D01*
X238114286Y-100714286D02*
X238042857Y-100785714D01*
X237971429Y-100714286D01*
X238042857Y-100642857D01*
X238114286Y-100714286D01*
X237971429Y-100714286D01*
X239471429Y-101714286D02*
X239471429Y-101857143D01*
X239400000Y-102000000D01*
X239328571Y-102071429D01*
X239185714Y-102142858D01*
X238900000Y-102214286D01*
X238542857Y-102214286D01*
X238257143Y-102142858D01*
X238114286Y-102071429D01*
X238042857Y-102000000D01*
X237971429Y-101857143D01*
X237971429Y-101714286D01*
X238042857Y-101571429D01*
X238114286Y-101500000D01*
X238257143Y-101428572D01*
X238542857Y-101357143D01*
X238900000Y-101357143D01*
X239185714Y-101428572D01*
X239328571Y-101500000D01*
X239400000Y-101571429D01*
X239471429Y-101714286D01*
X239471429Y-103142857D02*
X239471429Y-103285714D01*
X239400000Y-103428571D01*
X239328571Y-103500000D01*
X239185714Y-103571429D01*
X238900000Y-103642857D01*
X238542857Y-103642857D01*
X238257143Y-103571429D01*
X238114286Y-103500000D01*
X238042857Y-103428571D01*
X237971429Y-103285714D01*
X237971429Y-103142857D01*
X238042857Y-103000000D01*
X238114286Y-102928571D01*
X238257143Y-102857143D01*
X238542857Y-102785714D01*
X238900000Y-102785714D01*
X239185714Y-102857143D01*
X239328571Y-102928571D01*
X239400000Y-103000000D01*
X239471429Y-103142857D01*
X239471429Y-104571428D02*
X239471429Y-104714285D01*
X239400000Y-104857142D01*
X239328571Y-104928571D01*
X239185714Y-105000000D01*
X238900000Y-105071428D01*
X238542857Y-105071428D01*
X238257143Y-105000000D01*
X238114286Y-104928571D01*
X238042857Y-104857142D01*
X237971429Y-104714285D01*
X237971429Y-104571428D01*
X238042857Y-104428571D01*
X238114286Y-104357142D01*
X238257143Y-104285714D01*
X238542857Y-104214285D01*
X238900000Y-104214285D01*
X239185714Y-104285714D01*
X239328571Y-104357142D01*
X239400000Y-104428571D01*
X239471429Y-104571428D01*
X237971429Y-106857142D02*
X238971429Y-106857142D01*
X238828571Y-106857142D02*
X238900000Y-106928570D01*
X238971429Y-107071428D01*
X238971429Y-107285713D01*
X238900000Y-107428570D01*
X238757143Y-107499999D01*
X237971429Y-107499999D01*
X238757143Y-107499999D02*
X238900000Y-107571428D01*
X238971429Y-107714285D01*
X238971429Y-107928570D01*
X238900000Y-108071428D01*
X238757143Y-108142856D01*
X237971429Y-108142856D01*
X237971429Y-108857142D02*
X238971429Y-108857142D01*
X238828571Y-108857142D02*
X238900000Y-108928570D01*
X238971429Y-109071428D01*
X238971429Y-109285713D01*
X238900000Y-109428570D01*
X238757143Y-109499999D01*
X237971429Y-109499999D01*
X238757143Y-109499999D02*
X238900000Y-109571428D01*
X238971429Y-109714285D01*
X238971429Y-109928570D01*
X238900000Y-110071428D01*
X238757143Y-110142856D01*
X237971429Y-110142856D01*
X237300000Y-80000000D02*
X237300000Y-128000000D01*
X230000000Y-80000000D02*
X240000000Y-80000000D01*
X230000000Y-128000000D02*
X240000000Y-128000000D01*
X237300000Y-128000000D02*
X236713579Y-126873496D01*
X237300000Y-128000000D02*
X237886421Y-126873496D01*
X237300000Y-80000000D02*
X236713579Y-81126504D01*
X237300000Y-80000000D02*
X237886421Y-81126504D01*
X143928573Y-69528571D02*
X143071430Y-69528571D01*
X143500002Y-69528571D02*
X143500002Y-68028571D01*
X143357145Y-68242857D01*
X143214287Y-68385714D01*
X143071430Y-68457143D01*
X145214287Y-68028571D02*
X144928573Y-68028571D01*
X144785716Y-68100000D01*
X144714287Y-68171429D01*
X144571430Y-68385714D01*
X144500001Y-68671429D01*
X144500001Y-69242857D01*
X144571430Y-69385714D01*
X144642858Y-69457143D01*
X144785716Y-69528571D01*
X145071430Y-69528571D01*
X145214287Y-69457143D01*
X145285716Y-69385714D01*
X145357144Y-69242857D01*
X145357144Y-68885714D01*
X145285716Y-68742857D01*
X145214287Y-68671429D01*
X145071430Y-68600000D01*
X144785716Y-68600000D01*
X144642858Y-68671429D01*
X144571430Y-68742857D01*
X144500001Y-68885714D01*
X146285715Y-68028571D02*
X146428572Y-68028571D01*
X146571429Y-68100000D01*
X146642858Y-68171429D01*
X146714287Y-68314286D01*
X146785715Y-68600000D01*
X146785715Y-68957143D01*
X146714287Y-69242857D01*
X146642858Y-69385714D01*
X146571429Y-69457143D01*
X146428572Y-69528571D01*
X146285715Y-69528571D01*
X146142858Y-69457143D01*
X146071429Y-69385714D01*
X146000001Y-69242857D01*
X145928572Y-68957143D01*
X145928572Y-68600000D01*
X146000001Y-68314286D01*
X146071429Y-68171429D01*
X146142858Y-68100000D01*
X146285715Y-68028571D01*
X147428572Y-69385714D02*
X147500000Y-69457143D01*
X147428572Y-69528571D01*
X147357143Y-69457143D01*
X147428572Y-69385714D01*
X147428572Y-69528571D01*
X148428572Y-68028571D02*
X148571429Y-68028571D01*
X148714286Y-68100000D01*
X148785715Y-68171429D01*
X148857144Y-68314286D01*
X148928572Y-68600000D01*
X148928572Y-68957143D01*
X148857144Y-69242857D01*
X148785715Y-69385714D01*
X148714286Y-69457143D01*
X148571429Y-69528571D01*
X148428572Y-69528571D01*
X148285715Y-69457143D01*
X148214286Y-69385714D01*
X148142858Y-69242857D01*
X148071429Y-68957143D01*
X148071429Y-68600000D01*
X148142858Y-68314286D01*
X148214286Y-68171429D01*
X148285715Y-68100000D01*
X148428572Y-68028571D01*
X149857143Y-68028571D02*
X150000000Y-68028571D01*
X150142857Y-68100000D01*
X150214286Y-68171429D01*
X150285715Y-68314286D01*
X150357143Y-68600000D01*
X150357143Y-68957143D01*
X150285715Y-69242857D01*
X150214286Y-69385714D01*
X150142857Y-69457143D01*
X150000000Y-69528571D01*
X149857143Y-69528571D01*
X149714286Y-69457143D01*
X149642857Y-69385714D01*
X149571429Y-69242857D01*
X149500000Y-68957143D01*
X149500000Y-68600000D01*
X149571429Y-68314286D01*
X149642857Y-68171429D01*
X149714286Y-68100000D01*
X149857143Y-68028571D01*
X151285714Y-68028571D02*
X151428571Y-68028571D01*
X151571428Y-68100000D01*
X151642857Y-68171429D01*
X151714286Y-68314286D01*
X151785714Y-68600000D01*
X151785714Y-68957143D01*
X151714286Y-69242857D01*
X151642857Y-69385714D01*
X151571428Y-69457143D01*
X151428571Y-69528571D01*
X151285714Y-69528571D01*
X151142857Y-69457143D01*
X151071428Y-69385714D01*
X151000000Y-69242857D01*
X150928571Y-68957143D01*
X150928571Y-68600000D01*
X151000000Y-68314286D01*
X151071428Y-68171429D01*
X151142857Y-68100000D01*
X151285714Y-68028571D01*
X153571428Y-69528571D02*
X153571428Y-68528571D01*
X153571428Y-68671429D02*
X153642856Y-68600000D01*
X153785714Y-68528571D01*
X153999999Y-68528571D01*
X154142856Y-68600000D01*
X154214285Y-68742857D01*
X154214285Y-69528571D01*
X154214285Y-68742857D02*
X154285714Y-68600000D01*
X154428571Y-68528571D01*
X154642856Y-68528571D01*
X154785714Y-68600000D01*
X154857142Y-68742857D01*
X154857142Y-69528571D01*
X155571428Y-69528571D02*
X155571428Y-68528571D01*
X155571428Y-68671429D02*
X155642856Y-68600000D01*
X155785714Y-68528571D01*
X155999999Y-68528571D01*
X156142856Y-68600000D01*
X156214285Y-68742857D01*
X156214285Y-69528571D01*
X156214285Y-68742857D02*
X156285714Y-68600000D01*
X156428571Y-68528571D01*
X156642856Y-68528571D01*
X156785714Y-68600000D01*
X156857142Y-68742857D01*
X156857142Y-69528571D01*
X70000000Y-70200000D02*
X230000000Y-70200000D01*
X70000000Y-80000000D02*
X70000000Y-67500000D01*
X230000000Y-80000000D02*
X230000000Y-67500000D01*
X230000000Y-70200000D02*
X228873496Y-70786421D01*
X230000000Y-70200000D02*
X228873496Y-69613579D01*
X70000000Y-70200000D02*
X71126504Y-70786421D01*
X70000000Y-70200000D02*
X71126504Y-69613579D01*
X114500001Y-136128571D02*
X114214287Y-136128571D01*
X114071430Y-136200000D01*
X114000001Y-136271429D01*
X113857144Y-136485714D01*
X113785715Y-136771429D01*
X113785715Y-137342857D01*
X113857144Y-137485714D01*
X113928572Y-137557143D01*
X114071430Y-137628571D01*
X114357144Y-137628571D01*
X114500001Y-137557143D01*
X114571430Y-137485714D01*
X114642858Y-137342857D01*
X114642858Y-136985714D01*
X114571430Y-136842857D01*
X114500001Y-136771429D01*
X114357144Y-136700000D01*
X114071430Y-136700000D01*
X113928572Y-136771429D01*
X113857144Y-136842857D01*
X113785715Y-136985714D01*
X115571429Y-136128571D02*
X115714286Y-136128571D01*
X115857143Y-136200000D01*
X115928572Y-136271429D01*
X116000001Y-136414286D01*
X116071429Y-136700000D01*
X116071429Y-137057143D01*
X116000001Y-137342857D01*
X115928572Y-137485714D01*
X115857143Y-137557143D01*
X115714286Y-137628571D01*
X115571429Y-137628571D01*
X115428572Y-137557143D01*
X115357143Y-137485714D01*
X115285715Y-137342857D01*
X115214286Y-137057143D01*
X115214286Y-136700000D01*
X115285715Y-136414286D01*
X115357143Y-136271429D01*
X115428572Y-136200000D01*
X115571429Y-136128571D01*
X116714286Y-137485714D02*
X116785714Y-137557143D01*
X116714286Y-137628571D01*
X116642857Y-137557143D01*
X116714286Y-137485714D01*
X116714286Y-137628571D01*
X117714286Y-136128571D02*
X117857143Y-136128571D01*
X118000000Y-136200000D01*
X118071429Y-136271429D01*
X118142858Y-136414286D01*
X118214286Y-136700000D01*
X118214286Y-137057143D01*
X118142858Y-137342857D01*
X118071429Y-137485714D01*
X118000000Y-137557143D01*
X117857143Y-137628571D01*
X117714286Y-137628571D01*
X117571429Y-137557143D01*
X117500000Y-137485714D01*
X117428572Y-137342857D01*
X117357143Y-137057143D01*
X117357143Y-136700000D01*
X117428572Y-136414286D01*
X117500000Y-136271429D01*
X117571429Y-136200000D01*
X117714286Y-136128571D01*
X119142857Y-136128571D02*
X119285714Y-136128571D01*
X119428571Y-136200000D01*
X119500000Y-136271429D01*
X119571429Y-136414286D01*
X119642857Y-136700000D01*
X119642857Y-137057143D01*
X119571429Y-137342857D01*
X119500000Y-137485714D01*
X119428571Y-137557143D01*
X119285714Y-137628571D01*
X119142857Y-137628571D01*
X119000000Y-137557143D01*
X118928571Y-137485714D01*
X118857143Y-137342857D01*
X118785714Y-137057143D01*
X118785714Y-136700000D01*
X118857143Y-136414286D01*
X118928571Y-136271429D01*
X119000000Y-136200000D01*
X119142857Y-136128571D01*
X120571428Y-136128571D02*
X120714285Y-136128571D01*
X120857142Y-136200000D01*
X120928571Y-136271429D01*
X121000000Y-136414286D01*
X121071428Y-136700000D01*
X121071428Y-137057143D01*
X121000000Y-137342857D01*
X120928571Y-137485714D01*
X120857142Y-137557143D01*
X120714285Y-137628571D01*
X120571428Y-137628571D01*
X120428571Y-137557143D01*
X120357142Y-137485714D01*
X120285714Y-137342857D01*
X120214285Y-137057143D01*
X120214285Y-136700000D01*
X120285714Y-136414286D01*
X120357142Y-136271429D01*
X120428571Y-136200000D01*
X120571428Y-136128571D01*
X122857142Y-137628571D02*
X122857142Y-136628571D01*
X122857142Y-136771429D02*
X122928570Y-136700000D01*
X123071428Y-136628571D01*
X123285713Y-136628571D01*
X123428570Y-136700000D01*
X123499999Y-136842857D01*
X123499999Y-137628571D01*
X123499999Y-136842857D02*
X123571428Y-136700000D01*
X123714285Y-136628571D01*
X123928570Y-136628571D01*
X124071428Y-136700000D01*
X124142856Y-136842857D01*
X124142856Y-137628571D01*
X124857142Y-137628571D02*
X124857142Y-136628571D01*
X124857142Y-136771429D02*
X124928570Y-136700000D01*
X125071428Y-136628571D01*
X125285713Y-136628571D01*
X125428570Y-136700000D01*
X125499999Y-136842857D01*
X125499999Y-137628571D01*
X125499999Y-136842857D02*
X125571428Y-136700000D01*
X125714285Y-136628571D01*
X125928570Y-136628571D01*
X126071428Y-136700000D01*
X126142856Y-136842857D01*
X126142856Y-137628571D01*
X90000000Y-135600000D02*
X150000000Y-135600000D01*
X90000000Y-110000000D02*
X90000000Y-138300000D01*
X150000000Y-110000000D02*
X150000000Y-138300000D01*
X150000000Y-135600000D02*
X148873496Y-136186421D01*
X150000000Y-135600000D02*
X148873496Y-135013579D01*
X90000000Y-135600000D02*
X91126504Y-136186421D01*
X90000000Y-135600000D02*
X91126504Y-135013579D01*
D12*
X39576191Y-85352381D02*
X39004762Y-85352381D01*
X39290476Y-85352381D02*
X39290476Y-84352381D01*
X39195238Y-84495238D01*
X39100000Y-84590476D01*
X39004762Y-84638095D01*
X40433334Y-84352381D02*
X40242857Y-84352381D01*
X40147619Y-84400000D01*
X40100000Y-84447619D01*
X40004762Y-84590476D01*
X39957143Y-84780952D01*
X39957143Y-85161905D01*
X40004762Y-85257143D01*
X40052381Y-85304762D01*
X40147619Y-85352381D01*
X40338096Y-85352381D01*
X40433334Y-85304762D01*
X40480953Y-85257143D01*
X40528572Y-85161905D01*
X40528572Y-84923810D01*
X40480953Y-84828571D01*
X40433334Y-84780952D01*
X40338096Y-84733333D01*
X40147619Y-84733333D01*
X40052381Y-84780952D01*
X40004762Y-84828571D01*
X39957143Y-84923810D01*
X41147619Y-84352381D02*
X41242858Y-84352381D01*
X41338096Y-84400000D01*
X41385715Y-84447619D01*
X41433334Y-84542857D01*
X41480953Y-84733333D01*
X41480953Y-84971429D01*
X41433334Y-85161905D01*
X41385715Y-85257143D01*
X41338096Y-85304762D01*
X41242858Y-85352381D01*
X41147619Y-85352381D01*
X41052381Y-85304762D01*
X41004762Y-85257143D01*
X40957143Y-85161905D01*
X40909524Y-84971429D01*
X40909524Y-84733333D01*
X40957143Y-84542857D01*
X41004762Y-84447619D01*
X41052381Y-84400000D01*
X41147619Y-84352381D01*
X41814286Y-85352381D02*
X42338096Y-84685714D01*
X41814286Y-84685714D02*
X42338096Y-85352381D01*
X43147620Y-84685714D02*
X43147620Y-85352381D01*
X42909524Y-84304762D02*
X42671429Y-85019048D01*
X43290477Y-85019048D01*
X43814286Y-84780952D02*
X43719048Y-84733333D01*
X43671429Y-84685714D01*
X43623810Y-84590476D01*
X43623810Y-84542857D01*
X43671429Y-84447619D01*
X43719048Y-84400000D01*
X43814286Y-84352381D01*
X44004763Y-84352381D01*
X44100001Y-84400000D01*
X44147620Y-84447619D01*
X44195239Y-84542857D01*
X44195239Y-84590476D01*
X44147620Y-84685714D01*
X44100001Y-84733333D01*
X44004763Y-84780952D01*
X43814286Y-84780952D01*
X43719048Y-84828571D01*
X43671429Y-84876190D01*
X43623810Y-84971429D01*
X43623810Y-85161905D01*
X43671429Y-85257143D01*
X43719048Y-85304762D01*
X43814286Y-85352381D01*
X44004763Y-85352381D01*
X44100001Y-85304762D01*
X44147620Y-85257143D01*
X44195239Y-85161905D01*
X44195239Y-84971429D01*
X44147620Y-84876190D01*
X44100001Y-84828571D01*
X44004763Y-84780952D01*
D13*
X230000000Y-80000000D02*
X230000000Y-128000000D01*
X70000000Y-80000000D02*
X230000000Y-80000000D01*
X70000000Y-128000000D02*
X70000000Y-80000000D01*
X230000000Y-128000000D02*
X70000000Y-128000000D01*
D10*
X18600000Y-80800000D02*
X18600000Y-123800000D01*
X18600000Y-121800000D02*
X48600000Y-121800000D01*
X48600000Y-80800000D02*
X48600000Y-123800000D01*
X18600000Y-83800000D02*
X48600000Y-83800000D01*
X18600000Y-80800000D02*
X48600000Y-80800000D01*
X18600000Y-85800000D02*
X48600000Y-85800000D01*
X18600000Y-87800000D02*
X48600000Y-87800000D01*
X18600000Y-89800000D02*
X48600000Y-89800000D01*
X18600000Y-93800000D02*
X48600000Y-93800000D01*
X18600000Y-91800000D02*
X48600000Y-91800000D01*
X18600000Y-95800000D02*
X48600000Y-95800000D01*
X18600000Y-97800000D02*
X48600000Y-97800000D01*
X18600000Y-99800000D02*
X48600000Y-99800000D01*
X18600000Y-101800000D02*
X48600000Y-101800000D01*
X18600000Y-103800000D02*
X48600000Y-103800000D01*
X18600000Y-105800000D02*
X48600000Y-105800000D01*
X18600000Y-107800000D02*
X48600000Y-107800000D01*
X18600000Y-109800000D02*
X48600000Y-109800000D01*
X18600000Y-111800000D02*
X48600000Y-111800000D01*
X18600000Y-113800000D02*
X48600000Y-113800000D01*
X18600000Y-115800000D02*
X48600000Y-115800000D01*
X18600000Y-117800000D02*
X48600000Y-117800000D01*
X18600000Y-119800000D02*
X48600000Y-119800000D01*
X36600000Y-123800000D02*
X36600000Y-83800000D01*
X18600000Y-123800000D02*
X48600000Y-123800000D01*
D14*
X19028571Y-85252381D02*
X19028571Y-84252381D01*
X19409524Y-84252381D01*
X19504762Y-84300000D01*
X19552381Y-84347619D01*
X19600000Y-84442857D01*
X19600000Y-84585714D01*
X19552381Y-84680952D01*
X19504762Y-84728571D01*
X19409524Y-84776190D01*
X19028571Y-84776190D01*
X20600000Y-85157143D02*
X20552381Y-85204762D01*
X20409524Y-85252381D01*
X20314286Y-85252381D01*
X20171428Y-85204762D01*
X20076190Y-85109524D01*
X20028571Y-85014286D01*
X19980952Y-84823810D01*
X19980952Y-84680952D01*
X20028571Y-84490476D01*
X20076190Y-84395238D01*
X20171428Y-84300000D01*
X20314286Y-84252381D01*
X20409524Y-84252381D01*
X20552381Y-84300000D01*
X20600000Y-84347619D01*
X21361905Y-84728571D02*
X21504762Y-84776190D01*
X21552381Y-84823810D01*
X21600000Y-84919048D01*
X21600000Y-85061905D01*
X21552381Y-85157143D01*
X21504762Y-85204762D01*
X21409524Y-85252381D01*
X21028571Y-85252381D01*
X21028571Y-84252381D01*
X21361905Y-84252381D01*
X21457143Y-84300000D01*
X21504762Y-84347619D01*
X21552381Y-84442857D01*
X21552381Y-84538095D01*
X21504762Y-84633333D01*
X21457143Y-84680952D01*
X21361905Y-84728571D01*
X21028571Y-84728571D01*
X22742857Y-85204762D02*
X22885714Y-85252381D01*
X23123810Y-85252381D01*
X23219048Y-85204762D01*
X23266667Y-85157143D01*
X23314286Y-85061905D01*
X23314286Y-84966667D01*
X23266667Y-84871429D01*
X23219048Y-84823810D01*
X23123810Y-84776190D01*
X22933333Y-84728571D01*
X22838095Y-84680952D01*
X22790476Y-84633333D01*
X22742857Y-84538095D01*
X22742857Y-84442857D01*
X22790476Y-84347619D01*
X22838095Y-84300000D01*
X22933333Y-84252381D01*
X23171429Y-84252381D01*
X23314286Y-84300000D01*
X23742857Y-85252381D02*
X23742857Y-84585714D01*
X23742857Y-84252381D02*
X23695238Y-84300000D01*
X23742857Y-84347619D01*
X23790476Y-84300000D01*
X23742857Y-84252381D01*
X23742857Y-84347619D01*
X24123809Y-84585714D02*
X24647619Y-84585714D01*
X24123809Y-85252381D01*
X24647619Y-85252381D01*
X25409524Y-85204762D02*
X25314286Y-85252381D01*
X25123809Y-85252381D01*
X25028571Y-85204762D01*
X24980952Y-85109524D01*
X24980952Y-84728571D01*
X25028571Y-84633333D01*
X25123809Y-84585714D01*
X25314286Y-84585714D01*
X25409524Y-84633333D01*
X25457143Y-84728571D01*
X25457143Y-84823810D01*
X24980952Y-84919048D01*
X26933334Y-85633333D02*
X26885714Y-85585714D01*
X26790476Y-85442857D01*
X26742857Y-85347619D01*
X26695238Y-85204762D01*
X26647619Y-84966667D01*
X26647619Y-84776190D01*
X26695238Y-84538095D01*
X26742857Y-84395238D01*
X26790476Y-84300000D01*
X26885714Y-84157143D01*
X26933334Y-84109524D01*
X27314286Y-85252381D02*
X27314286Y-84585714D01*
X27314286Y-84680952D02*
X27361905Y-84633333D01*
X27457143Y-84585714D01*
X27600001Y-84585714D01*
X27695239Y-84633333D01*
X27742858Y-84728571D01*
X27742858Y-85252381D01*
X27742858Y-84728571D02*
X27790477Y-84633333D01*
X27885715Y-84585714D01*
X28028572Y-84585714D01*
X28123810Y-84633333D01*
X28171429Y-84728571D01*
X28171429Y-85252381D01*
X28647619Y-85252381D02*
X28647619Y-84585714D01*
X28647619Y-84680952D02*
X28695238Y-84633333D01*
X28790476Y-84585714D01*
X28933334Y-84585714D01*
X29028572Y-84633333D01*
X29076191Y-84728571D01*
X29076191Y-85252381D01*
X29076191Y-84728571D02*
X29123810Y-84633333D01*
X29219048Y-84585714D01*
X29361905Y-84585714D01*
X29457143Y-84633333D01*
X29504762Y-84728571D01*
X29504762Y-85252381D01*
X29885714Y-85633333D02*
X29933333Y-85585714D01*
X30028571Y-85442857D01*
X30076190Y-85347619D01*
X30123809Y-85204762D01*
X30171428Y-84966667D01*
X30171428Y-84776190D01*
X30123809Y-84538095D01*
X30076190Y-84395238D01*
X30028571Y-84300000D01*
X29933333Y-84157143D01*
X29885714Y-84109524D01*
X19714287Y-82714286D02*
X19314287Y-82714286D01*
X19314287Y-83342857D02*
X19314287Y-82142857D01*
X19885716Y-82142857D01*
X20857144Y-83342857D02*
X20857144Y-82714286D01*
X20800001Y-82600000D01*
X20685715Y-82542857D01*
X20457144Y-82542857D01*
X20342858Y-82600000D01*
X20857144Y-83285714D02*
X20742858Y-83342857D01*
X20457144Y-83342857D01*
X20342858Y-83285714D01*
X20285715Y-83171429D01*
X20285715Y-83057143D01*
X20342858Y-82942857D01*
X20457144Y-82885714D01*
X20742858Y-82885714D01*
X20857144Y-82828571D01*
X21428572Y-83342857D02*
X21428572Y-82142857D01*
X21428572Y-82600000D02*
X21542858Y-82542857D01*
X21771429Y-82542857D01*
X21885715Y-82600000D01*
X21942858Y-82657143D01*
X22000001Y-82771429D01*
X22000001Y-83114286D01*
X21942858Y-83228571D01*
X21885715Y-83285714D01*
X21771429Y-83342857D01*
X21542858Y-83342857D01*
X21428572Y-83285714D01*
X22514286Y-83342857D02*
X22514286Y-82542857D01*
X22514286Y-82771429D02*
X22571429Y-82657143D01*
X22628572Y-82600000D01*
X22742858Y-82542857D01*
X22857143Y-82542857D01*
X23257143Y-83342857D02*
X23257143Y-82542857D01*
X23257143Y-82142857D02*
X23200000Y-82200000D01*
X23257143Y-82257143D01*
X23314286Y-82200000D01*
X23257143Y-82142857D01*
X23257143Y-82257143D01*
X24342858Y-83285714D02*
X24228572Y-83342857D01*
X24000001Y-83342857D01*
X23885715Y-83285714D01*
X23828572Y-83228571D01*
X23771429Y-83114286D01*
X23771429Y-82771429D01*
X23828572Y-82657143D01*
X23885715Y-82600000D01*
X24000001Y-82542857D01*
X24228572Y-82542857D01*
X24342858Y-82600000D01*
X25371429Y-83342857D02*
X25371429Y-82714286D01*
X25314286Y-82600000D01*
X25200000Y-82542857D01*
X24971429Y-82542857D01*
X24857143Y-82600000D01*
X25371429Y-83285714D02*
X25257143Y-83342857D01*
X24971429Y-83342857D01*
X24857143Y-83285714D01*
X24800000Y-83171429D01*
X24800000Y-83057143D01*
X24857143Y-82942857D01*
X24971429Y-82885714D01*
X25257143Y-82885714D01*
X25371429Y-82828571D01*
X25771429Y-82542857D02*
X26228572Y-82542857D01*
X25942857Y-82142857D02*
X25942857Y-83171429D01*
X26000000Y-83285714D01*
X26114286Y-83342857D01*
X26228572Y-83342857D01*
X26628571Y-83342857D02*
X26628571Y-82542857D01*
X26628571Y-82142857D02*
X26571428Y-82200000D01*
X26628571Y-82257143D01*
X26685714Y-82200000D01*
X26628571Y-82142857D01*
X26628571Y-82257143D01*
X27371429Y-83342857D02*
X27257143Y-83285714D01*
X27200000Y-83228571D01*
X27142857Y-83114286D01*
X27142857Y-82771429D01*
X27200000Y-82657143D01*
X27257143Y-82600000D01*
X27371429Y-82542857D01*
X27542857Y-82542857D01*
X27657143Y-82600000D01*
X27714286Y-82657143D01*
X27771429Y-82771429D01*
X27771429Y-83114286D01*
X27714286Y-83228571D01*
X27657143Y-83285714D01*
X27542857Y-83342857D01*
X27371429Y-83342857D01*
X28285714Y-82542857D02*
X28285714Y-83342857D01*
X28285714Y-82657143D02*
X28342857Y-82600000D01*
X28457143Y-82542857D01*
X28628571Y-82542857D01*
X28742857Y-82600000D01*
X28800000Y-82714286D01*
X28800000Y-83342857D01*
X30285714Y-83342857D02*
X30285714Y-82142857D01*
X30571429Y-82142857D01*
X30742857Y-82200000D01*
X30857143Y-82314286D01*
X30914286Y-82428571D01*
X30971429Y-82657143D01*
X30971429Y-82828571D01*
X30914286Y-83057143D01*
X30857143Y-83171429D01*
X30742857Y-83285714D01*
X30571429Y-83342857D01*
X30285714Y-83342857D01*
X31942857Y-83285714D02*
X31828571Y-83342857D01*
X31600000Y-83342857D01*
X31485714Y-83285714D01*
X31428571Y-83171429D01*
X31428571Y-82714286D01*
X31485714Y-82600000D01*
X31600000Y-82542857D01*
X31828571Y-82542857D01*
X31942857Y-82600000D01*
X32000000Y-82714286D01*
X32000000Y-82828571D01*
X31428571Y-82942857D01*
X32342857Y-82542857D02*
X32800000Y-82542857D01*
X32514285Y-82142857D02*
X32514285Y-83171429D01*
X32571428Y-83285714D01*
X32685714Y-83342857D01*
X32800000Y-83342857D01*
X33714285Y-83342857D02*
X33714285Y-82714286D01*
X33657142Y-82600000D01*
X33542856Y-82542857D01*
X33314285Y-82542857D01*
X33199999Y-82600000D01*
X33714285Y-83285714D02*
X33599999Y-83342857D01*
X33314285Y-83342857D01*
X33199999Y-83285714D01*
X33142856Y-83171429D01*
X33142856Y-83057143D01*
X33199999Y-82942857D01*
X33314285Y-82885714D01*
X33599999Y-82885714D01*
X33714285Y-82828571D01*
X34285713Y-83342857D02*
X34285713Y-82542857D01*
X34285713Y-82142857D02*
X34228570Y-82200000D01*
X34285713Y-82257143D01*
X34342856Y-82200000D01*
X34285713Y-82142857D01*
X34285713Y-82257143D01*
X35028571Y-83342857D02*
X34914285Y-83285714D01*
X34857142Y-83171429D01*
X34857142Y-82142857D01*
X35428570Y-83285714D02*
X35542856Y-83342857D01*
X35771428Y-83342857D01*
X35885713Y-83285714D01*
X35942856Y-83171429D01*
X35942856Y-83114286D01*
X35885713Y-83000000D01*
X35771428Y-82942857D01*
X35599999Y-82942857D01*
X35485713Y-82885714D01*
X35428570Y-82771429D01*
X35428570Y-82714286D01*
X35485713Y-82600000D01*
X35599999Y-82542857D01*
X35771428Y-82542857D01*
X35885713Y-82600000D01*
X19280951Y-87252381D02*
X19280951Y-86252381D01*
X19852380Y-87252381D01*
X19852380Y-86252381D01*
X20471427Y-87252381D02*
X20376189Y-87204762D01*
X20328570Y-87157143D01*
X20280951Y-87061905D01*
X20280951Y-86776190D01*
X20328570Y-86680952D01*
X20376189Y-86633333D01*
X20471427Y-86585714D01*
X20614285Y-86585714D01*
X20709523Y-86633333D01*
X20757142Y-86680952D01*
X20804761Y-86776190D01*
X20804761Y-87061905D01*
X20757142Y-87157143D01*
X20709523Y-87204762D01*
X20614285Y-87252381D01*
X20471427Y-87252381D01*
X22138094Y-87252381D02*
X22042856Y-87204762D01*
X21995237Y-87157143D01*
X21947618Y-87061905D01*
X21947618Y-86776190D01*
X21995237Y-86680952D01*
X22042856Y-86633333D01*
X22138094Y-86585714D01*
X22280952Y-86585714D01*
X22376190Y-86633333D01*
X22423809Y-86680952D01*
X22471428Y-86776190D01*
X22471428Y-87061905D01*
X22423809Y-87157143D01*
X22376190Y-87204762D01*
X22280952Y-87252381D01*
X22138094Y-87252381D01*
X22757142Y-86585714D02*
X23138094Y-86585714D01*
X22899999Y-87252381D02*
X22899999Y-86395238D01*
X22947618Y-86300000D01*
X23042856Y-86252381D01*
X23138094Y-86252381D01*
X24709524Y-87252381D02*
X24233333Y-87252381D01*
X24233333Y-86252381D01*
X25471429Y-87252381D02*
X25471429Y-86728571D01*
X25423810Y-86633333D01*
X25328572Y-86585714D01*
X25138095Y-86585714D01*
X25042857Y-86633333D01*
X25471429Y-87204762D02*
X25376191Y-87252381D01*
X25138095Y-87252381D01*
X25042857Y-87204762D01*
X24995238Y-87109524D01*
X24995238Y-87014286D01*
X25042857Y-86919048D01*
X25138095Y-86871429D01*
X25376191Y-86871429D01*
X25471429Y-86823810D01*
X25852381Y-86585714D02*
X26090476Y-87252381D01*
X26328572Y-86585714D02*
X26090476Y-87252381D01*
X25995238Y-87490476D01*
X25947619Y-87538095D01*
X25852381Y-87585714D01*
X27090477Y-87204762D02*
X26995239Y-87252381D01*
X26804762Y-87252381D01*
X26709524Y-87204762D01*
X26661905Y-87109524D01*
X26661905Y-86728571D01*
X26709524Y-86633333D01*
X26804762Y-86585714D01*
X26995239Y-86585714D01*
X27090477Y-86633333D01*
X27138096Y-86728571D01*
X27138096Y-86823810D01*
X26661905Y-86919048D01*
X27566667Y-87252381D02*
X27566667Y-86585714D01*
X27566667Y-86776190D02*
X27614286Y-86680952D01*
X27661905Y-86633333D01*
X27757143Y-86585714D01*
X27852382Y-86585714D01*
X28138096Y-87204762D02*
X28233334Y-87252381D01*
X28423810Y-87252381D01*
X28519049Y-87204762D01*
X28566668Y-87109524D01*
X28566668Y-87061905D01*
X28519049Y-86966667D01*
X28423810Y-86919048D01*
X28280953Y-86919048D01*
X28185715Y-86871429D01*
X28138096Y-86776190D01*
X28138096Y-86728571D01*
X28185715Y-86633333D01*
X28280953Y-86585714D01*
X28423810Y-86585714D01*
X28519049Y-86633333D01*
X19290476Y-89252381D02*
X19290476Y-88252381D01*
X19623810Y-88966667D01*
X19957143Y-88252381D01*
X19957143Y-89252381D01*
X20433333Y-89252381D02*
X20433333Y-88585714D01*
X20433333Y-88252381D02*
X20385714Y-88300000D01*
X20433333Y-88347619D01*
X20480952Y-88300000D01*
X20433333Y-88252381D01*
X20433333Y-88347619D01*
X20909523Y-88585714D02*
X20909523Y-89252381D01*
X20909523Y-88680952D02*
X20957142Y-88633333D01*
X21052380Y-88585714D01*
X21195238Y-88585714D01*
X21290476Y-88633333D01*
X21338095Y-88728571D01*
X21338095Y-89252381D01*
X23052381Y-89252381D02*
X22576190Y-89252381D01*
X22576190Y-88252381D01*
X23385714Y-89252381D02*
X23385714Y-88585714D01*
X23385714Y-88252381D02*
X23338095Y-88300000D01*
X23385714Y-88347619D01*
X23433333Y-88300000D01*
X23385714Y-88252381D01*
X23385714Y-88347619D01*
X23861904Y-88585714D02*
X23861904Y-89252381D01*
X23861904Y-88680952D02*
X23909523Y-88633333D01*
X24004761Y-88585714D01*
X24147619Y-88585714D01*
X24242857Y-88633333D01*
X24290476Y-88728571D01*
X24290476Y-89252381D01*
X25147619Y-89204762D02*
X25052381Y-89252381D01*
X24861904Y-89252381D01*
X24766666Y-89204762D01*
X24719047Y-89109524D01*
X24719047Y-88728571D01*
X24766666Y-88633333D01*
X24861904Y-88585714D01*
X25052381Y-88585714D01*
X25147619Y-88633333D01*
X25195238Y-88728571D01*
X25195238Y-88823810D01*
X24719047Y-88919048D01*
X26290476Y-88252381D02*
X26528571Y-89252381D01*
X26719048Y-88538095D01*
X26909524Y-89252381D01*
X27147619Y-88252381D01*
X27528571Y-89252381D02*
X27528571Y-88585714D01*
X27528571Y-88252381D02*
X27480952Y-88300000D01*
X27528571Y-88347619D01*
X27576190Y-88300000D01*
X27528571Y-88252381D01*
X27528571Y-88347619D01*
X28433333Y-89252381D02*
X28433333Y-88252381D01*
X28433333Y-89204762D02*
X28338095Y-89252381D01*
X28147618Y-89252381D01*
X28052380Y-89204762D01*
X28004761Y-89157143D01*
X27957142Y-89061905D01*
X27957142Y-88776190D01*
X28004761Y-88680952D01*
X28052380Y-88633333D01*
X28147618Y-88585714D01*
X28338095Y-88585714D01*
X28433333Y-88633333D01*
X28766666Y-88585714D02*
X29147618Y-88585714D01*
X28909523Y-88252381D02*
X28909523Y-89109524D01*
X28957142Y-89204762D01*
X29052380Y-89252381D01*
X29147618Y-89252381D01*
X29480952Y-89252381D02*
X29480952Y-88252381D01*
X29909524Y-89252381D02*
X29909524Y-88728571D01*
X29861905Y-88633333D01*
X29766667Y-88585714D01*
X29623809Y-88585714D01*
X29528571Y-88633333D01*
X29480952Y-88680952D01*
X19342857Y-91252381D02*
X19342857Y-90252381D01*
X19676191Y-90966667D01*
X20009524Y-90252381D01*
X20009524Y-91252381D01*
X20485714Y-91252381D02*
X20485714Y-90585714D01*
X20485714Y-90252381D02*
X20438095Y-90300000D01*
X20485714Y-90347619D01*
X20533333Y-90300000D01*
X20485714Y-90252381D01*
X20485714Y-90347619D01*
X20961904Y-90585714D02*
X20961904Y-91252381D01*
X20961904Y-90680952D02*
X21009523Y-90633333D01*
X21104761Y-90585714D01*
X21247619Y-90585714D01*
X21342857Y-90633333D01*
X21390476Y-90728571D01*
X21390476Y-91252381D01*
X22580952Y-91204762D02*
X22723809Y-91252381D01*
X22961905Y-91252381D01*
X23057143Y-91204762D01*
X23104762Y-91157143D01*
X23152381Y-91061905D01*
X23152381Y-90966667D01*
X23104762Y-90871429D01*
X23057143Y-90823810D01*
X22961905Y-90776190D01*
X22771428Y-90728571D01*
X22676190Y-90680952D01*
X22628571Y-90633333D01*
X22580952Y-90538095D01*
X22580952Y-90442857D01*
X22628571Y-90347619D01*
X22676190Y-90300000D01*
X22771428Y-90252381D01*
X23009524Y-90252381D01*
X23152381Y-90300000D01*
X23580952Y-90585714D02*
X23580952Y-91585714D01*
X23580952Y-90633333D02*
X23676190Y-90585714D01*
X23866667Y-90585714D01*
X23961905Y-90633333D01*
X24009524Y-90680952D01*
X24057143Y-90776190D01*
X24057143Y-91061905D01*
X24009524Y-91157143D01*
X23961905Y-91204762D01*
X23866667Y-91252381D01*
X23676190Y-91252381D01*
X23580952Y-91204762D01*
X24914286Y-91252381D02*
X24914286Y-90728571D01*
X24866667Y-90633333D01*
X24771429Y-90585714D01*
X24580952Y-90585714D01*
X24485714Y-90633333D01*
X24914286Y-91204762D02*
X24819048Y-91252381D01*
X24580952Y-91252381D01*
X24485714Y-91204762D01*
X24438095Y-91109524D01*
X24438095Y-91014286D01*
X24485714Y-90919048D01*
X24580952Y-90871429D01*
X24819048Y-90871429D01*
X24914286Y-90823810D01*
X25819048Y-91204762D02*
X25723810Y-91252381D01*
X25533333Y-91252381D01*
X25438095Y-91204762D01*
X25390476Y-91157143D01*
X25342857Y-91061905D01*
X25342857Y-90776190D01*
X25390476Y-90680952D01*
X25438095Y-90633333D01*
X25533333Y-90585714D01*
X25723810Y-90585714D01*
X25819048Y-90633333D01*
X26247619Y-91252381D02*
X26247619Y-90585714D01*
X26247619Y-90252381D02*
X26200000Y-90300000D01*
X26247619Y-90347619D01*
X26295238Y-90300000D01*
X26247619Y-90252381D01*
X26247619Y-90347619D01*
X26723809Y-90585714D02*
X26723809Y-91252381D01*
X26723809Y-90680952D02*
X26771428Y-90633333D01*
X26866666Y-90585714D01*
X27009524Y-90585714D01*
X27104762Y-90633333D01*
X27152381Y-90728571D01*
X27152381Y-91252381D01*
X28057143Y-90585714D02*
X28057143Y-91395238D01*
X28009524Y-91490476D01*
X27961905Y-91538095D01*
X27866666Y-91585714D01*
X27723809Y-91585714D01*
X27628571Y-91538095D01*
X28057143Y-91204762D02*
X27961905Y-91252381D01*
X27771428Y-91252381D01*
X27676190Y-91204762D01*
X27628571Y-91157143D01*
X27580952Y-91061905D01*
X27580952Y-90776190D01*
X27628571Y-90680952D01*
X27676190Y-90633333D01*
X27771428Y-90585714D01*
X27961905Y-90585714D01*
X28057143Y-90633333D01*
X19223808Y-93004762D02*
X19366665Y-93052381D01*
X19604761Y-93052381D01*
X19699999Y-93004762D01*
X19747618Y-92957143D01*
X19795237Y-92861905D01*
X19795237Y-92766667D01*
X19747618Y-92671429D01*
X19699999Y-92623810D01*
X19604761Y-92576190D01*
X19414284Y-92528571D01*
X19319046Y-92480952D01*
X19271427Y-92433333D01*
X19223808Y-92338095D01*
X19223808Y-92242857D01*
X19271427Y-92147619D01*
X19319046Y-92100000D01*
X19414284Y-92052381D01*
X19652380Y-92052381D01*
X19795237Y-92100000D01*
X20366665Y-93052381D02*
X20271427Y-93004762D01*
X20223808Y-92909524D01*
X20223808Y-92052381D01*
X20890475Y-93052381D02*
X20795237Y-93004762D01*
X20747618Y-92957143D01*
X20699999Y-92861905D01*
X20699999Y-92576190D01*
X20747618Y-92480952D01*
X20795237Y-92433333D01*
X20890475Y-92385714D01*
X21033333Y-92385714D01*
X21128571Y-92433333D01*
X21176190Y-92480952D01*
X21223809Y-92576190D01*
X21223809Y-92861905D01*
X21176190Y-92957143D01*
X21128571Y-93004762D01*
X21033333Y-93052381D01*
X20890475Y-93052381D01*
X21509523Y-92385714D02*
X21890475Y-92385714D01*
X21652380Y-92052381D02*
X21652380Y-92909524D01*
X21699999Y-93004762D01*
X21795237Y-93052381D01*
X21890475Y-93052381D01*
X22985714Y-93052381D02*
X22985714Y-92052381D01*
X23366667Y-92052381D01*
X23461905Y-92100000D01*
X23509524Y-92147619D01*
X23557143Y-92242857D01*
X23557143Y-92385714D01*
X23509524Y-92480952D01*
X23461905Y-92528571D01*
X23366667Y-92576190D01*
X22985714Y-92576190D01*
X23985714Y-93052381D02*
X23985714Y-92385714D01*
X23985714Y-92576190D02*
X24033333Y-92480952D01*
X24080952Y-92433333D01*
X24176190Y-92385714D01*
X24271429Y-92385714D01*
X24985715Y-93004762D02*
X24890477Y-93052381D01*
X24700000Y-93052381D01*
X24604762Y-93004762D01*
X24557143Y-92909524D01*
X24557143Y-92528571D01*
X24604762Y-92433333D01*
X24700000Y-92385714D01*
X24890477Y-92385714D01*
X24985715Y-92433333D01*
X25033334Y-92528571D01*
X25033334Y-92623810D01*
X24557143Y-92719048D01*
X25414286Y-93004762D02*
X25509524Y-93052381D01*
X25700000Y-93052381D01*
X25795239Y-93004762D01*
X25842858Y-92909524D01*
X25842858Y-92861905D01*
X25795239Y-92766667D01*
X25700000Y-92719048D01*
X25557143Y-92719048D01*
X25461905Y-92671429D01*
X25414286Y-92576190D01*
X25414286Y-92528571D01*
X25461905Y-92433333D01*
X25557143Y-92385714D01*
X25700000Y-92385714D01*
X25795239Y-92433333D01*
X26652382Y-93004762D02*
X26557144Y-93052381D01*
X26366667Y-93052381D01*
X26271429Y-93004762D01*
X26223810Y-92909524D01*
X26223810Y-92528571D01*
X26271429Y-92433333D01*
X26366667Y-92385714D01*
X26557144Y-92385714D01*
X26652382Y-92433333D01*
X26700001Y-92528571D01*
X26700001Y-92623810D01*
X26223810Y-92719048D01*
X27128572Y-92385714D02*
X27128572Y-93052381D01*
X27128572Y-92480952D02*
X27176191Y-92433333D01*
X27271429Y-92385714D01*
X27414287Y-92385714D01*
X27509525Y-92433333D01*
X27557144Y-92528571D01*
X27557144Y-93052381D01*
X27890477Y-92385714D02*
X28271429Y-92385714D01*
X28033334Y-92052381D02*
X28033334Y-92909524D01*
X28080953Y-93004762D01*
X28176191Y-93052381D01*
X28271429Y-93052381D01*
X19152380Y-95204762D02*
X19295237Y-95252381D01*
X19533333Y-95252381D01*
X19628571Y-95204762D01*
X19676190Y-95157143D01*
X19723809Y-95061905D01*
X19723809Y-94966667D01*
X19676190Y-94871429D01*
X19628571Y-94823810D01*
X19533333Y-94776190D01*
X19342856Y-94728571D01*
X19247618Y-94680952D01*
X19199999Y-94633333D01*
X19152380Y-94538095D01*
X19152380Y-94442857D01*
X19199999Y-94347619D01*
X19247618Y-94300000D01*
X19342856Y-94252381D01*
X19580952Y-94252381D01*
X19723809Y-94300000D01*
X20152380Y-95252381D02*
X20152380Y-94252381D01*
X20485714Y-94966667D01*
X20819047Y-94252381D01*
X20819047Y-95252381D01*
X21295237Y-95252381D02*
X21295237Y-94252381D01*
X21533332Y-94252381D01*
X21676190Y-94300000D01*
X21771428Y-94395238D01*
X21819047Y-94490476D01*
X21866666Y-94680952D01*
X21866666Y-94823810D01*
X21819047Y-95014286D01*
X21771428Y-95109524D01*
X21676190Y-95204762D01*
X21533332Y-95252381D01*
X21295237Y-95252381D01*
X23057142Y-95252381D02*
X23057142Y-94252381D01*
X23438095Y-94252381D01*
X23533333Y-94300000D01*
X23580952Y-94347619D01*
X23628571Y-94442857D01*
X23628571Y-94585714D01*
X23580952Y-94680952D01*
X23533333Y-94728571D01*
X23438095Y-94776190D01*
X23057142Y-94776190D01*
X24057142Y-95252381D02*
X24057142Y-94585714D01*
X24057142Y-94776190D02*
X24104761Y-94680952D01*
X24152380Y-94633333D01*
X24247618Y-94585714D01*
X24342857Y-94585714D01*
X25057143Y-95204762D02*
X24961905Y-95252381D01*
X24771428Y-95252381D01*
X24676190Y-95204762D01*
X24628571Y-95109524D01*
X24628571Y-94728571D01*
X24676190Y-94633333D01*
X24771428Y-94585714D01*
X24961905Y-94585714D01*
X25057143Y-94633333D01*
X25104762Y-94728571D01*
X25104762Y-94823810D01*
X24628571Y-94919048D01*
X25485714Y-95204762D02*
X25580952Y-95252381D01*
X25771428Y-95252381D01*
X25866667Y-95204762D01*
X25914286Y-95109524D01*
X25914286Y-95061905D01*
X25866667Y-94966667D01*
X25771428Y-94919048D01*
X25628571Y-94919048D01*
X25533333Y-94871429D01*
X25485714Y-94776190D01*
X25485714Y-94728571D01*
X25533333Y-94633333D01*
X25628571Y-94585714D01*
X25771428Y-94585714D01*
X25866667Y-94633333D01*
X26723810Y-95204762D02*
X26628572Y-95252381D01*
X26438095Y-95252381D01*
X26342857Y-95204762D01*
X26295238Y-95109524D01*
X26295238Y-94728571D01*
X26342857Y-94633333D01*
X26438095Y-94585714D01*
X26628572Y-94585714D01*
X26723810Y-94633333D01*
X26771429Y-94728571D01*
X26771429Y-94823810D01*
X26295238Y-94919048D01*
X27200000Y-94585714D02*
X27200000Y-95252381D01*
X27200000Y-94680952D02*
X27247619Y-94633333D01*
X27342857Y-94585714D01*
X27485715Y-94585714D01*
X27580953Y-94633333D01*
X27628572Y-94728571D01*
X27628572Y-95252381D01*
X27961905Y-94585714D02*
X28342857Y-94585714D01*
X28104762Y-94252381D02*
X28104762Y-95109524D01*
X28152381Y-95204762D01*
X28247619Y-95252381D01*
X28342857Y-95252381D01*
X19157142Y-97252381D02*
X19157142Y-96252381D01*
X19490476Y-96966667D01*
X19823809Y-96252381D01*
X19823809Y-97252381D01*
X20728571Y-97252381D02*
X20728571Y-96728571D01*
X20680952Y-96633333D01*
X20585714Y-96585714D01*
X20395237Y-96585714D01*
X20299999Y-96633333D01*
X20728571Y-97204762D02*
X20633333Y-97252381D01*
X20395237Y-97252381D01*
X20299999Y-97204762D01*
X20252380Y-97109524D01*
X20252380Y-97014286D01*
X20299999Y-96919048D01*
X20395237Y-96871429D01*
X20633333Y-96871429D01*
X20728571Y-96823810D01*
X21157142Y-97204762D02*
X21252380Y-97252381D01*
X21442856Y-97252381D01*
X21538095Y-97204762D01*
X21585714Y-97109524D01*
X21585714Y-97061905D01*
X21538095Y-96966667D01*
X21442856Y-96919048D01*
X21299999Y-96919048D01*
X21204761Y-96871429D01*
X21157142Y-96776190D01*
X21157142Y-96728571D01*
X21204761Y-96633333D01*
X21299999Y-96585714D01*
X21442856Y-96585714D01*
X21538095Y-96633333D01*
X22014285Y-97252381D02*
X22014285Y-96252381D01*
X22109523Y-96871429D02*
X22395238Y-97252381D01*
X22395238Y-96585714D02*
X22014285Y-96966667D01*
X24157143Y-97157143D02*
X24109524Y-97204762D01*
X23966667Y-97252381D01*
X23871429Y-97252381D01*
X23728571Y-97204762D01*
X23633333Y-97109524D01*
X23585714Y-97014286D01*
X23538095Y-96823810D01*
X23538095Y-96680952D01*
X23585714Y-96490476D01*
X23633333Y-96395238D01*
X23728571Y-96300000D01*
X23871429Y-96252381D01*
X23966667Y-96252381D01*
X24109524Y-96300000D01*
X24157143Y-96347619D01*
X24728571Y-97252381D02*
X24633333Y-97204762D01*
X24585714Y-97157143D01*
X24538095Y-97061905D01*
X24538095Y-96776190D01*
X24585714Y-96680952D01*
X24633333Y-96633333D01*
X24728571Y-96585714D01*
X24871429Y-96585714D01*
X24966667Y-96633333D01*
X25014286Y-96680952D01*
X25061905Y-96776190D01*
X25061905Y-97061905D01*
X25014286Y-97157143D01*
X24966667Y-97204762D01*
X24871429Y-97252381D01*
X24728571Y-97252381D01*
X25395238Y-96585714D02*
X25633333Y-97252381D01*
X25871429Y-96585714D01*
X26633334Y-97204762D02*
X26538096Y-97252381D01*
X26347619Y-97252381D01*
X26252381Y-97204762D01*
X26204762Y-97109524D01*
X26204762Y-96728571D01*
X26252381Y-96633333D01*
X26347619Y-96585714D01*
X26538096Y-96585714D01*
X26633334Y-96633333D01*
X26680953Y-96728571D01*
X26680953Y-96823810D01*
X26204762Y-96919048D01*
X27109524Y-97252381D02*
X27109524Y-96585714D01*
X27109524Y-96776190D02*
X27157143Y-96680952D01*
X27204762Y-96633333D01*
X27300000Y-96585714D01*
X27395239Y-96585714D01*
X27728572Y-97252381D02*
X27728572Y-96585714D01*
X27728572Y-96252381D02*
X27680953Y-96300000D01*
X27728572Y-96347619D01*
X27776191Y-96300000D01*
X27728572Y-96252381D01*
X27728572Y-96347619D01*
X28204762Y-96585714D02*
X28204762Y-97252381D01*
X28204762Y-96680952D02*
X28252381Y-96633333D01*
X28347619Y-96585714D01*
X28490477Y-96585714D01*
X28585715Y-96633333D01*
X28633334Y-96728571D01*
X28633334Y-97252381D01*
X29538096Y-96585714D02*
X29538096Y-97395238D01*
X29490477Y-97490476D01*
X29442858Y-97538095D01*
X29347619Y-97585714D01*
X29204762Y-97585714D01*
X29109524Y-97538095D01*
X29538096Y-97204762D02*
X29442858Y-97252381D01*
X29252381Y-97252381D01*
X29157143Y-97204762D01*
X29109524Y-97157143D01*
X29061905Y-97061905D01*
X29061905Y-96776190D01*
X29109524Y-96680952D01*
X29157143Y-96633333D01*
X29252381Y-96585714D01*
X29442858Y-96585714D01*
X29538096Y-96633333D01*
X30633334Y-96252381D02*
X30966667Y-97252381D01*
X31300001Y-96252381D01*
X31633334Y-97252381D02*
X31633334Y-96252381D01*
X32061905Y-96966667D02*
X32538096Y-96966667D01*
X31966667Y-97252381D02*
X32300000Y-96252381D01*
X32633334Y-97252381D01*
X32919048Y-97204762D02*
X33061905Y-97252381D01*
X33300001Y-97252381D01*
X33395239Y-97204762D01*
X33442858Y-97157143D01*
X33490477Y-97061905D01*
X33490477Y-96966667D01*
X33442858Y-96871429D01*
X33395239Y-96823810D01*
X33300001Y-96776190D01*
X33109524Y-96728571D01*
X33014286Y-96680952D01*
X32966667Y-96633333D01*
X32919048Y-96538095D01*
X32919048Y-96442857D01*
X32966667Y-96347619D01*
X33014286Y-96300000D01*
X33109524Y-96252381D01*
X33347620Y-96252381D01*
X33490477Y-96300000D01*
X19080951Y-98252381D02*
X19080951Y-99061905D01*
X19128570Y-99157143D01*
X19176189Y-99204762D01*
X19271427Y-99252381D01*
X19461904Y-99252381D01*
X19557142Y-99204762D01*
X19604761Y-99157143D01*
X19652380Y-99061905D01*
X19652380Y-98252381D01*
X20128570Y-98585714D02*
X20128570Y-99252381D01*
X20128570Y-98680952D02*
X20176189Y-98633333D01*
X20271427Y-98585714D01*
X20414285Y-98585714D01*
X20509523Y-98633333D01*
X20557142Y-98728571D01*
X20557142Y-99252381D01*
X20890475Y-98585714D02*
X21271427Y-98585714D01*
X21033332Y-98252381D02*
X21033332Y-99109524D01*
X21080951Y-99204762D01*
X21176189Y-99252381D01*
X21271427Y-99252381D01*
X21985714Y-99204762D02*
X21890476Y-99252381D01*
X21699999Y-99252381D01*
X21604761Y-99204762D01*
X21557142Y-99109524D01*
X21557142Y-98728571D01*
X21604761Y-98633333D01*
X21699999Y-98585714D01*
X21890476Y-98585714D01*
X21985714Y-98633333D01*
X22033333Y-98728571D01*
X22033333Y-98823810D01*
X21557142Y-98919048D01*
X22461904Y-99252381D02*
X22461904Y-98585714D01*
X22461904Y-98776190D02*
X22509523Y-98680952D01*
X22557142Y-98633333D01*
X22652380Y-98585714D01*
X22747619Y-98585714D01*
X23080952Y-99252381D02*
X23080952Y-98585714D01*
X23080952Y-98680952D02*
X23128571Y-98633333D01*
X23223809Y-98585714D01*
X23366667Y-98585714D01*
X23461905Y-98633333D01*
X23509524Y-98728571D01*
X23509524Y-99252381D01*
X23509524Y-98728571D02*
X23557143Y-98633333D01*
X23652381Y-98585714D01*
X23795238Y-98585714D01*
X23890476Y-98633333D01*
X23938095Y-98728571D01*
X23938095Y-99252381D01*
X24414285Y-99252381D02*
X24414285Y-98585714D01*
X24414285Y-98252381D02*
X24366666Y-98300000D01*
X24414285Y-98347619D01*
X24461904Y-98300000D01*
X24414285Y-98252381D01*
X24414285Y-98347619D01*
X24890475Y-98585714D02*
X24890475Y-99252381D01*
X24890475Y-98680952D02*
X24938094Y-98633333D01*
X25033332Y-98585714D01*
X25176190Y-98585714D01*
X25271428Y-98633333D01*
X25319047Y-98728571D01*
X25319047Y-99252381D01*
X26223809Y-99252381D02*
X26223809Y-98728571D01*
X26176190Y-98633333D01*
X26080952Y-98585714D01*
X25890475Y-98585714D01*
X25795237Y-98633333D01*
X26223809Y-99204762D02*
X26128571Y-99252381D01*
X25890475Y-99252381D01*
X25795237Y-99204762D01*
X25747618Y-99109524D01*
X25747618Y-99014286D01*
X25795237Y-98919048D01*
X25890475Y-98871429D01*
X26128571Y-98871429D01*
X26223809Y-98823810D01*
X26557142Y-98585714D02*
X26938094Y-98585714D01*
X26699999Y-98252381D02*
X26699999Y-99109524D01*
X26747618Y-99204762D01*
X26842856Y-99252381D01*
X26938094Y-99252381D01*
X27652381Y-99204762D02*
X27557143Y-99252381D01*
X27366666Y-99252381D01*
X27271428Y-99204762D01*
X27223809Y-99109524D01*
X27223809Y-98728571D01*
X27271428Y-98633333D01*
X27366666Y-98585714D01*
X27557143Y-98585714D01*
X27652381Y-98633333D01*
X27700000Y-98728571D01*
X27700000Y-98823810D01*
X27223809Y-98919048D01*
X28557143Y-99252381D02*
X28557143Y-98252381D01*
X28557143Y-99204762D02*
X28461905Y-99252381D01*
X28271428Y-99252381D01*
X28176190Y-99204762D01*
X28128571Y-99157143D01*
X28080952Y-99061905D01*
X28080952Y-98776190D01*
X28128571Y-98680952D01*
X28176190Y-98633333D01*
X28271428Y-98585714D01*
X28461905Y-98585714D01*
X28557143Y-98633333D01*
X29652381Y-98252381D02*
X30223810Y-98252381D01*
X29938095Y-99252381D02*
X29938095Y-98252381D01*
X30557143Y-99252381D02*
X30557143Y-98585714D01*
X30557143Y-98776190D02*
X30604762Y-98680952D01*
X30652381Y-98633333D01*
X30747619Y-98585714D01*
X30842858Y-98585714D01*
X31604763Y-99252381D02*
X31604763Y-98728571D01*
X31557144Y-98633333D01*
X31461906Y-98585714D01*
X31271429Y-98585714D01*
X31176191Y-98633333D01*
X31604763Y-99204762D02*
X31509525Y-99252381D01*
X31271429Y-99252381D01*
X31176191Y-99204762D01*
X31128572Y-99109524D01*
X31128572Y-99014286D01*
X31176191Y-98919048D01*
X31271429Y-98871429D01*
X31509525Y-98871429D01*
X31604763Y-98823810D01*
X32509525Y-99204762D02*
X32414287Y-99252381D01*
X32223810Y-99252381D01*
X32128572Y-99204762D01*
X32080953Y-99157143D01*
X32033334Y-99061905D01*
X32033334Y-98776190D01*
X32080953Y-98680952D01*
X32128572Y-98633333D01*
X32223810Y-98585714D01*
X32414287Y-98585714D01*
X32509525Y-98633333D01*
X33319049Y-99204762D02*
X33223811Y-99252381D01*
X33033334Y-99252381D01*
X32938096Y-99204762D01*
X32890477Y-99109524D01*
X32890477Y-98728571D01*
X32938096Y-98633333D01*
X33033334Y-98585714D01*
X33223811Y-98585714D01*
X33319049Y-98633333D01*
X33366668Y-98728571D01*
X33366668Y-98823810D01*
X32890477Y-98919048D01*
X19033332Y-101252381D02*
X19033332Y-100252381D01*
X19366666Y-100966667D01*
X19699999Y-100252381D01*
X19699999Y-101252381D01*
X20604761Y-101252381D02*
X20604761Y-100728571D01*
X20557142Y-100633333D01*
X20461904Y-100585714D01*
X20271427Y-100585714D01*
X20176189Y-100633333D01*
X20604761Y-101204762D02*
X20509523Y-101252381D01*
X20271427Y-101252381D01*
X20176189Y-101204762D01*
X20128570Y-101109524D01*
X20128570Y-101014286D01*
X20176189Y-100919048D01*
X20271427Y-100871429D01*
X20509523Y-100871429D01*
X20604761Y-100823810D01*
X21033332Y-101204762D02*
X21128570Y-101252381D01*
X21319046Y-101252381D01*
X21414285Y-101204762D01*
X21461904Y-101109524D01*
X21461904Y-101061905D01*
X21414285Y-100966667D01*
X21319046Y-100919048D01*
X21176189Y-100919048D01*
X21080951Y-100871429D01*
X21033332Y-100776190D01*
X21033332Y-100728571D01*
X21080951Y-100633333D01*
X21176189Y-100585714D01*
X21319046Y-100585714D01*
X21414285Y-100633333D01*
X21890475Y-101252381D02*
X21890475Y-100252381D01*
X21985713Y-100871429D02*
X22271428Y-101252381D01*
X22271428Y-100585714D02*
X21890475Y-100966667D01*
X24033333Y-101157143D02*
X23985714Y-101204762D01*
X23842857Y-101252381D01*
X23747619Y-101252381D01*
X23604761Y-101204762D01*
X23509523Y-101109524D01*
X23461904Y-101014286D01*
X23414285Y-100823810D01*
X23414285Y-100680952D01*
X23461904Y-100490476D01*
X23509523Y-100395238D01*
X23604761Y-100300000D01*
X23747619Y-100252381D01*
X23842857Y-100252381D01*
X23985714Y-100300000D01*
X24033333Y-100347619D01*
X24604761Y-101252381D02*
X24509523Y-101204762D01*
X24461904Y-101109524D01*
X24461904Y-100252381D01*
X25366667Y-101204762D02*
X25271429Y-101252381D01*
X25080952Y-101252381D01*
X24985714Y-101204762D01*
X24938095Y-101109524D01*
X24938095Y-100728571D01*
X24985714Y-100633333D01*
X25080952Y-100585714D01*
X25271429Y-100585714D01*
X25366667Y-100633333D01*
X25414286Y-100728571D01*
X25414286Y-100823810D01*
X24938095Y-100919048D01*
X26271429Y-101252381D02*
X26271429Y-100728571D01*
X26223810Y-100633333D01*
X26128572Y-100585714D01*
X25938095Y-100585714D01*
X25842857Y-100633333D01*
X26271429Y-101204762D02*
X26176191Y-101252381D01*
X25938095Y-101252381D01*
X25842857Y-101204762D01*
X25795238Y-101109524D01*
X25795238Y-101014286D01*
X25842857Y-100919048D01*
X25938095Y-100871429D01*
X26176191Y-100871429D01*
X26271429Y-100823810D01*
X26747619Y-101252381D02*
X26747619Y-100585714D01*
X26747619Y-100776190D02*
X26795238Y-100680952D01*
X26842857Y-100633333D01*
X26938095Y-100585714D01*
X27033334Y-100585714D01*
X27747620Y-101204762D02*
X27652382Y-101252381D01*
X27461905Y-101252381D01*
X27366667Y-101204762D01*
X27319048Y-101109524D01*
X27319048Y-100728571D01*
X27366667Y-100633333D01*
X27461905Y-100585714D01*
X27652382Y-100585714D01*
X27747620Y-100633333D01*
X27795239Y-100728571D01*
X27795239Y-100823810D01*
X27319048Y-100919048D01*
X28223810Y-100585714D02*
X28223810Y-101252381D01*
X28223810Y-100680952D02*
X28271429Y-100633333D01*
X28366667Y-100585714D01*
X28509525Y-100585714D01*
X28604763Y-100633333D01*
X28652382Y-100728571D01*
X28652382Y-101252381D01*
X29557144Y-101204762D02*
X29461906Y-101252381D01*
X29271429Y-101252381D01*
X29176191Y-101204762D01*
X29128572Y-101157143D01*
X29080953Y-101061905D01*
X29080953Y-100776190D01*
X29128572Y-100680952D01*
X29176191Y-100633333D01*
X29271429Y-100585714D01*
X29461906Y-100585714D01*
X29557144Y-100633333D01*
X30366668Y-101204762D02*
X30271430Y-101252381D01*
X30080953Y-101252381D01*
X29985715Y-101204762D01*
X29938096Y-101109524D01*
X29938096Y-100728571D01*
X29985715Y-100633333D01*
X30080953Y-100585714D01*
X30271430Y-100585714D01*
X30366668Y-100633333D01*
X30414287Y-100728571D01*
X30414287Y-100823810D01*
X29938096Y-100919048D01*
X19519047Y-103252381D02*
X19042856Y-103252381D01*
X19042856Y-102252381D01*
X20233333Y-103204762D02*
X20138095Y-103252381D01*
X19947618Y-103252381D01*
X19852380Y-103204762D01*
X19804761Y-103109524D01*
X19804761Y-102728571D01*
X19852380Y-102633333D01*
X19947618Y-102585714D01*
X20138095Y-102585714D01*
X20233333Y-102633333D01*
X20280952Y-102728571D01*
X20280952Y-102823810D01*
X19804761Y-102919048D01*
X21138095Y-102585714D02*
X21138095Y-103395238D01*
X21090476Y-103490476D01*
X21042857Y-103538095D01*
X20947618Y-103585714D01*
X20804761Y-103585714D01*
X20709523Y-103538095D01*
X21138095Y-103204762D02*
X21042857Y-103252381D01*
X20852380Y-103252381D01*
X20757142Y-103204762D01*
X20709523Y-103157143D01*
X20661904Y-103061905D01*
X20661904Y-102776190D01*
X20709523Y-102680952D01*
X20757142Y-102633333D01*
X20852380Y-102585714D01*
X21042857Y-102585714D01*
X21138095Y-102633333D01*
X21995238Y-103204762D02*
X21900000Y-103252381D01*
X21709523Y-103252381D01*
X21614285Y-103204762D01*
X21566666Y-103109524D01*
X21566666Y-102728571D01*
X21614285Y-102633333D01*
X21709523Y-102585714D01*
X21900000Y-102585714D01*
X21995238Y-102633333D01*
X22042857Y-102728571D01*
X22042857Y-102823810D01*
X21566666Y-102919048D01*
X22471428Y-102585714D02*
X22471428Y-103252381D01*
X22471428Y-102680952D02*
X22519047Y-102633333D01*
X22614285Y-102585714D01*
X22757143Y-102585714D01*
X22852381Y-102633333D01*
X22900000Y-102728571D01*
X22900000Y-103252381D01*
X23804762Y-103252381D02*
X23804762Y-102252381D01*
X23804762Y-103204762D02*
X23709524Y-103252381D01*
X23519047Y-103252381D01*
X23423809Y-103204762D01*
X23376190Y-103157143D01*
X23328571Y-103061905D01*
X23328571Y-102776190D01*
X23376190Y-102680952D01*
X23423809Y-102633333D01*
X23519047Y-102585714D01*
X23709524Y-102585714D01*
X23804762Y-102633333D01*
X25185714Y-103252381D02*
X25090476Y-103204762D01*
X25042857Y-103157143D01*
X24995238Y-103061905D01*
X24995238Y-102776190D01*
X25042857Y-102680952D01*
X25090476Y-102633333D01*
X25185714Y-102585714D01*
X25328572Y-102585714D01*
X25423810Y-102633333D01*
X25471429Y-102680952D01*
X25519048Y-102776190D01*
X25519048Y-103061905D01*
X25471429Y-103157143D01*
X25423810Y-103204762D01*
X25328572Y-103252381D01*
X25185714Y-103252381D01*
X25947619Y-102585714D02*
X25947619Y-103252381D01*
X25947619Y-102680952D02*
X25995238Y-102633333D01*
X26090476Y-102585714D01*
X26233334Y-102585714D01*
X26328572Y-102633333D01*
X26376191Y-102728571D01*
X26376191Y-103252381D01*
X27614286Y-103252381D02*
X27614286Y-102252381D01*
X27995239Y-102252381D01*
X28090477Y-102300000D01*
X28138096Y-102347619D01*
X28185715Y-102442857D01*
X28185715Y-102585714D01*
X28138096Y-102680952D01*
X28090477Y-102728571D01*
X27995239Y-102776190D01*
X27614286Y-102776190D01*
X29042858Y-103252381D02*
X29042858Y-102728571D01*
X28995239Y-102633333D01*
X28900001Y-102585714D01*
X28709524Y-102585714D01*
X28614286Y-102633333D01*
X29042858Y-103204762D02*
X28947620Y-103252381D01*
X28709524Y-103252381D01*
X28614286Y-103204762D01*
X28566667Y-103109524D01*
X28566667Y-103014286D01*
X28614286Y-102919048D01*
X28709524Y-102871429D01*
X28947620Y-102871429D01*
X29042858Y-102823810D01*
X29947620Y-103252381D02*
X29947620Y-102252381D01*
X29947620Y-103204762D02*
X29852382Y-103252381D01*
X29661905Y-103252381D01*
X29566667Y-103204762D01*
X29519048Y-103157143D01*
X29471429Y-103061905D01*
X29471429Y-102776190D01*
X29519048Y-102680952D01*
X29566667Y-102633333D01*
X29661905Y-102585714D01*
X29852382Y-102585714D01*
X29947620Y-102633333D01*
X30376191Y-103204762D02*
X30471429Y-103252381D01*
X30661905Y-103252381D01*
X30757144Y-103204762D01*
X30804763Y-103109524D01*
X30804763Y-103061905D01*
X30757144Y-102966667D01*
X30661905Y-102919048D01*
X30519048Y-102919048D01*
X30423810Y-102871429D01*
X30376191Y-102776190D01*
X30376191Y-102728571D01*
X30423810Y-102633333D01*
X30519048Y-102585714D01*
X30661905Y-102585714D01*
X30757144Y-102633333D01*
X19328571Y-104728571D02*
X19471428Y-104776190D01*
X19519047Y-104823810D01*
X19566666Y-104919048D01*
X19566666Y-105061905D01*
X19519047Y-105157143D01*
X19471428Y-105204762D01*
X19376190Y-105252381D01*
X18995237Y-105252381D01*
X18995237Y-104252381D01*
X19328571Y-104252381D01*
X19423809Y-104300000D01*
X19471428Y-104347619D01*
X19519047Y-104442857D01*
X19519047Y-104538095D01*
X19471428Y-104633333D01*
X19423809Y-104680952D01*
X19328571Y-104728571D01*
X18995237Y-104728571D01*
X20138094Y-105252381D02*
X20042856Y-105204762D01*
X19995237Y-105157143D01*
X19947618Y-105061905D01*
X19947618Y-104776190D01*
X19995237Y-104680952D01*
X20042856Y-104633333D01*
X20138094Y-104585714D01*
X20280952Y-104585714D01*
X20376190Y-104633333D01*
X20423809Y-104680952D01*
X20471428Y-104776190D01*
X20471428Y-105061905D01*
X20423809Y-105157143D01*
X20376190Y-105204762D01*
X20280952Y-105252381D01*
X20138094Y-105252381D01*
X21328571Y-105252381D02*
X21328571Y-104728571D01*
X21280952Y-104633333D01*
X21185714Y-104585714D01*
X20995237Y-104585714D01*
X20899999Y-104633333D01*
X21328571Y-105204762D02*
X21233333Y-105252381D01*
X20995237Y-105252381D01*
X20899999Y-105204762D01*
X20852380Y-105109524D01*
X20852380Y-105014286D01*
X20899999Y-104919048D01*
X20995237Y-104871429D01*
X21233333Y-104871429D01*
X21328571Y-104823810D01*
X21804761Y-105252381D02*
X21804761Y-104585714D01*
X21804761Y-104776190D02*
X21852380Y-104680952D01*
X21899999Y-104633333D01*
X21995237Y-104585714D01*
X22090476Y-104585714D01*
X22852381Y-105252381D02*
X22852381Y-104252381D01*
X22852381Y-105204762D02*
X22757143Y-105252381D01*
X22566666Y-105252381D01*
X22471428Y-105204762D01*
X22423809Y-105157143D01*
X22376190Y-105061905D01*
X22376190Y-104776190D01*
X22423809Y-104680952D01*
X22471428Y-104633333D01*
X22566666Y-104585714D01*
X22757143Y-104585714D01*
X22852381Y-104633333D01*
X23947619Y-104252381D02*
X24519048Y-104252381D01*
X24233333Y-105252381D02*
X24233333Y-104252381D01*
X24852381Y-105252381D02*
X24852381Y-104252381D01*
X25280953Y-105252381D02*
X25280953Y-104728571D01*
X25233334Y-104633333D01*
X25138096Y-104585714D01*
X24995238Y-104585714D01*
X24900000Y-104633333D01*
X24852381Y-104680952D01*
X25757143Y-105252381D02*
X25757143Y-104585714D01*
X25757143Y-104252381D02*
X25709524Y-104300000D01*
X25757143Y-104347619D01*
X25804762Y-104300000D01*
X25757143Y-104252381D01*
X25757143Y-104347619D01*
X26661905Y-105204762D02*
X26566667Y-105252381D01*
X26376190Y-105252381D01*
X26280952Y-105204762D01*
X26233333Y-105157143D01*
X26185714Y-105061905D01*
X26185714Y-104776190D01*
X26233333Y-104680952D01*
X26280952Y-104633333D01*
X26376190Y-104585714D01*
X26566667Y-104585714D01*
X26661905Y-104633333D01*
X27090476Y-105252381D02*
X27090476Y-104252381D01*
X27185714Y-104871429D02*
X27471429Y-105252381D01*
X27471429Y-104585714D02*
X27090476Y-104966667D01*
X27900000Y-104585714D02*
X27900000Y-105252381D01*
X27900000Y-104680952D02*
X27947619Y-104633333D01*
X28042857Y-104585714D01*
X28185715Y-104585714D01*
X28280953Y-104633333D01*
X28328572Y-104728571D01*
X28328572Y-105252381D01*
X29185715Y-105204762D02*
X29090477Y-105252381D01*
X28900000Y-105252381D01*
X28804762Y-105204762D01*
X28757143Y-105109524D01*
X28757143Y-104728571D01*
X28804762Y-104633333D01*
X28900000Y-104585714D01*
X29090477Y-104585714D01*
X29185715Y-104633333D01*
X29233334Y-104728571D01*
X29233334Y-104823810D01*
X28757143Y-104919048D01*
X29614286Y-105204762D02*
X29709524Y-105252381D01*
X29900000Y-105252381D01*
X29995239Y-105204762D01*
X30042858Y-105109524D01*
X30042858Y-105061905D01*
X29995239Y-104966667D01*
X29900000Y-104919048D01*
X29757143Y-104919048D01*
X29661905Y-104871429D01*
X29614286Y-104776190D01*
X29614286Y-104728571D01*
X29661905Y-104633333D01*
X29757143Y-104585714D01*
X29900000Y-104585714D01*
X29995239Y-104633333D01*
X30423810Y-105204762D02*
X30519048Y-105252381D01*
X30709524Y-105252381D01*
X30804763Y-105204762D01*
X30852382Y-105109524D01*
X30852382Y-105061905D01*
X30804763Y-104966667D01*
X30709524Y-104919048D01*
X30566667Y-104919048D01*
X30471429Y-104871429D01*
X30423810Y-104776190D01*
X30423810Y-104728571D01*
X30471429Y-104633333D01*
X30566667Y-104585714D01*
X30709524Y-104585714D01*
X30804763Y-104633333D01*
X19038095Y-107452381D02*
X19038095Y-106452381D01*
X19371429Y-107166667D01*
X19704762Y-106452381D01*
X19704762Y-107452381D01*
X20609524Y-107452381D02*
X20609524Y-106928571D01*
X20561905Y-106833333D01*
X20466667Y-106785714D01*
X20276190Y-106785714D01*
X20180952Y-106833333D01*
X20609524Y-107404762D02*
X20514286Y-107452381D01*
X20276190Y-107452381D01*
X20180952Y-107404762D01*
X20133333Y-107309524D01*
X20133333Y-107214286D01*
X20180952Y-107119048D01*
X20276190Y-107071429D01*
X20514286Y-107071429D01*
X20609524Y-107023810D01*
X20942857Y-106785714D02*
X21323809Y-106785714D01*
X21085714Y-106452381D02*
X21085714Y-107309524D01*
X21133333Y-107404762D01*
X21228571Y-107452381D01*
X21323809Y-107452381D01*
X22038096Y-107404762D02*
X21942858Y-107452381D01*
X21752381Y-107452381D01*
X21657143Y-107404762D01*
X21609524Y-107309524D01*
X21609524Y-106928571D01*
X21657143Y-106833333D01*
X21752381Y-106785714D01*
X21942858Y-106785714D01*
X22038096Y-106833333D01*
X22085715Y-106928571D01*
X22085715Y-107023810D01*
X21609524Y-107119048D01*
X22514286Y-107452381D02*
X22514286Y-106785714D01*
X22514286Y-106976190D02*
X22561905Y-106880952D01*
X22609524Y-106833333D01*
X22704762Y-106785714D01*
X22800001Y-106785714D01*
X23133334Y-107452381D02*
X23133334Y-106785714D01*
X23133334Y-106452381D02*
X23085715Y-106500000D01*
X23133334Y-106547619D01*
X23180953Y-106500000D01*
X23133334Y-106452381D01*
X23133334Y-106547619D01*
X24038096Y-107452381D02*
X24038096Y-106928571D01*
X23990477Y-106833333D01*
X23895239Y-106785714D01*
X23704762Y-106785714D01*
X23609524Y-106833333D01*
X24038096Y-107404762D02*
X23942858Y-107452381D01*
X23704762Y-107452381D01*
X23609524Y-107404762D01*
X23561905Y-107309524D01*
X23561905Y-107214286D01*
X23609524Y-107119048D01*
X23704762Y-107071429D01*
X23942858Y-107071429D01*
X24038096Y-107023810D01*
X24657143Y-107452381D02*
X24561905Y-107404762D01*
X24514286Y-107309524D01*
X24514286Y-106452381D01*
X19557142Y-109352381D02*
X19080951Y-109352381D01*
X19080951Y-108352381D01*
X20271428Y-109304762D02*
X20176190Y-109352381D01*
X19985713Y-109352381D01*
X19890475Y-109304762D01*
X19842856Y-109209524D01*
X19842856Y-108828571D01*
X19890475Y-108733333D01*
X19985713Y-108685714D01*
X20176190Y-108685714D01*
X20271428Y-108733333D01*
X20319047Y-108828571D01*
X20319047Y-108923810D01*
X19842856Y-109019048D01*
X21176190Y-108685714D02*
X21176190Y-109495238D01*
X21128571Y-109590476D01*
X21080952Y-109638095D01*
X20985713Y-109685714D01*
X20842856Y-109685714D01*
X20747618Y-109638095D01*
X21176190Y-109304762D02*
X21080952Y-109352381D01*
X20890475Y-109352381D01*
X20795237Y-109304762D01*
X20747618Y-109257143D01*
X20699999Y-109161905D01*
X20699999Y-108876190D01*
X20747618Y-108780952D01*
X20795237Y-108733333D01*
X20890475Y-108685714D01*
X21080952Y-108685714D01*
X21176190Y-108733333D01*
X22033333Y-109304762D02*
X21938095Y-109352381D01*
X21747618Y-109352381D01*
X21652380Y-109304762D01*
X21604761Y-109209524D01*
X21604761Y-108828571D01*
X21652380Y-108733333D01*
X21747618Y-108685714D01*
X21938095Y-108685714D01*
X22033333Y-108733333D01*
X22080952Y-108828571D01*
X22080952Y-108923810D01*
X21604761Y-109019048D01*
X22509523Y-108685714D02*
X22509523Y-109352381D01*
X22509523Y-108780952D02*
X22557142Y-108733333D01*
X22652380Y-108685714D01*
X22795238Y-108685714D01*
X22890476Y-108733333D01*
X22938095Y-108828571D01*
X22938095Y-109352381D01*
X23842857Y-109352381D02*
X23842857Y-108352381D01*
X23842857Y-109304762D02*
X23747619Y-109352381D01*
X23557142Y-109352381D01*
X23461904Y-109304762D01*
X23414285Y-109257143D01*
X23366666Y-109161905D01*
X23366666Y-108876190D01*
X23414285Y-108780952D01*
X23461904Y-108733333D01*
X23557142Y-108685714D01*
X23747619Y-108685714D01*
X23842857Y-108733333D01*
X25223809Y-109352381D02*
X25128571Y-109304762D01*
X25080952Y-109257143D01*
X25033333Y-109161905D01*
X25033333Y-108876190D01*
X25080952Y-108780952D01*
X25128571Y-108733333D01*
X25223809Y-108685714D01*
X25366667Y-108685714D01*
X25461905Y-108733333D01*
X25509524Y-108780952D01*
X25557143Y-108876190D01*
X25557143Y-109161905D01*
X25509524Y-109257143D01*
X25461905Y-109304762D01*
X25366667Y-109352381D01*
X25223809Y-109352381D01*
X25985714Y-108685714D02*
X25985714Y-109352381D01*
X25985714Y-108780952D02*
X26033333Y-108733333D01*
X26128571Y-108685714D01*
X26271429Y-108685714D01*
X26366667Y-108733333D01*
X26414286Y-108828571D01*
X26414286Y-109352381D01*
X27985715Y-108828571D02*
X28128572Y-108876190D01*
X28176191Y-108923810D01*
X28223810Y-109019048D01*
X28223810Y-109161905D01*
X28176191Y-109257143D01*
X28128572Y-109304762D01*
X28033334Y-109352381D01*
X27652381Y-109352381D01*
X27652381Y-108352381D01*
X27985715Y-108352381D01*
X28080953Y-108400000D01*
X28128572Y-108447619D01*
X28176191Y-108542857D01*
X28176191Y-108638095D01*
X28128572Y-108733333D01*
X28080953Y-108780952D01*
X27985715Y-108828571D01*
X27652381Y-108828571D01*
X28795238Y-109352381D02*
X28700000Y-109304762D01*
X28652381Y-109257143D01*
X28604762Y-109161905D01*
X28604762Y-108876190D01*
X28652381Y-108780952D01*
X28700000Y-108733333D01*
X28795238Y-108685714D01*
X28938096Y-108685714D01*
X29033334Y-108733333D01*
X29080953Y-108780952D01*
X29128572Y-108876190D01*
X29128572Y-109161905D01*
X29080953Y-109257143D01*
X29033334Y-109304762D01*
X28938096Y-109352381D01*
X28795238Y-109352381D01*
X29414286Y-108685714D02*
X29795238Y-108685714D01*
X29557143Y-108352381D02*
X29557143Y-109209524D01*
X29604762Y-109304762D01*
X29700000Y-109352381D01*
X29795238Y-109352381D01*
X30128572Y-109352381D02*
X30128572Y-108352381D01*
X30557144Y-109352381D02*
X30557144Y-108828571D01*
X30509525Y-108733333D01*
X30414287Y-108685714D01*
X30271429Y-108685714D01*
X30176191Y-108733333D01*
X30128572Y-108780952D01*
X31747620Y-109304762D02*
X31890477Y-109352381D01*
X32128573Y-109352381D01*
X32223811Y-109304762D01*
X32271430Y-109257143D01*
X32319049Y-109161905D01*
X32319049Y-109066667D01*
X32271430Y-108971429D01*
X32223811Y-108923810D01*
X32128573Y-108876190D01*
X31938096Y-108828571D01*
X31842858Y-108780952D01*
X31795239Y-108733333D01*
X31747620Y-108638095D01*
X31747620Y-108542857D01*
X31795239Y-108447619D01*
X31842858Y-108400000D01*
X31938096Y-108352381D01*
X32176192Y-108352381D01*
X32319049Y-108400000D01*
X32747620Y-109352381D02*
X32747620Y-108685714D01*
X32747620Y-108352381D02*
X32700001Y-108400000D01*
X32747620Y-108447619D01*
X32795239Y-108400000D01*
X32747620Y-108352381D01*
X32747620Y-108447619D01*
X33652382Y-109352381D02*
X33652382Y-108352381D01*
X33652382Y-109304762D02*
X33557144Y-109352381D01*
X33366667Y-109352381D01*
X33271429Y-109304762D01*
X33223810Y-109257143D01*
X33176191Y-109161905D01*
X33176191Y-108876190D01*
X33223810Y-108780952D01*
X33271429Y-108733333D01*
X33366667Y-108685714D01*
X33557144Y-108685714D01*
X33652382Y-108733333D01*
X34509525Y-109304762D02*
X34414287Y-109352381D01*
X34223810Y-109352381D01*
X34128572Y-109304762D01*
X34080953Y-109209524D01*
X34080953Y-108828571D01*
X34128572Y-108733333D01*
X34223810Y-108685714D01*
X34414287Y-108685714D01*
X34509525Y-108733333D01*
X34557144Y-108828571D01*
X34557144Y-108923810D01*
X34080953Y-109019048D01*
X34938096Y-109304762D02*
X35033334Y-109352381D01*
X35223810Y-109352381D01*
X35319049Y-109304762D01*
X35366668Y-109209524D01*
X35366668Y-109161905D01*
X35319049Y-109066667D01*
X35223810Y-109019048D01*
X35080953Y-109019048D01*
X34985715Y-108971429D01*
X34938096Y-108876190D01*
X34938096Y-108828571D01*
X34985715Y-108733333D01*
X35080953Y-108685714D01*
X35223810Y-108685714D01*
X35319049Y-108733333D01*
X19066666Y-111352381D02*
X19066666Y-110352381D01*
X19400000Y-111066667D01*
X19733333Y-110352381D01*
X19733333Y-111352381D01*
X20638095Y-111352381D02*
X20638095Y-110828571D01*
X20590476Y-110733333D01*
X20495238Y-110685714D01*
X20304761Y-110685714D01*
X20209523Y-110733333D01*
X20638095Y-111304762D02*
X20542857Y-111352381D01*
X20304761Y-111352381D01*
X20209523Y-111304762D01*
X20161904Y-111209524D01*
X20161904Y-111114286D01*
X20209523Y-111019048D01*
X20304761Y-110971429D01*
X20542857Y-110971429D01*
X20638095Y-110923810D01*
X21066666Y-111304762D02*
X21161904Y-111352381D01*
X21352380Y-111352381D01*
X21447619Y-111304762D01*
X21495238Y-111209524D01*
X21495238Y-111161905D01*
X21447619Y-111066667D01*
X21352380Y-111019048D01*
X21209523Y-111019048D01*
X21114285Y-110971429D01*
X21066666Y-110876190D01*
X21066666Y-110828571D01*
X21114285Y-110733333D01*
X21209523Y-110685714D01*
X21352380Y-110685714D01*
X21447619Y-110733333D01*
X21923809Y-111352381D02*
X21923809Y-110352381D01*
X22019047Y-110971429D02*
X22304762Y-111352381D01*
X22304762Y-110685714D02*
X21923809Y-111066667D01*
X23638095Y-111352381D02*
X23542857Y-111304762D01*
X23495238Y-111257143D01*
X23447619Y-111161905D01*
X23447619Y-110876190D01*
X23495238Y-110780952D01*
X23542857Y-110733333D01*
X23638095Y-110685714D01*
X23780953Y-110685714D01*
X23876191Y-110733333D01*
X23923810Y-110780952D01*
X23971429Y-110876190D01*
X23971429Y-111161905D01*
X23923810Y-111257143D01*
X23876191Y-111304762D01*
X23780953Y-111352381D01*
X23638095Y-111352381D01*
X24400000Y-110685714D02*
X24400000Y-111352381D01*
X24400000Y-110780952D02*
X24447619Y-110733333D01*
X24542857Y-110685714D01*
X24685715Y-110685714D01*
X24780953Y-110733333D01*
X24828572Y-110828571D01*
X24828572Y-111352381D01*
X26400001Y-110828571D02*
X26542858Y-110876190D01*
X26590477Y-110923810D01*
X26638096Y-111019048D01*
X26638096Y-111161905D01*
X26590477Y-111257143D01*
X26542858Y-111304762D01*
X26447620Y-111352381D01*
X26066667Y-111352381D01*
X26066667Y-110352381D01*
X26400001Y-110352381D01*
X26495239Y-110400000D01*
X26542858Y-110447619D01*
X26590477Y-110542857D01*
X26590477Y-110638095D01*
X26542858Y-110733333D01*
X26495239Y-110780952D01*
X26400001Y-110828571D01*
X26066667Y-110828571D01*
X27209524Y-111352381D02*
X27114286Y-111304762D01*
X27066667Y-111257143D01*
X27019048Y-111161905D01*
X27019048Y-110876190D01*
X27066667Y-110780952D01*
X27114286Y-110733333D01*
X27209524Y-110685714D01*
X27352382Y-110685714D01*
X27447620Y-110733333D01*
X27495239Y-110780952D01*
X27542858Y-110876190D01*
X27542858Y-111161905D01*
X27495239Y-111257143D01*
X27447620Y-111304762D01*
X27352382Y-111352381D01*
X27209524Y-111352381D01*
X27828572Y-110685714D02*
X28209524Y-110685714D01*
X27971429Y-110352381D02*
X27971429Y-111209524D01*
X28019048Y-111304762D01*
X28114286Y-111352381D01*
X28209524Y-111352381D01*
X28542858Y-111352381D02*
X28542858Y-110352381D01*
X28971430Y-111352381D02*
X28971430Y-110828571D01*
X28923811Y-110733333D01*
X28828573Y-110685714D01*
X28685715Y-110685714D01*
X28590477Y-110733333D01*
X28542858Y-110780952D01*
X30161906Y-111304762D02*
X30304763Y-111352381D01*
X30542859Y-111352381D01*
X30638097Y-111304762D01*
X30685716Y-111257143D01*
X30733335Y-111161905D01*
X30733335Y-111066667D01*
X30685716Y-110971429D01*
X30638097Y-110923810D01*
X30542859Y-110876190D01*
X30352382Y-110828571D01*
X30257144Y-110780952D01*
X30209525Y-110733333D01*
X30161906Y-110638095D01*
X30161906Y-110542857D01*
X30209525Y-110447619D01*
X30257144Y-110400000D01*
X30352382Y-110352381D01*
X30590478Y-110352381D01*
X30733335Y-110400000D01*
X31161906Y-111352381D02*
X31161906Y-110685714D01*
X31161906Y-110352381D02*
X31114287Y-110400000D01*
X31161906Y-110447619D01*
X31209525Y-110400000D01*
X31161906Y-110352381D01*
X31161906Y-110447619D01*
X32066668Y-111352381D02*
X32066668Y-110352381D01*
X32066668Y-111304762D02*
X31971430Y-111352381D01*
X31780953Y-111352381D01*
X31685715Y-111304762D01*
X31638096Y-111257143D01*
X31590477Y-111161905D01*
X31590477Y-110876190D01*
X31638096Y-110780952D01*
X31685715Y-110733333D01*
X31780953Y-110685714D01*
X31971430Y-110685714D01*
X32066668Y-110733333D01*
X32923811Y-111304762D02*
X32828573Y-111352381D01*
X32638096Y-111352381D01*
X32542858Y-111304762D01*
X32495239Y-111209524D01*
X32495239Y-110828571D01*
X32542858Y-110733333D01*
X32638096Y-110685714D01*
X32828573Y-110685714D01*
X32923811Y-110733333D01*
X32971430Y-110828571D01*
X32971430Y-110923810D01*
X32495239Y-111019048D01*
X33352382Y-111304762D02*
X33447620Y-111352381D01*
X33638096Y-111352381D01*
X33733335Y-111304762D01*
X33780954Y-111209524D01*
X33780954Y-111161905D01*
X33733335Y-111066667D01*
X33638096Y-111019048D01*
X33495239Y-111019048D01*
X33400001Y-110971429D01*
X33352382Y-110876190D01*
X33352382Y-110828571D01*
X33400001Y-110733333D01*
X33495239Y-110685714D01*
X33638096Y-110685714D01*
X33733335Y-110733333D01*
X19066666Y-113252381D02*
X19066666Y-112252381D01*
X19542856Y-113252381D02*
X19542856Y-112585714D01*
X19542856Y-112680952D02*
X19590475Y-112633333D01*
X19685713Y-112585714D01*
X19828571Y-112585714D01*
X19923809Y-112633333D01*
X19971428Y-112728571D01*
X19971428Y-113252381D01*
X19971428Y-112728571D02*
X20019047Y-112633333D01*
X20114285Y-112585714D01*
X20257142Y-112585714D01*
X20352380Y-112633333D01*
X20399999Y-112728571D01*
X20399999Y-113252381D01*
X20876189Y-112585714D02*
X20876189Y-113585714D01*
X20876189Y-112633333D02*
X20971427Y-112585714D01*
X21161904Y-112585714D01*
X21257142Y-112633333D01*
X21304761Y-112680952D01*
X21352380Y-112776190D01*
X21352380Y-113061905D01*
X21304761Y-113157143D01*
X21257142Y-113204762D01*
X21161904Y-113252381D01*
X20971427Y-113252381D01*
X20876189Y-113204762D01*
X22161904Y-113204762D02*
X22066666Y-113252381D01*
X21876189Y-113252381D01*
X21780951Y-113204762D01*
X21733332Y-113109524D01*
X21733332Y-112728571D01*
X21780951Y-112633333D01*
X21876189Y-112585714D01*
X22066666Y-112585714D01*
X22161904Y-112633333D01*
X22209523Y-112728571D01*
X22209523Y-112823810D01*
X21733332Y-112919048D01*
X23066666Y-113252381D02*
X23066666Y-112252381D01*
X23066666Y-113204762D02*
X22971428Y-113252381D01*
X22780951Y-113252381D01*
X22685713Y-113204762D01*
X22638094Y-113157143D01*
X22590475Y-113061905D01*
X22590475Y-112776190D01*
X22638094Y-112680952D01*
X22685713Y-112633333D01*
X22780951Y-112585714D01*
X22971428Y-112585714D01*
X23066666Y-112633333D01*
X23923809Y-113204762D02*
X23828571Y-113252381D01*
X23638094Y-113252381D01*
X23542856Y-113204762D01*
X23495237Y-113109524D01*
X23495237Y-112728571D01*
X23542856Y-112633333D01*
X23638094Y-112585714D01*
X23828571Y-112585714D01*
X23923809Y-112633333D01*
X23971428Y-112728571D01*
X23971428Y-112823810D01*
X23495237Y-112919048D01*
X24399999Y-112585714D02*
X24399999Y-113252381D01*
X24399999Y-112680952D02*
X24447618Y-112633333D01*
X24542856Y-112585714D01*
X24685714Y-112585714D01*
X24780952Y-112633333D01*
X24828571Y-112728571D01*
X24828571Y-113252381D01*
X25733333Y-113204762D02*
X25638095Y-113252381D01*
X25447618Y-113252381D01*
X25352380Y-113204762D01*
X25304761Y-113157143D01*
X25257142Y-113061905D01*
X25257142Y-112776190D01*
X25304761Y-112680952D01*
X25352380Y-112633333D01*
X25447618Y-112585714D01*
X25638095Y-112585714D01*
X25733333Y-112633333D01*
X26542857Y-113204762D02*
X26447619Y-113252381D01*
X26257142Y-113252381D01*
X26161904Y-113204762D01*
X26114285Y-113109524D01*
X26114285Y-112728571D01*
X26161904Y-112633333D01*
X26257142Y-112585714D01*
X26447619Y-112585714D01*
X26542857Y-112633333D01*
X26590476Y-112728571D01*
X26590476Y-112823810D01*
X26114285Y-112919048D01*
X28352381Y-113157143D02*
X28304762Y-113204762D01*
X28161905Y-113252381D01*
X28066667Y-113252381D01*
X27923809Y-113204762D01*
X27828571Y-113109524D01*
X27780952Y-113014286D01*
X27733333Y-112823810D01*
X27733333Y-112680952D01*
X27780952Y-112490476D01*
X27828571Y-112395238D01*
X27923809Y-112300000D01*
X28066667Y-112252381D01*
X28161905Y-112252381D01*
X28304762Y-112300000D01*
X28352381Y-112347619D01*
X28923809Y-113252381D02*
X28828571Y-113204762D01*
X28780952Y-113157143D01*
X28733333Y-113061905D01*
X28733333Y-112776190D01*
X28780952Y-112680952D01*
X28828571Y-112633333D01*
X28923809Y-112585714D01*
X29066667Y-112585714D01*
X29161905Y-112633333D01*
X29209524Y-112680952D01*
X29257143Y-112776190D01*
X29257143Y-113061905D01*
X29209524Y-113157143D01*
X29161905Y-113204762D01*
X29066667Y-113252381D01*
X28923809Y-113252381D01*
X29685714Y-112585714D02*
X29685714Y-113252381D01*
X29685714Y-112680952D02*
X29733333Y-112633333D01*
X29828571Y-112585714D01*
X29971429Y-112585714D01*
X30066667Y-112633333D01*
X30114286Y-112728571D01*
X30114286Y-113252381D01*
X30447619Y-112585714D02*
X30828571Y-112585714D01*
X30590476Y-112252381D02*
X30590476Y-113109524D01*
X30638095Y-113204762D01*
X30733333Y-113252381D01*
X30828571Y-113252381D01*
X31161905Y-113252381D02*
X31161905Y-112585714D01*
X31161905Y-112776190D02*
X31209524Y-112680952D01*
X31257143Y-112633333D01*
X31352381Y-112585714D01*
X31447620Y-112585714D01*
X31923810Y-113252381D02*
X31828572Y-113204762D01*
X31780953Y-113157143D01*
X31733334Y-113061905D01*
X31733334Y-112776190D01*
X31780953Y-112680952D01*
X31828572Y-112633333D01*
X31923810Y-112585714D01*
X32066668Y-112585714D01*
X32161906Y-112633333D01*
X32209525Y-112680952D01*
X32257144Y-112776190D01*
X32257144Y-113061905D01*
X32209525Y-113157143D01*
X32161906Y-113204762D01*
X32066668Y-113252381D01*
X31923810Y-113252381D01*
X32828572Y-113252381D02*
X32733334Y-113204762D01*
X32685715Y-113109524D01*
X32685715Y-112252381D01*
X19638095Y-115057143D02*
X19590476Y-115104762D01*
X19447619Y-115152381D01*
X19352381Y-115152381D01*
X19209523Y-115104762D01*
X19114285Y-115009524D01*
X19066666Y-114914286D01*
X19019047Y-114723810D01*
X19019047Y-114580952D01*
X19066666Y-114390476D01*
X19114285Y-114295238D01*
X19209523Y-114200000D01*
X19352381Y-114152381D01*
X19447619Y-114152381D01*
X19590476Y-114200000D01*
X19638095Y-114247619D01*
X20209523Y-115152381D02*
X20114285Y-115104762D01*
X20066666Y-115057143D01*
X20019047Y-114961905D01*
X20019047Y-114676190D01*
X20066666Y-114580952D01*
X20114285Y-114533333D01*
X20209523Y-114485714D01*
X20352381Y-114485714D01*
X20447619Y-114533333D01*
X20495238Y-114580952D01*
X20542857Y-114676190D01*
X20542857Y-114961905D01*
X20495238Y-115057143D01*
X20447619Y-115104762D01*
X20352381Y-115152381D01*
X20209523Y-115152381D01*
X20971428Y-114485714D02*
X20971428Y-115485714D01*
X20971428Y-114533333D02*
X21066666Y-114485714D01*
X21257143Y-114485714D01*
X21352381Y-114533333D01*
X21400000Y-114580952D01*
X21447619Y-114676190D01*
X21447619Y-114961905D01*
X21400000Y-115057143D01*
X21352381Y-115104762D01*
X21257143Y-115152381D01*
X21066666Y-115152381D01*
X20971428Y-115104762D01*
X21876190Y-114485714D02*
X21876190Y-115485714D01*
X21876190Y-114533333D02*
X21971428Y-114485714D01*
X22161905Y-114485714D01*
X22257143Y-114533333D01*
X22304762Y-114580952D01*
X22352381Y-114676190D01*
X22352381Y-114961905D01*
X22304762Y-115057143D01*
X22257143Y-115104762D01*
X22161905Y-115152381D01*
X21971428Y-115152381D01*
X21876190Y-115104762D01*
X23161905Y-115104762D02*
X23066667Y-115152381D01*
X22876190Y-115152381D01*
X22780952Y-115104762D01*
X22733333Y-115009524D01*
X22733333Y-114628571D01*
X22780952Y-114533333D01*
X22876190Y-114485714D01*
X23066667Y-114485714D01*
X23161905Y-114533333D01*
X23209524Y-114628571D01*
X23209524Y-114723810D01*
X22733333Y-114819048D01*
X23638095Y-115152381D02*
X23638095Y-114485714D01*
X23638095Y-114676190D02*
X23685714Y-114580952D01*
X23733333Y-114533333D01*
X23828571Y-114485714D01*
X23923810Y-114485714D01*
X24876191Y-114152381D02*
X25447620Y-114152381D01*
X25161905Y-115152381D02*
X25161905Y-114152381D01*
X25780953Y-115152381D02*
X25780953Y-114152381D01*
X26209525Y-115152381D02*
X26209525Y-114628571D01*
X26161906Y-114533333D01*
X26066668Y-114485714D01*
X25923810Y-114485714D01*
X25828572Y-114533333D01*
X25780953Y-114580952D01*
X26685715Y-115152381D02*
X26685715Y-114485714D01*
X26685715Y-114152381D02*
X26638096Y-114200000D01*
X26685715Y-114247619D01*
X26733334Y-114200000D01*
X26685715Y-114152381D01*
X26685715Y-114247619D01*
X27590477Y-115104762D02*
X27495239Y-115152381D01*
X27304762Y-115152381D01*
X27209524Y-115104762D01*
X27161905Y-115057143D01*
X27114286Y-114961905D01*
X27114286Y-114676190D01*
X27161905Y-114580952D01*
X27209524Y-114533333D01*
X27304762Y-114485714D01*
X27495239Y-114485714D01*
X27590477Y-114533333D01*
X28019048Y-115152381D02*
X28019048Y-114152381D01*
X28114286Y-114771429D02*
X28400001Y-115152381D01*
X28400001Y-114485714D02*
X28019048Y-114866667D01*
X28828572Y-114485714D02*
X28828572Y-115152381D01*
X28828572Y-114580952D02*
X28876191Y-114533333D01*
X28971429Y-114485714D01*
X29114287Y-114485714D01*
X29209525Y-114533333D01*
X29257144Y-114628571D01*
X29257144Y-115152381D01*
X30114287Y-115104762D02*
X30019049Y-115152381D01*
X29828572Y-115152381D01*
X29733334Y-115104762D01*
X29685715Y-115009524D01*
X29685715Y-114628571D01*
X29733334Y-114533333D01*
X29828572Y-114485714D01*
X30019049Y-114485714D01*
X30114287Y-114533333D01*
X30161906Y-114628571D01*
X30161906Y-114723810D01*
X29685715Y-114819048D01*
X30542858Y-115104762D02*
X30638096Y-115152381D01*
X30828572Y-115152381D01*
X30923811Y-115104762D01*
X30971430Y-115009524D01*
X30971430Y-114961905D01*
X30923811Y-114866667D01*
X30828572Y-114819048D01*
X30685715Y-114819048D01*
X30590477Y-114771429D01*
X30542858Y-114676190D01*
X30542858Y-114628571D01*
X30590477Y-114533333D01*
X30685715Y-114485714D01*
X30828572Y-114485714D01*
X30923811Y-114533333D01*
X31352382Y-115104762D02*
X31447620Y-115152381D01*
X31638096Y-115152381D01*
X31733335Y-115104762D01*
X31780954Y-115009524D01*
X31780954Y-114961905D01*
X31733335Y-114866667D01*
X31638096Y-114819048D01*
X31495239Y-114819048D01*
X31400001Y-114771429D01*
X31352382Y-114676190D01*
X31352382Y-114628571D01*
X31400001Y-114533333D01*
X31495239Y-114485714D01*
X31638096Y-114485714D01*
X31733335Y-114533333D01*
X19457144Y-116828571D02*
X19123810Y-116828571D01*
X19123810Y-117352381D02*
X19123810Y-116352381D01*
X19600001Y-116352381D01*
X19980953Y-117352381D02*
X19980953Y-116685714D01*
X19980953Y-116352381D02*
X19933334Y-116400000D01*
X19980953Y-116447619D01*
X20028572Y-116400000D01*
X19980953Y-116352381D01*
X19980953Y-116447619D01*
X20457143Y-116685714D02*
X20457143Y-117352381D01*
X20457143Y-116780952D02*
X20504762Y-116733333D01*
X20600000Y-116685714D01*
X20742858Y-116685714D01*
X20838096Y-116733333D01*
X20885715Y-116828571D01*
X20885715Y-117352381D01*
X21361905Y-117352381D02*
X21361905Y-116685714D01*
X21361905Y-116352381D02*
X21314286Y-116400000D01*
X21361905Y-116447619D01*
X21409524Y-116400000D01*
X21361905Y-116352381D01*
X21361905Y-116447619D01*
X21790476Y-117304762D02*
X21885714Y-117352381D01*
X22076190Y-117352381D01*
X22171429Y-117304762D01*
X22219048Y-117209524D01*
X22219048Y-117161905D01*
X22171429Y-117066667D01*
X22076190Y-117019048D01*
X21933333Y-117019048D01*
X21838095Y-116971429D01*
X21790476Y-116876190D01*
X21790476Y-116828571D01*
X21838095Y-116733333D01*
X21933333Y-116685714D01*
X22076190Y-116685714D01*
X22171429Y-116733333D01*
X22647619Y-117352381D02*
X22647619Y-116352381D01*
X23076191Y-117352381D02*
X23076191Y-116828571D01*
X23028572Y-116733333D01*
X22933334Y-116685714D01*
X22790476Y-116685714D01*
X22695238Y-116733333D01*
X22647619Y-116780952D01*
X19390477Y-118728571D02*
X19533334Y-118776190D01*
X19580953Y-118823810D01*
X19628572Y-118919048D01*
X19628572Y-119061905D01*
X19580953Y-119157143D01*
X19533334Y-119204762D01*
X19438096Y-119252381D01*
X19057143Y-119252381D01*
X19057143Y-118252381D01*
X19390477Y-118252381D01*
X19485715Y-118300000D01*
X19533334Y-118347619D01*
X19580953Y-118442857D01*
X19580953Y-118538095D01*
X19533334Y-118633333D01*
X19485715Y-118680952D01*
X19390477Y-118728571D01*
X19057143Y-118728571D01*
X20390477Y-118728571D02*
X20533334Y-118776190D01*
X20580953Y-118823810D01*
X20628572Y-118919048D01*
X20628572Y-119061905D01*
X20580953Y-119157143D01*
X20533334Y-119204762D01*
X20438096Y-119252381D01*
X20057143Y-119252381D01*
X20057143Y-118252381D01*
X20390477Y-118252381D01*
X20485715Y-118300000D01*
X20533334Y-118347619D01*
X20580953Y-118442857D01*
X20580953Y-118538095D01*
X20533334Y-118633333D01*
X20485715Y-118680952D01*
X20390477Y-118728571D01*
X20057143Y-118728571D01*
X20914286Y-118252381D02*
X21485715Y-118252381D01*
X21200000Y-119252381D02*
X21200000Y-118252381D01*
X19461905Y-120828571D02*
X19128571Y-120828571D01*
X19128571Y-121352381D02*
X19128571Y-120352381D01*
X19604762Y-120352381D01*
X20319048Y-120828571D02*
X20461905Y-120876190D01*
X20509524Y-120923810D01*
X20557143Y-121019048D01*
X20557143Y-121161905D01*
X20509524Y-121257143D01*
X20461905Y-121304762D01*
X20366667Y-121352381D01*
X19985714Y-121352381D01*
X19985714Y-120352381D01*
X20319048Y-120352381D01*
X20414286Y-120400000D01*
X20461905Y-120447619D01*
X20509524Y-120542857D01*
X20509524Y-120638095D01*
X20461905Y-120733333D01*
X20414286Y-120780952D01*
X20319048Y-120828571D01*
X19985714Y-120828571D01*
X20842857Y-120352381D02*
X21414286Y-120352381D01*
X21128571Y-121352381D02*
X21128571Y-120352381D01*
X18938094Y-123004762D02*
X19080951Y-123052381D01*
X19319047Y-123052381D01*
X19414285Y-123004762D01*
X19461904Y-122957143D01*
X19509523Y-122861905D01*
X19509523Y-122766667D01*
X19461904Y-122671429D01*
X19414285Y-122623810D01*
X19319047Y-122576190D01*
X19128570Y-122528571D01*
X19033332Y-122480952D01*
X18985713Y-122433333D01*
X18938094Y-122338095D01*
X18938094Y-122242857D01*
X18985713Y-122147619D01*
X19033332Y-122100000D01*
X19128570Y-122052381D01*
X19366666Y-122052381D01*
X19509523Y-122100000D01*
X20080951Y-123052381D02*
X19985713Y-123004762D01*
X19938094Y-122957143D01*
X19890475Y-122861905D01*
X19890475Y-122576190D01*
X19938094Y-122480952D01*
X19985713Y-122433333D01*
X20080951Y-122385714D01*
X20223809Y-122385714D01*
X20319047Y-122433333D01*
X20366666Y-122480952D01*
X20414285Y-122576190D01*
X20414285Y-122861905D01*
X20366666Y-122957143D01*
X20319047Y-123004762D01*
X20223809Y-123052381D01*
X20080951Y-123052381D01*
X20985713Y-123052381D02*
X20890475Y-123004762D01*
X20842856Y-122909524D01*
X20842856Y-122052381D01*
X21795238Y-123052381D02*
X21795238Y-122052381D01*
X21795238Y-123004762D02*
X21700000Y-123052381D01*
X21509523Y-123052381D01*
X21414285Y-123004762D01*
X21366666Y-122957143D01*
X21319047Y-122861905D01*
X21319047Y-122576190D01*
X21366666Y-122480952D01*
X21414285Y-122433333D01*
X21509523Y-122385714D01*
X21700000Y-122385714D01*
X21795238Y-122433333D01*
X22652381Y-123004762D02*
X22557143Y-123052381D01*
X22366666Y-123052381D01*
X22271428Y-123004762D01*
X22223809Y-122909524D01*
X22223809Y-122528571D01*
X22271428Y-122433333D01*
X22366666Y-122385714D01*
X22557143Y-122385714D01*
X22652381Y-122433333D01*
X22700000Y-122528571D01*
X22700000Y-122623810D01*
X22223809Y-122719048D01*
X23128571Y-123052381D02*
X23128571Y-122385714D01*
X23128571Y-122576190D02*
X23176190Y-122480952D01*
X23223809Y-122433333D01*
X23319047Y-122385714D01*
X23414286Y-122385714D01*
X24509524Y-123052381D02*
X24509524Y-122052381D01*
X24842858Y-122766667D01*
X25176191Y-122052381D01*
X25176191Y-123052381D01*
X26080953Y-123052381D02*
X26080953Y-122528571D01*
X26033334Y-122433333D01*
X25938096Y-122385714D01*
X25747619Y-122385714D01*
X25652381Y-122433333D01*
X26080953Y-123004762D02*
X25985715Y-123052381D01*
X25747619Y-123052381D01*
X25652381Y-123004762D01*
X25604762Y-122909524D01*
X25604762Y-122814286D01*
X25652381Y-122719048D01*
X25747619Y-122671429D01*
X25985715Y-122671429D01*
X26080953Y-122623810D01*
X26509524Y-123004762D02*
X26604762Y-123052381D01*
X26795238Y-123052381D01*
X26890477Y-123004762D01*
X26938096Y-122909524D01*
X26938096Y-122861905D01*
X26890477Y-122766667D01*
X26795238Y-122719048D01*
X26652381Y-122719048D01*
X26557143Y-122671429D01*
X26509524Y-122576190D01*
X26509524Y-122528571D01*
X26557143Y-122433333D01*
X26652381Y-122385714D01*
X26795238Y-122385714D01*
X26890477Y-122433333D01*
X27366667Y-123052381D02*
X27366667Y-122052381D01*
X27461905Y-122671429D02*
X27747620Y-123052381D01*
X27747620Y-122385714D02*
X27366667Y-122766667D01*
X29509525Y-122957143D02*
X29461906Y-123004762D01*
X29319049Y-123052381D01*
X29223811Y-123052381D01*
X29080953Y-123004762D01*
X28985715Y-122909524D01*
X28938096Y-122814286D01*
X28890477Y-122623810D01*
X28890477Y-122480952D01*
X28938096Y-122290476D01*
X28985715Y-122195238D01*
X29080953Y-122100000D01*
X29223811Y-122052381D01*
X29319049Y-122052381D01*
X29461906Y-122100000D01*
X29509525Y-122147619D01*
X30080953Y-123052381D02*
X29985715Y-123004762D01*
X29938096Y-122957143D01*
X29890477Y-122861905D01*
X29890477Y-122576190D01*
X29938096Y-122480952D01*
X29985715Y-122433333D01*
X30080953Y-122385714D01*
X30223811Y-122385714D01*
X30319049Y-122433333D01*
X30366668Y-122480952D01*
X30414287Y-122576190D01*
X30414287Y-122861905D01*
X30366668Y-122957143D01*
X30319049Y-123004762D01*
X30223811Y-123052381D01*
X30080953Y-123052381D01*
X30985715Y-123052381D02*
X30890477Y-123004762D01*
X30842858Y-122909524D01*
X30842858Y-122052381D01*
X31509525Y-123052381D02*
X31414287Y-123004762D01*
X31366668Y-122957143D01*
X31319049Y-122861905D01*
X31319049Y-122576190D01*
X31366668Y-122480952D01*
X31414287Y-122433333D01*
X31509525Y-122385714D01*
X31652383Y-122385714D01*
X31747621Y-122433333D01*
X31795240Y-122480952D01*
X31842859Y-122576190D01*
X31842859Y-122861905D01*
X31795240Y-122957143D01*
X31747621Y-123004762D01*
X31652383Y-123052381D01*
X31509525Y-123052381D01*
X32271430Y-123052381D02*
X32271430Y-122385714D01*
X32271430Y-122576190D02*
X32319049Y-122480952D01*
X32366668Y-122433333D01*
X32461906Y-122385714D01*
X32557145Y-122385714D01*
X39112380Y-86257619D02*
X39159999Y-86210000D01*
X39255237Y-86162381D01*
X39493333Y-86162381D01*
X39588571Y-86210000D01*
X39636190Y-86257619D01*
X39683809Y-86352857D01*
X39683809Y-86448095D01*
X39636190Y-86590952D01*
X39064761Y-87162381D01*
X39683809Y-87162381D01*
X41350476Y-87162381D02*
X40874285Y-87162381D01*
X40874285Y-86162381D01*
X42112381Y-87162381D02*
X42112381Y-86638571D01*
X42064762Y-86543333D01*
X41969524Y-86495714D01*
X41779047Y-86495714D01*
X41683809Y-86543333D01*
X42112381Y-87114762D02*
X42017143Y-87162381D01*
X41779047Y-87162381D01*
X41683809Y-87114762D01*
X41636190Y-87019524D01*
X41636190Y-86924286D01*
X41683809Y-86829048D01*
X41779047Y-86781429D01*
X42017143Y-86781429D01*
X42112381Y-86733810D01*
X42493333Y-86495714D02*
X42731428Y-87162381D01*
X42969524Y-86495714D02*
X42731428Y-87162381D01*
X42636190Y-87400476D01*
X42588571Y-87448095D01*
X42493333Y-87495714D01*
X43731429Y-87114762D02*
X43636191Y-87162381D01*
X43445714Y-87162381D01*
X43350476Y-87114762D01*
X43302857Y-87019524D01*
X43302857Y-86638571D01*
X43350476Y-86543333D01*
X43445714Y-86495714D01*
X43636191Y-86495714D01*
X43731429Y-86543333D01*
X43779048Y-86638571D01*
X43779048Y-86733810D01*
X43302857Y-86829048D01*
X44207619Y-87162381D02*
X44207619Y-86495714D01*
X44207619Y-86686190D02*
X44255238Y-86590952D01*
X44302857Y-86543333D01*
X44398095Y-86495714D01*
X44493334Y-86495714D01*
X44779048Y-87114762D02*
X44874286Y-87162381D01*
X45064762Y-87162381D01*
X45160001Y-87114762D01*
X45207620Y-87019524D01*
X45207620Y-86971905D01*
X45160001Y-86876667D01*
X45064762Y-86829048D01*
X44921905Y-86829048D01*
X44826667Y-86781429D01*
X44779048Y-86686190D01*
X44779048Y-86638571D01*
X44826667Y-86543333D01*
X44921905Y-86495714D01*
X45064762Y-86495714D01*
X45160001Y-86543333D01*
X39552381Y-88680952D02*
X39457143Y-88633333D01*
X39409524Y-88585714D01*
X39361905Y-88490476D01*
X39361905Y-88442857D01*
X39409524Y-88347619D01*
X39457143Y-88300000D01*
X39552381Y-88252381D01*
X39742858Y-88252381D01*
X39838096Y-88300000D01*
X39885715Y-88347619D01*
X39933334Y-88442857D01*
X39933334Y-88490476D01*
X39885715Y-88585714D01*
X39838096Y-88633333D01*
X39742858Y-88680952D01*
X39552381Y-88680952D01*
X39457143Y-88728571D01*
X39409524Y-88776190D01*
X39361905Y-88871429D01*
X39361905Y-89061905D01*
X39409524Y-89157143D01*
X39457143Y-89204762D01*
X39552381Y-89252381D01*
X39742858Y-89252381D01*
X39838096Y-89204762D01*
X39885715Y-89157143D01*
X39933334Y-89061905D01*
X39933334Y-88871429D01*
X39885715Y-88776190D01*
X39838096Y-88728571D01*
X39742858Y-88680952D01*
X41123810Y-89252381D02*
X41123810Y-88585714D01*
X41123810Y-88680952D02*
X41171429Y-88633333D01*
X41266667Y-88585714D01*
X41409525Y-88585714D01*
X41504763Y-88633333D01*
X41552382Y-88728571D01*
X41552382Y-89252381D01*
X41552382Y-88728571D02*
X41600001Y-88633333D01*
X41695239Y-88585714D01*
X41838096Y-88585714D01*
X41933334Y-88633333D01*
X41980953Y-88728571D01*
X41980953Y-89252381D01*
X42457143Y-89252381D02*
X42457143Y-88585714D01*
X42457143Y-88252381D02*
X42409524Y-88300000D01*
X42457143Y-88347619D01*
X42504762Y-88300000D01*
X42457143Y-88252381D01*
X42457143Y-88347619D01*
X43076190Y-89252381D02*
X42980952Y-89204762D01*
X42933333Y-89109524D01*
X42933333Y-88252381D01*
X43409524Y-89204762D02*
X43504762Y-89252381D01*
X43695238Y-89252381D01*
X43790477Y-89204762D01*
X43838096Y-89109524D01*
X43838096Y-89061905D01*
X43790477Y-88966667D01*
X43695238Y-88919048D01*
X43552381Y-88919048D01*
X43457143Y-88871429D01*
X43409524Y-88776190D01*
X43409524Y-88728571D01*
X43457143Y-88633333D01*
X43552381Y-88585714D01*
X43695238Y-88585714D01*
X43790477Y-88633333D01*
X39552381Y-90680952D02*
X39457143Y-90633333D01*
X39409524Y-90585714D01*
X39361905Y-90490476D01*
X39361905Y-90442857D01*
X39409524Y-90347619D01*
X39457143Y-90300000D01*
X39552381Y-90252381D01*
X39742858Y-90252381D01*
X39838096Y-90300000D01*
X39885715Y-90347619D01*
X39933334Y-90442857D01*
X39933334Y-90490476D01*
X39885715Y-90585714D01*
X39838096Y-90633333D01*
X39742858Y-90680952D01*
X39552381Y-90680952D01*
X39457143Y-90728571D01*
X39409524Y-90776190D01*
X39361905Y-90871429D01*
X39361905Y-91061905D01*
X39409524Y-91157143D01*
X39457143Y-91204762D01*
X39552381Y-91252381D01*
X39742858Y-91252381D01*
X39838096Y-91204762D01*
X39885715Y-91157143D01*
X39933334Y-91061905D01*
X39933334Y-90871429D01*
X39885715Y-90776190D01*
X39838096Y-90728571D01*
X39742858Y-90680952D01*
X41123810Y-91252381D02*
X41123810Y-90585714D01*
X41123810Y-90680952D02*
X41171429Y-90633333D01*
X41266667Y-90585714D01*
X41409525Y-90585714D01*
X41504763Y-90633333D01*
X41552382Y-90728571D01*
X41552382Y-91252381D01*
X41552382Y-90728571D02*
X41600001Y-90633333D01*
X41695239Y-90585714D01*
X41838096Y-90585714D01*
X41933334Y-90633333D01*
X41980953Y-90728571D01*
X41980953Y-91252381D01*
X42457143Y-91252381D02*
X42457143Y-90585714D01*
X42457143Y-90252381D02*
X42409524Y-90300000D01*
X42457143Y-90347619D01*
X42504762Y-90300000D01*
X42457143Y-90252381D01*
X42457143Y-90347619D01*
X43076190Y-91252381D02*
X42980952Y-91204762D01*
X42933333Y-91109524D01*
X42933333Y-90252381D01*
X43409524Y-91204762D02*
X43504762Y-91252381D01*
X43695238Y-91252381D01*
X43790477Y-91204762D01*
X43838096Y-91109524D01*
X43838096Y-91061905D01*
X43790477Y-90966667D01*
X43695238Y-90919048D01*
X43552381Y-90919048D01*
X43457143Y-90871429D01*
X43409524Y-90776190D01*
X43409524Y-90728571D01*
X43457143Y-90633333D01*
X43552381Y-90585714D01*
X43695238Y-90585714D01*
X43790477Y-90633333D01*
X39861905Y-93252381D02*
X39861905Y-92252381D01*
X40433334Y-93252381D01*
X40433334Y-92252381D01*
X41052381Y-93252381D02*
X40957143Y-93204762D01*
X40909524Y-93157143D01*
X40861905Y-93061905D01*
X40861905Y-92776190D01*
X40909524Y-92680952D01*
X40957143Y-92633333D01*
X41052381Y-92585714D01*
X41195239Y-92585714D01*
X41290477Y-92633333D01*
X41338096Y-92680952D01*
X41385715Y-92776190D01*
X41385715Y-93061905D01*
X41338096Y-93157143D01*
X41290477Y-93204762D01*
X41195239Y-93252381D01*
X41052381Y-93252381D01*
X39766666Y-94776190D02*
X39766666Y-95252381D01*
X39433333Y-94252381D02*
X39766666Y-94776190D01*
X40100000Y-94252381D01*
X40814286Y-95204762D02*
X40719048Y-95252381D01*
X40528571Y-95252381D01*
X40433333Y-95204762D01*
X40385714Y-95109524D01*
X40385714Y-94728571D01*
X40433333Y-94633333D01*
X40528571Y-94585714D01*
X40719048Y-94585714D01*
X40814286Y-94633333D01*
X40861905Y-94728571D01*
X40861905Y-94823810D01*
X40385714Y-94919048D01*
X41242857Y-95204762D02*
X41338095Y-95252381D01*
X41528571Y-95252381D01*
X41623810Y-95204762D01*
X41671429Y-95109524D01*
X41671429Y-95061905D01*
X41623810Y-94966667D01*
X41528571Y-94919048D01*
X41385714Y-94919048D01*
X41290476Y-94871429D01*
X41242857Y-94776190D01*
X41242857Y-94728571D01*
X41290476Y-94633333D01*
X41385714Y-94585714D01*
X41528571Y-94585714D01*
X41623810Y-94633333D01*
X39766666Y-96776190D02*
X39766666Y-97252381D01*
X39433333Y-96252381D02*
X39766666Y-96776190D01*
X40100000Y-96252381D01*
X40814286Y-97204762D02*
X40719048Y-97252381D01*
X40528571Y-97252381D01*
X40433333Y-97204762D01*
X40385714Y-97109524D01*
X40385714Y-96728571D01*
X40433333Y-96633333D01*
X40528571Y-96585714D01*
X40719048Y-96585714D01*
X40814286Y-96633333D01*
X40861905Y-96728571D01*
X40861905Y-96823810D01*
X40385714Y-96919048D01*
X41242857Y-97204762D02*
X41338095Y-97252381D01*
X41528571Y-97252381D01*
X41623810Y-97204762D01*
X41671429Y-97109524D01*
X41671429Y-97061905D01*
X41623810Y-96966667D01*
X41528571Y-96919048D01*
X41385714Y-96919048D01*
X41290476Y-96871429D01*
X41242857Y-96776190D01*
X41242857Y-96728571D01*
X41290476Y-96633333D01*
X41385714Y-96585714D01*
X41528571Y-96585714D01*
X41623810Y-96633333D01*
X39861905Y-99252381D02*
X39861905Y-98252381D01*
X40433334Y-99252381D01*
X40433334Y-98252381D01*
X41052381Y-99252381D02*
X40957143Y-99204762D01*
X40909524Y-99157143D01*
X40861905Y-99061905D01*
X40861905Y-98776190D01*
X40909524Y-98680952D01*
X40957143Y-98633333D01*
X41052381Y-98585714D01*
X41195239Y-98585714D01*
X41290477Y-98633333D01*
X41338096Y-98680952D01*
X41385715Y-98776190D01*
X41385715Y-99061905D01*
X41338096Y-99157143D01*
X41290477Y-99204762D01*
X41195239Y-99252381D01*
X41052381Y-99252381D01*
X39838096Y-100252381D02*
X39647619Y-100252381D01*
X39552381Y-100300000D01*
X39504762Y-100347619D01*
X39409524Y-100490476D01*
X39361905Y-100680952D01*
X39361905Y-101061905D01*
X39409524Y-101157143D01*
X39457143Y-101204762D01*
X39552381Y-101252381D01*
X39742858Y-101252381D01*
X39838096Y-101204762D01*
X39885715Y-101157143D01*
X39933334Y-101061905D01*
X39933334Y-100823810D01*
X39885715Y-100728571D01*
X39838096Y-100680952D01*
X39742858Y-100633333D01*
X39552381Y-100633333D01*
X39457143Y-100680952D01*
X39409524Y-100728571D01*
X39361905Y-100823810D01*
X41123810Y-101252381D02*
X41123810Y-100585714D01*
X41123810Y-100680952D02*
X41171429Y-100633333D01*
X41266667Y-100585714D01*
X41409525Y-100585714D01*
X41504763Y-100633333D01*
X41552382Y-100728571D01*
X41552382Y-101252381D01*
X41552382Y-100728571D02*
X41600001Y-100633333D01*
X41695239Y-100585714D01*
X41838096Y-100585714D01*
X41933334Y-100633333D01*
X41980953Y-100728571D01*
X41980953Y-101252381D01*
X42457143Y-101252381D02*
X42457143Y-100585714D01*
X42457143Y-100252381D02*
X42409524Y-100300000D01*
X42457143Y-100347619D01*
X42504762Y-100300000D01*
X42457143Y-100252381D01*
X42457143Y-100347619D01*
X43076190Y-101252381D02*
X42980952Y-101204762D01*
X42933333Y-101109524D01*
X42933333Y-100252381D01*
X43409524Y-101204762D02*
X43504762Y-101252381D01*
X43695238Y-101252381D01*
X43790477Y-101204762D01*
X43838096Y-101109524D01*
X43838096Y-101061905D01*
X43790477Y-100966667D01*
X43695238Y-100919048D01*
X43552381Y-100919048D01*
X43457143Y-100871429D01*
X43409524Y-100776190D01*
X43409524Y-100728571D01*
X43457143Y-100633333D01*
X43552381Y-100585714D01*
X43695238Y-100585714D01*
X43790477Y-100633333D01*
X39861905Y-103252381D02*
X39861905Y-102252381D01*
X40433334Y-103252381D01*
X40433334Y-102252381D01*
X41052381Y-103252381D02*
X40957143Y-103204762D01*
X40909524Y-103157143D01*
X40861905Y-103061905D01*
X40861905Y-102776190D01*
X40909524Y-102680952D01*
X40957143Y-102633333D01*
X41052381Y-102585714D01*
X41195239Y-102585714D01*
X41290477Y-102633333D01*
X41338096Y-102680952D01*
X41385715Y-102776190D01*
X41385715Y-103061905D01*
X41338096Y-103157143D01*
X41290477Y-103204762D01*
X41195239Y-103252381D01*
X41052381Y-103252381D01*
X39457144Y-105252381D02*
X38885715Y-105252381D01*
X39171429Y-105252381D02*
X39171429Y-104252381D01*
X39076191Y-104395238D01*
X38980953Y-104490476D01*
X38885715Y-104538095D01*
X39885715Y-105157143D02*
X39933334Y-105204762D01*
X39885715Y-105252381D01*
X39838096Y-105204762D01*
X39885715Y-105157143D01*
X39885715Y-105252381D01*
X40790477Y-104252381D02*
X40600000Y-104252381D01*
X40504762Y-104300000D01*
X40457143Y-104347619D01*
X40361905Y-104490476D01*
X40314286Y-104680952D01*
X40314286Y-105061905D01*
X40361905Y-105157143D01*
X40409524Y-105204762D01*
X40504762Y-105252381D01*
X40695239Y-105252381D01*
X40790477Y-105204762D01*
X40838096Y-105157143D01*
X40885715Y-105061905D01*
X40885715Y-104823810D01*
X40838096Y-104728571D01*
X40790477Y-104680952D01*
X40695239Y-104633333D01*
X40504762Y-104633333D01*
X40409524Y-104680952D01*
X40361905Y-104728571D01*
X40314286Y-104823810D01*
X42076191Y-105252381D02*
X42076191Y-104585714D01*
X42076191Y-104680952D02*
X42123810Y-104633333D01*
X42219048Y-104585714D01*
X42361906Y-104585714D01*
X42457144Y-104633333D01*
X42504763Y-104728571D01*
X42504763Y-105252381D01*
X42504763Y-104728571D02*
X42552382Y-104633333D01*
X42647620Y-104585714D01*
X42790477Y-104585714D01*
X42885715Y-104633333D01*
X42933334Y-104728571D01*
X42933334Y-105252381D01*
X43409524Y-105252381D02*
X43409524Y-104585714D01*
X43409524Y-104680952D02*
X43457143Y-104633333D01*
X43552381Y-104585714D01*
X43695239Y-104585714D01*
X43790477Y-104633333D01*
X43838096Y-104728571D01*
X43838096Y-105252381D01*
X43838096Y-104728571D02*
X43885715Y-104633333D01*
X43980953Y-104585714D01*
X44123810Y-104585714D01*
X44219048Y-104633333D01*
X44266667Y-104728571D01*
X44266667Y-105252381D01*
X39766667Y-106728571D02*
X39433333Y-106728571D01*
X39433333Y-107252381D02*
X39433333Y-106252381D01*
X39909524Y-106252381D01*
X40861905Y-107252381D02*
X40528571Y-106776190D01*
X40290476Y-107252381D02*
X40290476Y-106252381D01*
X40671429Y-106252381D01*
X40766667Y-106300000D01*
X40814286Y-106347619D01*
X40861905Y-106442857D01*
X40861905Y-106585714D01*
X40814286Y-106680952D01*
X40766667Y-106728571D01*
X40671429Y-106776190D01*
X40290476Y-106776190D01*
X41719048Y-106585714D02*
X41719048Y-107252381D01*
X41480952Y-106204762D02*
X41242857Y-106919048D01*
X41861905Y-106919048D01*
X39566666Y-108876190D02*
X39566666Y-109352381D01*
X39233333Y-108352381D02*
X39566666Y-108876190D01*
X39900000Y-108352381D01*
X40614286Y-109304762D02*
X40519048Y-109352381D01*
X40328571Y-109352381D01*
X40233333Y-109304762D01*
X40185714Y-109209524D01*
X40185714Y-108828571D01*
X40233333Y-108733333D01*
X40328571Y-108685714D01*
X40519048Y-108685714D01*
X40614286Y-108733333D01*
X40661905Y-108828571D01*
X40661905Y-108923810D01*
X40185714Y-109019048D01*
X41042857Y-109304762D02*
X41138095Y-109352381D01*
X41328571Y-109352381D01*
X41423810Y-109304762D01*
X41471429Y-109209524D01*
X41471429Y-109161905D01*
X41423810Y-109066667D01*
X41328571Y-109019048D01*
X41185714Y-109019048D01*
X41090476Y-108971429D01*
X41042857Y-108876190D01*
X41042857Y-108828571D01*
X41090476Y-108733333D01*
X41185714Y-108685714D01*
X41328571Y-108685714D01*
X41423810Y-108733333D01*
X39766666Y-110776190D02*
X39766666Y-111252381D01*
X39433333Y-110252381D02*
X39766666Y-110776190D01*
X40100000Y-110252381D01*
X40814286Y-111204762D02*
X40719048Y-111252381D01*
X40528571Y-111252381D01*
X40433333Y-111204762D01*
X40385714Y-111109524D01*
X40385714Y-110728571D01*
X40433333Y-110633333D01*
X40528571Y-110585714D01*
X40719048Y-110585714D01*
X40814286Y-110633333D01*
X40861905Y-110728571D01*
X40861905Y-110823810D01*
X40385714Y-110919048D01*
X41242857Y-111204762D02*
X41338095Y-111252381D01*
X41528571Y-111252381D01*
X41623810Y-111204762D01*
X41671429Y-111109524D01*
X41671429Y-111061905D01*
X41623810Y-110966667D01*
X41528571Y-110919048D01*
X41385714Y-110919048D01*
X41290476Y-110871429D01*
X41242857Y-110776190D01*
X41242857Y-110728571D01*
X41290476Y-110633333D01*
X41385714Y-110585714D01*
X41528571Y-110585714D01*
X41623810Y-110633333D01*
X39861905Y-113252381D02*
X39861905Y-112252381D01*
X40433334Y-113252381D01*
X40433334Y-112252381D01*
X41052381Y-113252381D02*
X40957143Y-113204762D01*
X40909524Y-113157143D01*
X40861905Y-113061905D01*
X40861905Y-112776190D01*
X40909524Y-112680952D01*
X40957143Y-112633333D01*
X41052381Y-112585714D01*
X41195239Y-112585714D01*
X41290477Y-112633333D01*
X41338096Y-112680952D01*
X41385715Y-112776190D01*
X41385715Y-113061905D01*
X41338096Y-113157143D01*
X41290477Y-113204762D01*
X41195239Y-113252381D01*
X41052381Y-113252381D01*
X40076191Y-115352381D02*
X39504762Y-115352381D01*
X39790476Y-115352381D02*
X39790476Y-114352381D01*
X39695238Y-114495238D01*
X39600000Y-114590476D01*
X39504762Y-114638095D01*
X41457143Y-114352381D02*
X41647620Y-114352381D01*
X41742858Y-114400000D01*
X41838096Y-114495238D01*
X41885715Y-114685714D01*
X41885715Y-115019048D01*
X41838096Y-115209524D01*
X41742858Y-115304762D01*
X41647620Y-115352381D01*
X41457143Y-115352381D01*
X41361905Y-115304762D01*
X41266667Y-115209524D01*
X41219048Y-115019048D01*
X41219048Y-114685714D01*
X41266667Y-114495238D01*
X41361905Y-114400000D01*
X41457143Y-114352381D01*
X42219048Y-114685714D02*
X42742858Y-114685714D01*
X42219048Y-115352381D01*
X42742858Y-115352381D01*
X39409524Y-117252381D02*
X39409524Y-116252381D01*
X39409524Y-116728571D02*
X39980953Y-116728571D01*
X39980953Y-117252381D02*
X39980953Y-116252381D01*
X40409524Y-116966667D02*
X40885715Y-116966667D01*
X40314286Y-117252381D02*
X40647619Y-116252381D01*
X40980953Y-117252381D01*
X41266667Y-117204762D02*
X41409524Y-117252381D01*
X41647620Y-117252381D01*
X41742858Y-117204762D01*
X41790477Y-117157143D01*
X41838096Y-117061905D01*
X41838096Y-116966667D01*
X41790477Y-116871429D01*
X41742858Y-116823810D01*
X41647620Y-116776190D01*
X41457143Y-116728571D01*
X41361905Y-116680952D01*
X41314286Y-116633333D01*
X41266667Y-116538095D01*
X41266667Y-116442857D01*
X41314286Y-116347619D01*
X41361905Y-116300000D01*
X41457143Y-116252381D01*
X41695239Y-116252381D01*
X41838096Y-116300000D01*
X42742858Y-117252381D02*
X42266667Y-117252381D01*
X42266667Y-116252381D01*
X44171430Y-116728571D02*
X43838096Y-116728571D01*
X43838096Y-117252381D02*
X43838096Y-116252381D01*
X44314287Y-116252381D01*
X44695239Y-117252381D02*
X44695239Y-116585714D01*
X44695239Y-116252381D02*
X44647620Y-116300000D01*
X44695239Y-116347619D01*
X44742858Y-116300000D01*
X44695239Y-116252381D01*
X44695239Y-116347619D01*
X45171429Y-116585714D02*
X45171429Y-117252381D01*
X45171429Y-116680952D02*
X45219048Y-116633333D01*
X45314286Y-116585714D01*
X45457144Y-116585714D01*
X45552382Y-116633333D01*
X45600001Y-116728571D01*
X45600001Y-117252381D01*
X46076191Y-117252381D02*
X46076191Y-116585714D01*
X46076191Y-116252381D02*
X46028572Y-116300000D01*
X46076191Y-116347619D01*
X46123810Y-116300000D01*
X46076191Y-116252381D01*
X46076191Y-116347619D01*
X46504762Y-117204762D02*
X46600000Y-117252381D01*
X46790476Y-117252381D01*
X46885715Y-117204762D01*
X46933334Y-117109524D01*
X46933334Y-117061905D01*
X46885715Y-116966667D01*
X46790476Y-116919048D01*
X46647619Y-116919048D01*
X46552381Y-116871429D01*
X46504762Y-116776190D01*
X46504762Y-116728571D01*
X46552381Y-116633333D01*
X46647619Y-116585714D01*
X46790476Y-116585714D01*
X46885715Y-116633333D01*
X47361905Y-117252381D02*
X47361905Y-116252381D01*
X47790477Y-117252381D02*
X47790477Y-116728571D01*
X47742858Y-116633333D01*
X47647620Y-116585714D01*
X47504762Y-116585714D01*
X47409524Y-116633333D01*
X47361905Y-116680952D01*
X39766666Y-118776190D02*
X39766666Y-119252381D01*
X39433333Y-118252381D02*
X39766666Y-118776190D01*
X40100000Y-118252381D01*
X40814286Y-119204762D02*
X40719048Y-119252381D01*
X40528571Y-119252381D01*
X40433333Y-119204762D01*
X40385714Y-119109524D01*
X40385714Y-118728571D01*
X40433333Y-118633333D01*
X40528571Y-118585714D01*
X40719048Y-118585714D01*
X40814286Y-118633333D01*
X40861905Y-118728571D01*
X40861905Y-118823810D01*
X40385714Y-118919048D01*
X41242857Y-119204762D02*
X41338095Y-119252381D01*
X41528571Y-119252381D01*
X41623810Y-119204762D01*
X41671429Y-119109524D01*
X41671429Y-119061905D01*
X41623810Y-118966667D01*
X41528571Y-118919048D01*
X41385714Y-118919048D01*
X41290476Y-118871429D01*
X41242857Y-118776190D01*
X41242857Y-118728571D01*
X41290476Y-118633333D01*
X41385714Y-118585714D01*
X41528571Y-118585714D01*
X41623810Y-118633333D01*
X39766666Y-120776190D02*
X39766666Y-121252381D01*
X39433333Y-120252381D02*
X39766666Y-120776190D01*
X40100000Y-120252381D01*
X40814286Y-121204762D02*
X40719048Y-121252381D01*
X40528571Y-121252381D01*
X40433333Y-121204762D01*
X40385714Y-121109524D01*
X40385714Y-120728571D01*
X40433333Y-120633333D01*
X40528571Y-120585714D01*
X40719048Y-120585714D01*
X40814286Y-120633333D01*
X40861905Y-120728571D01*
X40861905Y-120823810D01*
X40385714Y-120919048D01*
X41242857Y-121204762D02*
X41338095Y-121252381D01*
X41528571Y-121252381D01*
X41623810Y-121204762D01*
X41671429Y-121109524D01*
X41671429Y-121061905D01*
X41623810Y-120966667D01*
X41528571Y-120919048D01*
X41385714Y-120919048D01*
X41290476Y-120871429D01*
X41242857Y-120776190D01*
X41242857Y-120728571D01*
X41290476Y-120633333D01*
X41385714Y-120585714D01*
X41528571Y-120585714D01*
X41623810Y-120633333D01*
X39942857Y-122400000D02*
X39847619Y-122352381D01*
X39704762Y-122352381D01*
X39561904Y-122400000D01*
X39466666Y-122495238D01*
X39419047Y-122590476D01*
X39371428Y-122780952D01*
X39371428Y-122923810D01*
X39419047Y-123114286D01*
X39466666Y-123209524D01*
X39561904Y-123304762D01*
X39704762Y-123352381D01*
X39800000Y-123352381D01*
X39942857Y-123304762D01*
X39990476Y-123257143D01*
X39990476Y-122923810D01*
X39800000Y-122923810D01*
X40419047Y-123352381D02*
X40419047Y-122685714D01*
X40419047Y-122876190D02*
X40466666Y-122780952D01*
X40514285Y-122733333D01*
X40609523Y-122685714D01*
X40704762Y-122685714D01*
X41419048Y-123304762D02*
X41323810Y-123352381D01*
X41133333Y-123352381D01*
X41038095Y-123304762D01*
X40990476Y-123209524D01*
X40990476Y-122828571D01*
X41038095Y-122733333D01*
X41133333Y-122685714D01*
X41323810Y-122685714D01*
X41419048Y-122733333D01*
X41466667Y-122828571D01*
X41466667Y-122923810D01*
X40990476Y-123019048D01*
X42276191Y-123304762D02*
X42180953Y-123352381D01*
X41990476Y-123352381D01*
X41895238Y-123304762D01*
X41847619Y-123209524D01*
X41847619Y-122828571D01*
X41895238Y-122733333D01*
X41990476Y-122685714D01*
X42180953Y-122685714D01*
X42276191Y-122733333D01*
X42323810Y-122828571D01*
X42323810Y-122923810D01*
X41847619Y-123019048D01*
X42752381Y-122685714D02*
X42752381Y-123352381D01*
X42752381Y-122780952D02*
X42800000Y-122733333D01*
X42895238Y-122685714D01*
X43038096Y-122685714D01*
X43133334Y-122733333D01*
X43180953Y-122828571D01*
X43180953Y-123352381D01*
M02*
