G04 #@! TF.FileFunction,Soldermask,Top*
%FSLAX46Y46*%
G04 Gerber Fmt 4.6, Leading zero omitted, Abs format (unit mm)*
G04 Created by KiCad (PCBNEW 4.0.4-stable) date 08/01/17 14:05:29*
%MOMM*%
%LPD*%
G01*
G04 APERTURE LIST*
%ADD10C,0.100000*%
%ADD11R,2.250000X2.250000*%
%ADD12C,2.250000*%
%ADD13R,1.900000X1.700000*%
%ADD14R,1.650000X1.900000*%
%ADD15R,1.900000X1.650000*%
%ADD16R,1.600000X0.800000*%
%ADD17R,1.700000X1.900000*%
%ADD18R,1.300000X1.200000*%
%ADD19R,1.200000X1.300000*%
G04 APERTURE END LIST*
D10*
D11*
X171400000Y-87200000D03*
D12*
X173900000Y-87200000D03*
D13*
X139900000Y-90050000D03*
X137200000Y-90050000D03*
D14*
X104240000Y-101160000D03*
X104240000Y-98660000D03*
X134950000Y-101150000D03*
X134950000Y-98650000D03*
X196170000Y-100980000D03*
X196170000Y-98480000D03*
D15*
X151150000Y-83750000D03*
X153650000Y-83750000D03*
X148600000Y-83700000D03*
X146100000Y-83700000D03*
D13*
X139950000Y-87400000D03*
X137250000Y-87400000D03*
X139900000Y-92200000D03*
X137200000Y-92200000D03*
X161950000Y-87800000D03*
X159250000Y-87800000D03*
X161950000Y-89950000D03*
X159250000Y-89950000D03*
X161950000Y-92200000D03*
X159250000Y-92200000D03*
X220450000Y-97400000D03*
X217750000Y-97400000D03*
X159150000Y-97600000D03*
X156450000Y-97600000D03*
X98850000Y-97700000D03*
X96150000Y-97700000D03*
D16*
X147400000Y-85777500D03*
X147400000Y-86412500D03*
X147400000Y-87047500D03*
X147400000Y-87682500D03*
X147400000Y-88317500D03*
X147400000Y-88952500D03*
X147400000Y-89587500D03*
X147400000Y-90222500D03*
X152600000Y-90222500D03*
X152600000Y-89587500D03*
X152600000Y-88952500D03*
X152600000Y-88317500D03*
X152600000Y-87682500D03*
X152600000Y-87047500D03*
X152600000Y-86412500D03*
X152600000Y-85777500D03*
D13*
X204950000Y-95500000D03*
X207650000Y-95500000D03*
X150050000Y-94900000D03*
X147350000Y-94900000D03*
X90050000Y-95500000D03*
X87350000Y-95500000D03*
X210650000Y-89200000D03*
X213350000Y-89200000D03*
D17*
X132800000Y-92750000D03*
X132800000Y-95450000D03*
X92650000Y-89950000D03*
X92650000Y-92650000D03*
X210600000Y-91150000D03*
X210600000Y-93850000D03*
D13*
X130750000Y-92700000D03*
X128050000Y-92700000D03*
X90650000Y-89900000D03*
X87950000Y-89900000D03*
D18*
X212200000Y-90950000D03*
X212200000Y-92850000D03*
X214200000Y-91900000D03*
D19*
X131100000Y-94400000D03*
X129200000Y-94400000D03*
X130150000Y-96400000D03*
X90950000Y-91700000D03*
X89050000Y-91700000D03*
X90000000Y-93700000D03*
D11*
X115000000Y-87100000D03*
D12*
X117500000Y-87100000D03*
X120000000Y-87100000D03*
X122500000Y-87100000D03*
X125000000Y-87100000D03*
X127500000Y-87100000D03*
D11*
X185100000Y-87100000D03*
D12*
X187600000Y-87100000D03*
X190100000Y-87100000D03*
X192600000Y-87100000D03*
X195100000Y-87100000D03*
X197600000Y-87100000D03*
M02*
