G04 #@! TF.FileFunction,Copper,L2,Bot,Signal*
%FSLAX46Y46*%
G04 Gerber Fmt 4.6, Leading zero omitted, Abs format (unit mm)*
G04 Created by KiCad (PCBNEW 4.0.4-stable) date 08/01/17 14:05:29*
%MOMM*%
%LPD*%
G01*
G04 APERTURE LIST*
%ADD10C,0.100000*%
%ADD11R,20.000000X20.000000*%
%ADD12C,0.600000*%
%ADD13R,1.850000X1.850000*%
%ADD14C,1.850000*%
%ADD15R,2.100000X1.300000*%
%ADD16C,1.000000*%
%ADD17C,0.250000*%
%ADD18C,0.300000*%
%ADD19C,1.000000*%
%ADD20C,0.500000*%
%ADD21C,0.254000*%
G04 APERTURE END LIST*
D10*
D11*
X210000000Y-110000000D03*
D12*
X204300000Y-93600000D03*
X207100000Y-93600000D03*
X203900000Y-91500000D03*
X207100000Y-91500000D03*
X112200000Y-88800000D03*
X108200000Y-91400000D03*
X112600000Y-91400000D03*
X112600000Y-93700000D03*
X108200000Y-93700000D03*
X207000000Y-87100000D03*
X204800000Y-87100000D03*
X202200000Y-87100000D03*
X187100000Y-93400000D03*
X184400000Y-93400000D03*
X181600000Y-93400000D03*
X179500000Y-93400000D03*
X177400000Y-93400000D03*
X175400000Y-93400000D03*
X173100000Y-93400000D03*
X180600000Y-88300000D03*
X178100000Y-88300000D03*
X168200000Y-89000000D03*
X165800000Y-90900000D03*
X165800000Y-89000000D03*
X149700000Y-81800000D03*
X155500000Y-84400000D03*
X144500000Y-83400000D03*
D13*
X171400000Y-87200000D03*
D14*
X173900000Y-87200000D03*
D12*
X129700000Y-90900000D03*
X133500000Y-88100000D03*
X155900000Y-90700000D03*
X196200000Y-93600000D03*
X163200000Y-81200000D03*
X131600000Y-81600000D03*
X104700000Y-93700000D03*
X84400000Y-93400000D03*
X74000000Y-93400000D03*
X74000000Y-89400000D03*
X81200000Y-87200000D03*
X84300000Y-82150000D03*
X93450000Y-82150000D03*
X223800000Y-93600000D03*
X223200000Y-89200000D03*
X153900000Y-92700000D03*
D10*
G36*
X80000000Y-120000000D02*
X80000000Y-100000000D01*
X100000000Y-100000000D01*
X100000000Y-120000000D01*
X80000000Y-120000000D01*
X80000000Y-120000000D01*
G37*
D11*
X150000000Y-110000000D03*
D12*
X139200000Y-81500000D03*
D15*
X211700000Y-97400000D03*
X215500000Y-97400000D03*
X150300000Y-97600000D03*
X154100000Y-97600000D03*
X90000000Y-97700000D03*
X93800000Y-97700000D03*
X205200000Y-97400000D03*
X209000000Y-97400000D03*
X143700000Y-97600000D03*
X147500000Y-97600000D03*
X83500000Y-97700000D03*
X87300000Y-97700000D03*
D13*
X115000000Y-87100000D03*
D14*
X117500000Y-87100000D03*
X120000000Y-87100000D03*
X122500000Y-87100000D03*
X125000000Y-87100000D03*
X127500000Y-87100000D03*
D13*
X185100000Y-87100000D03*
D14*
X187600000Y-87100000D03*
X190100000Y-87100000D03*
X192600000Y-87100000D03*
X195100000Y-87100000D03*
X197600000Y-87100000D03*
D12*
X125500000Y-84100000D03*
X102400000Y-101250000D03*
X137500000Y-101150000D03*
X193350000Y-101000000D03*
X133600000Y-85900000D03*
X149174995Y-88008903D03*
D16*
X156900000Y-83299994D03*
D12*
X213100000Y-95100000D03*
X217700000Y-96100000D03*
X142100000Y-95000000D03*
X156300000Y-96100000D03*
X92999996Y-94500000D03*
X93800000Y-96400002D03*
X209200000Y-95500000D03*
D16*
X145000000Y-94899996D03*
D12*
X84700000Y-95400000D03*
X150900000Y-90700000D03*
X150750010Y-85800000D03*
X96250000Y-90100000D03*
D17*
X125500000Y-84100000D02*
X124800000Y-84800000D01*
X124800000Y-84800000D02*
X124800000Y-86900000D01*
X124800000Y-86900000D02*
X125000000Y-87100000D01*
X102400000Y-101250000D02*
X101975736Y-101250000D01*
X101975736Y-101250000D02*
X93225736Y-110000000D01*
X93225736Y-110000000D02*
X90000000Y-110000000D01*
D18*
X186500000Y-90300000D02*
X187600000Y-89200000D01*
X187600000Y-89200000D02*
X187600000Y-87100000D01*
X173275000Y-90300000D02*
X186500000Y-90300000D01*
D17*
X137500000Y-101150000D02*
X137924264Y-101150000D01*
X137924264Y-101150000D02*
X146774264Y-110000000D01*
X146774264Y-110000000D02*
X150000000Y-110000000D01*
X193350000Y-101000000D02*
X193350000Y-103600000D01*
X193350000Y-103600000D02*
X193399996Y-103649996D01*
X199750000Y-110000000D02*
X193399996Y-103649996D01*
X210000000Y-110000000D02*
X199750000Y-110000000D01*
X193350000Y-101000000D02*
X187050000Y-94700000D01*
X187050000Y-94700000D02*
X153250000Y-94700000D01*
X153250000Y-94700000D02*
X149174995Y-90624995D01*
X149174995Y-90624995D02*
X149174995Y-88433167D01*
X149174995Y-88433167D02*
X149174995Y-88008903D01*
X130800000Y-88700000D02*
X121600000Y-88700000D01*
X121600000Y-88700000D02*
X120000000Y-87100000D01*
X133600000Y-85900000D02*
X130800000Y-88700000D01*
D19*
X157299999Y-83699993D02*
X156900000Y-83299994D01*
X171400000Y-87200000D02*
X160800006Y-87200000D01*
X160800006Y-87200000D02*
X157299999Y-83699993D01*
D17*
X205200000Y-97400000D02*
X205200000Y-98300000D01*
X205200000Y-98300000D02*
X205800000Y-98900000D01*
X205800000Y-98900000D02*
X211100000Y-98900000D01*
X211700000Y-98300000D02*
X211700000Y-97400000D01*
X211100000Y-98900000D02*
X211700000Y-98300000D01*
X213100000Y-95100000D02*
X211700000Y-96500000D01*
X211700000Y-96500000D02*
X211700000Y-97400000D01*
X215500000Y-97400000D02*
X215500000Y-96700000D01*
X215500000Y-96700000D02*
X216100000Y-96100000D01*
X216100000Y-96100000D02*
X217275736Y-96100000D01*
X217275736Y-96100000D02*
X217700000Y-96100000D01*
X143700000Y-97600000D02*
X143700000Y-98400000D01*
X149600000Y-99100000D02*
X150300000Y-98400000D01*
X143700000Y-98400000D02*
X144400000Y-99100000D01*
X144400000Y-99100000D02*
X149600000Y-99100000D01*
X150300000Y-98400000D02*
X150300000Y-97600000D01*
X142100000Y-95000000D02*
X143700000Y-96600000D01*
X143700000Y-96600000D02*
X143700000Y-97600000D01*
X154100000Y-97600000D02*
X154100000Y-97000000D01*
X154100000Y-97000000D02*
X155000000Y-96100000D01*
X155000000Y-96100000D02*
X156300000Y-96100000D01*
X83500000Y-97700000D02*
X83500000Y-98500000D01*
X83500000Y-98500000D02*
X84100000Y-99100000D01*
X89400000Y-99100000D02*
X90000000Y-98500000D01*
X84100000Y-99100000D02*
X89400000Y-99100000D01*
X90000000Y-98500000D02*
X90000000Y-97700000D01*
X93000000Y-94500004D02*
X92999996Y-94500000D01*
X93000000Y-94900000D02*
X93000000Y-94500004D01*
X90400000Y-97700000D02*
X93000000Y-95100000D01*
X93000000Y-95100000D02*
X93000000Y-94900000D01*
X90000000Y-97700000D02*
X90400000Y-97700000D01*
X93800000Y-97700000D02*
X93800000Y-96400002D01*
X209200000Y-95500000D02*
X209200000Y-97200000D01*
X209200000Y-97200000D02*
X209000000Y-97400000D01*
D20*
X145000000Y-95500000D02*
X145000000Y-94899996D01*
X147100000Y-97600000D02*
X145000000Y-95500000D01*
X147500000Y-97600000D02*
X147100000Y-97600000D01*
D17*
X87300000Y-97700000D02*
X86500000Y-97700000D01*
X86500000Y-97700000D02*
X84700000Y-95900000D01*
X84700000Y-95900000D02*
X84700000Y-95400000D01*
X141050000Y-90100000D02*
X145350000Y-85800000D01*
X96250000Y-90100000D02*
X141050000Y-90100000D01*
X150325746Y-85800000D02*
X150750010Y-85800000D01*
X145350000Y-85800000D02*
X150325746Y-85800000D01*
D21*
G36*
X229115000Y-82794606D02*
X229115000Y-94424871D01*
X213742345Y-94420022D01*
X213630327Y-94307808D01*
X213286799Y-94165162D01*
X212914833Y-94164838D01*
X212571057Y-94306883D01*
X212458127Y-94419617D01*
X187836651Y-94411849D01*
X187587401Y-94162599D01*
X187340839Y-93997852D01*
X187050000Y-93940000D01*
X153564802Y-93940000D01*
X151208857Y-91584055D01*
X151428943Y-91493117D01*
X151692192Y-91230327D01*
X151834838Y-90886799D01*
X151835162Y-90514833D01*
X151693117Y-90171057D01*
X151430327Y-89907808D01*
X151086799Y-89765162D01*
X150714833Y-89764838D01*
X150371057Y-89906883D01*
X150107808Y-90169673D01*
X150015874Y-90391072D01*
X149934995Y-90310193D01*
X149934995Y-88571366D01*
X149967187Y-88539230D01*
X150109833Y-88195702D01*
X150110157Y-87823736D01*
X149968112Y-87479960D01*
X149705322Y-87216711D01*
X149361794Y-87074065D01*
X148989828Y-87073741D01*
X148646052Y-87215786D01*
X148382803Y-87478576D01*
X148240157Y-87822104D01*
X148239833Y-88194070D01*
X148381878Y-88537846D01*
X148414995Y-88571021D01*
X148414995Y-90624995D01*
X148472847Y-90915834D01*
X148637594Y-91162396D01*
X151875703Y-94400505D01*
X146020923Y-94398658D01*
X145962767Y-94257910D01*
X145643765Y-93938351D01*
X145226756Y-93765193D01*
X144775225Y-93764799D01*
X144357914Y-93937229D01*
X144038355Y-94256231D01*
X143979481Y-94398014D01*
X142819836Y-94397648D01*
X142630327Y-94207808D01*
X142286799Y-94065162D01*
X141914833Y-94064838D01*
X141571057Y-94206883D01*
X141380413Y-94397194D01*
X93935099Y-94382227D01*
X93935158Y-94314833D01*
X93793113Y-93971057D01*
X93530323Y-93707808D01*
X93186795Y-93565162D01*
X92814829Y-93564838D01*
X92471053Y-93706883D01*
X92207804Y-93969673D01*
X92065158Y-94313201D01*
X92065098Y-94381637D01*
X71088963Y-94375020D01*
X71106296Y-90285167D01*
X95314838Y-90285167D01*
X95456883Y-90628943D01*
X95719673Y-90892192D01*
X96063201Y-91034838D01*
X96435167Y-91035162D01*
X96778943Y-90893117D01*
X96812118Y-90860000D01*
X141050000Y-90860000D01*
X141340839Y-90802148D01*
X141587401Y-90637401D01*
X145664802Y-86560000D01*
X150187547Y-86560000D01*
X150219683Y-86592192D01*
X150563211Y-86734838D01*
X150935177Y-86735162D01*
X151278953Y-86593117D01*
X151542202Y-86330327D01*
X151684848Y-85986799D01*
X151685172Y-85614833D01*
X151543127Y-85271057D01*
X151280337Y-85007808D01*
X150936809Y-84865162D01*
X150564843Y-84864838D01*
X150221067Y-85006883D01*
X150187892Y-85040000D01*
X145350000Y-85040000D01*
X145059160Y-85097852D01*
X144812599Y-85262599D01*
X140735198Y-89340000D01*
X131183850Y-89340000D01*
X131337401Y-89237401D01*
X133739680Y-86835122D01*
X133785167Y-86835162D01*
X134128943Y-86693117D01*
X134392192Y-86430327D01*
X134534838Y-86086799D01*
X134535162Y-85714833D01*
X134393117Y-85371057D01*
X134130327Y-85107808D01*
X133786799Y-84965162D01*
X133414833Y-84964838D01*
X133071057Y-85106883D01*
X132807808Y-85369673D01*
X132665162Y-85713201D01*
X132665121Y-85760077D01*
X130485198Y-87940000D01*
X128825999Y-87940000D01*
X128857332Y-87929179D01*
X129071325Y-87346632D01*
X129046097Y-86726539D01*
X128857332Y-86270821D01*
X128598256Y-86181349D01*
X127679605Y-87100000D01*
X127693748Y-87114143D01*
X127514143Y-87293748D01*
X127500000Y-87279605D01*
X127485858Y-87293748D01*
X127306253Y-87114143D01*
X127320395Y-87100000D01*
X126401744Y-86181349D01*
X126316566Y-86210765D01*
X126107910Y-86001744D01*
X126581349Y-86001744D01*
X127500000Y-86920395D01*
X128418651Y-86001744D01*
X128329179Y-85742668D01*
X127746632Y-85528675D01*
X127126539Y-85553903D01*
X126670821Y-85742668D01*
X126581349Y-86001744D01*
X126107910Y-86001744D01*
X125884823Y-85778268D01*
X125560000Y-85643390D01*
X125560000Y-85114802D01*
X125639680Y-85035122D01*
X125685167Y-85035162D01*
X126028943Y-84893117D01*
X126292192Y-84630327D01*
X126434838Y-84286799D01*
X126435162Y-83914833D01*
X126293117Y-83571057D01*
X126246910Y-83524769D01*
X155764803Y-83524769D01*
X155937233Y-83942080D01*
X156256235Y-84261639D01*
X156256710Y-84261836D01*
X159997440Y-88002566D01*
X160365660Y-88248603D01*
X160800006Y-88335000D01*
X169867074Y-88335000D01*
X169871838Y-88360317D01*
X170010910Y-88576441D01*
X170223110Y-88721431D01*
X170475000Y-88772440D01*
X172325000Y-88772440D01*
X172560317Y-88728162D01*
X172776441Y-88589090D01*
X172921431Y-88376890D01*
X172926183Y-88353425D01*
X172981350Y-88298258D01*
X173070821Y-88557332D01*
X173653368Y-88771325D01*
X174273461Y-88746097D01*
X174729179Y-88557332D01*
X174818651Y-88298256D01*
X173900000Y-87379605D01*
X173885858Y-87393748D01*
X173706253Y-87214143D01*
X173720395Y-87200000D01*
X174079605Y-87200000D01*
X174998256Y-88118651D01*
X175257332Y-88029179D01*
X175471325Y-87446632D01*
X175446097Y-86826539D01*
X175257332Y-86370821D01*
X174998256Y-86281349D01*
X174079605Y-87200000D01*
X173720395Y-87200000D01*
X173706253Y-87185858D01*
X173885858Y-87006253D01*
X173900000Y-87020395D01*
X174745395Y-86175000D01*
X183527560Y-86175000D01*
X183527560Y-88025000D01*
X183571838Y-88260317D01*
X183710910Y-88476441D01*
X183923110Y-88621431D01*
X184175000Y-88672440D01*
X186025000Y-88672440D01*
X186260317Y-88628162D01*
X186476441Y-88489090D01*
X186621431Y-88276890D01*
X186626183Y-88253425D01*
X186681350Y-88198258D01*
X186770821Y-88457332D01*
X187353368Y-88671325D01*
X187973461Y-88646097D01*
X188429179Y-88457332D01*
X188518651Y-88198256D01*
X187600000Y-87279605D01*
X187585858Y-87293748D01*
X187406253Y-87114143D01*
X187420395Y-87100000D01*
X187779605Y-87100000D01*
X188698256Y-88018651D01*
X188783434Y-87989235D01*
X189215177Y-88421732D01*
X189788336Y-88659728D01*
X190408942Y-88660270D01*
X190982514Y-88423275D01*
X191350256Y-88056174D01*
X191715177Y-88421732D01*
X192288336Y-88659728D01*
X192908942Y-88660270D01*
X193482514Y-88423275D01*
X193850256Y-88056174D01*
X194215177Y-88421732D01*
X194788336Y-88659728D01*
X195408942Y-88660270D01*
X195982514Y-88423275D01*
X196207926Y-88198256D01*
X196681349Y-88198256D01*
X196770821Y-88457332D01*
X197353368Y-88671325D01*
X197973461Y-88646097D01*
X198429179Y-88457332D01*
X198518651Y-88198256D01*
X197600000Y-87279605D01*
X196681349Y-88198256D01*
X196207926Y-88198256D01*
X196417121Y-87989426D01*
X196501744Y-88018651D01*
X197420395Y-87100000D01*
X197779605Y-87100000D01*
X198698256Y-88018651D01*
X198957332Y-87929179D01*
X199171325Y-87346632D01*
X199146097Y-86726539D01*
X198957332Y-86270821D01*
X198698256Y-86181349D01*
X197779605Y-87100000D01*
X197420395Y-87100000D01*
X196501744Y-86181349D01*
X196416566Y-86210765D01*
X196207910Y-86001744D01*
X196681349Y-86001744D01*
X197600000Y-86920395D01*
X198518651Y-86001744D01*
X198429179Y-85742668D01*
X198097569Y-85620854D01*
X221864457Y-85620854D01*
X222340727Y-86773515D01*
X223221847Y-87656174D01*
X224373674Y-88134454D01*
X225620854Y-88135543D01*
X226773515Y-87659273D01*
X227656174Y-86778153D01*
X228134454Y-85626326D01*
X228135543Y-84379146D01*
X227659273Y-83226485D01*
X226778153Y-82343826D01*
X225626326Y-81865546D01*
X224379146Y-81864457D01*
X223226485Y-82340727D01*
X222343826Y-83221847D01*
X221865546Y-84373674D01*
X221864457Y-85620854D01*
X198097569Y-85620854D01*
X197846632Y-85528675D01*
X197226539Y-85553903D01*
X196770821Y-85742668D01*
X196681349Y-86001744D01*
X196207910Y-86001744D01*
X195984823Y-85778268D01*
X195411664Y-85540272D01*
X194791058Y-85539730D01*
X194217486Y-85776725D01*
X193849744Y-86143826D01*
X193484823Y-85778268D01*
X192911664Y-85540272D01*
X192291058Y-85539730D01*
X191717486Y-85776725D01*
X191349744Y-86143826D01*
X190984823Y-85778268D01*
X190411664Y-85540272D01*
X189791058Y-85539730D01*
X189217486Y-85776725D01*
X188782879Y-86210574D01*
X188698256Y-86181349D01*
X187779605Y-87100000D01*
X187420395Y-87100000D01*
X187406253Y-87085858D01*
X187585858Y-86906253D01*
X187600000Y-86920395D01*
X188518651Y-86001744D01*
X188429179Y-85742668D01*
X187846632Y-85528675D01*
X187226539Y-85553903D01*
X186770821Y-85742668D01*
X186681350Y-86001742D01*
X186630218Y-85950610D01*
X186628162Y-85939683D01*
X186489090Y-85723559D01*
X186276890Y-85578569D01*
X186025000Y-85527560D01*
X184175000Y-85527560D01*
X183939683Y-85571838D01*
X183723559Y-85710910D01*
X183578569Y-85923110D01*
X183527560Y-86175000D01*
X174745395Y-86175000D01*
X174818651Y-86101744D01*
X174729179Y-85842668D01*
X174146632Y-85628675D01*
X173526539Y-85653903D01*
X173070821Y-85842668D01*
X172981350Y-86101742D01*
X172930218Y-86050610D01*
X172928162Y-86039683D01*
X172789090Y-85823559D01*
X172576890Y-85678569D01*
X172325000Y-85627560D01*
X170475000Y-85627560D01*
X170239683Y-85671838D01*
X170023559Y-85810910D01*
X169878569Y-86023110D01*
X169870086Y-86065000D01*
X161270138Y-86065000D01*
X157702980Y-82497842D01*
X157543765Y-82338349D01*
X157126756Y-82165191D01*
X156675225Y-82164797D01*
X156257914Y-82337227D01*
X155938355Y-82656229D01*
X155765197Y-83073238D01*
X155764803Y-83524769D01*
X126246910Y-83524769D01*
X126030327Y-83307808D01*
X125686799Y-83165162D01*
X125314833Y-83164838D01*
X124971057Y-83306883D01*
X124707808Y-83569673D01*
X124565162Y-83913201D01*
X124565121Y-83960076D01*
X124262599Y-84262599D01*
X124097852Y-84509161D01*
X124040000Y-84800000D01*
X124040000Y-85854076D01*
X123749744Y-86143826D01*
X123384823Y-85778268D01*
X122811664Y-85540272D01*
X122191058Y-85539730D01*
X121617486Y-85776725D01*
X121249744Y-86143826D01*
X120884823Y-85778268D01*
X120311664Y-85540272D01*
X119691058Y-85539730D01*
X119117486Y-85776725D01*
X118682879Y-86210574D01*
X118598256Y-86181349D01*
X117679605Y-87100000D01*
X118598256Y-88018651D01*
X118683434Y-87989235D01*
X119115177Y-88421732D01*
X119688336Y-88659728D01*
X120308942Y-88660270D01*
X120433855Y-88608657D01*
X121062599Y-89237401D01*
X121216150Y-89340000D01*
X96812463Y-89340000D01*
X96780327Y-89307808D01*
X96436799Y-89165162D01*
X96064833Y-89164838D01*
X95721057Y-89306883D01*
X95457808Y-89569673D01*
X95315162Y-89913201D01*
X95314838Y-90285167D01*
X71106296Y-90285167D01*
X71126065Y-85620854D01*
X71864457Y-85620854D01*
X72340727Y-86773515D01*
X73221847Y-87656174D01*
X74373674Y-88134454D01*
X75620854Y-88135543D01*
X76773515Y-87659273D01*
X77656174Y-86778153D01*
X77906624Y-86175000D01*
X113427560Y-86175000D01*
X113427560Y-88025000D01*
X113471838Y-88260317D01*
X113610910Y-88476441D01*
X113823110Y-88621431D01*
X114075000Y-88672440D01*
X115925000Y-88672440D01*
X116160317Y-88628162D01*
X116376441Y-88489090D01*
X116521431Y-88276890D01*
X116526183Y-88253425D01*
X116581350Y-88198258D01*
X116670821Y-88457332D01*
X117253368Y-88671325D01*
X117873461Y-88646097D01*
X118329179Y-88457332D01*
X118418651Y-88198256D01*
X117500000Y-87279605D01*
X117485858Y-87293748D01*
X117306253Y-87114143D01*
X117320395Y-87100000D01*
X117306253Y-87085858D01*
X117485858Y-86906253D01*
X117500000Y-86920395D01*
X118418651Y-86001744D01*
X118329179Y-85742668D01*
X117746632Y-85528675D01*
X117126539Y-85553903D01*
X116670821Y-85742668D01*
X116581350Y-86001742D01*
X116530218Y-85950610D01*
X116528162Y-85939683D01*
X116389090Y-85723559D01*
X116176890Y-85578569D01*
X115925000Y-85527560D01*
X114075000Y-85527560D01*
X113839683Y-85571838D01*
X113623559Y-85710910D01*
X113478569Y-85923110D01*
X113427560Y-86175000D01*
X77906624Y-86175000D01*
X78134454Y-85626326D01*
X78135543Y-84379146D01*
X77659273Y-83226485D01*
X76778153Y-82343826D01*
X75626326Y-81865546D01*
X74379146Y-81864457D01*
X73226485Y-82340727D01*
X72343826Y-83221847D01*
X71865546Y-84373674D01*
X71864457Y-85620854D01*
X71126065Y-85620854D01*
X71126999Y-85400538D01*
X71127000Y-85400000D01*
X71127000Y-82542333D01*
X72370000Y-80885000D01*
X227205394Y-80885000D01*
X229115000Y-82794606D01*
X229115000Y-82794606D01*
G37*
X229115000Y-82794606D02*
X229115000Y-94424871D01*
X213742345Y-94420022D01*
X213630327Y-94307808D01*
X213286799Y-94165162D01*
X212914833Y-94164838D01*
X212571057Y-94306883D01*
X212458127Y-94419617D01*
X187836651Y-94411849D01*
X187587401Y-94162599D01*
X187340839Y-93997852D01*
X187050000Y-93940000D01*
X153564802Y-93940000D01*
X151208857Y-91584055D01*
X151428943Y-91493117D01*
X151692192Y-91230327D01*
X151834838Y-90886799D01*
X151835162Y-90514833D01*
X151693117Y-90171057D01*
X151430327Y-89907808D01*
X151086799Y-89765162D01*
X150714833Y-89764838D01*
X150371057Y-89906883D01*
X150107808Y-90169673D01*
X150015874Y-90391072D01*
X149934995Y-90310193D01*
X149934995Y-88571366D01*
X149967187Y-88539230D01*
X150109833Y-88195702D01*
X150110157Y-87823736D01*
X149968112Y-87479960D01*
X149705322Y-87216711D01*
X149361794Y-87074065D01*
X148989828Y-87073741D01*
X148646052Y-87215786D01*
X148382803Y-87478576D01*
X148240157Y-87822104D01*
X148239833Y-88194070D01*
X148381878Y-88537846D01*
X148414995Y-88571021D01*
X148414995Y-90624995D01*
X148472847Y-90915834D01*
X148637594Y-91162396D01*
X151875703Y-94400505D01*
X146020923Y-94398658D01*
X145962767Y-94257910D01*
X145643765Y-93938351D01*
X145226756Y-93765193D01*
X144775225Y-93764799D01*
X144357914Y-93937229D01*
X144038355Y-94256231D01*
X143979481Y-94398014D01*
X142819836Y-94397648D01*
X142630327Y-94207808D01*
X142286799Y-94065162D01*
X141914833Y-94064838D01*
X141571057Y-94206883D01*
X141380413Y-94397194D01*
X93935099Y-94382227D01*
X93935158Y-94314833D01*
X93793113Y-93971057D01*
X93530323Y-93707808D01*
X93186795Y-93565162D01*
X92814829Y-93564838D01*
X92471053Y-93706883D01*
X92207804Y-93969673D01*
X92065158Y-94313201D01*
X92065098Y-94381637D01*
X71088963Y-94375020D01*
X71106296Y-90285167D01*
X95314838Y-90285167D01*
X95456883Y-90628943D01*
X95719673Y-90892192D01*
X96063201Y-91034838D01*
X96435167Y-91035162D01*
X96778943Y-90893117D01*
X96812118Y-90860000D01*
X141050000Y-90860000D01*
X141340839Y-90802148D01*
X141587401Y-90637401D01*
X145664802Y-86560000D01*
X150187547Y-86560000D01*
X150219683Y-86592192D01*
X150563211Y-86734838D01*
X150935177Y-86735162D01*
X151278953Y-86593117D01*
X151542202Y-86330327D01*
X151684848Y-85986799D01*
X151685172Y-85614833D01*
X151543127Y-85271057D01*
X151280337Y-85007808D01*
X150936809Y-84865162D01*
X150564843Y-84864838D01*
X150221067Y-85006883D01*
X150187892Y-85040000D01*
X145350000Y-85040000D01*
X145059160Y-85097852D01*
X144812599Y-85262599D01*
X140735198Y-89340000D01*
X131183850Y-89340000D01*
X131337401Y-89237401D01*
X133739680Y-86835122D01*
X133785167Y-86835162D01*
X134128943Y-86693117D01*
X134392192Y-86430327D01*
X134534838Y-86086799D01*
X134535162Y-85714833D01*
X134393117Y-85371057D01*
X134130327Y-85107808D01*
X133786799Y-84965162D01*
X133414833Y-84964838D01*
X133071057Y-85106883D01*
X132807808Y-85369673D01*
X132665162Y-85713201D01*
X132665121Y-85760077D01*
X130485198Y-87940000D01*
X128825999Y-87940000D01*
X128857332Y-87929179D01*
X129071325Y-87346632D01*
X129046097Y-86726539D01*
X128857332Y-86270821D01*
X128598256Y-86181349D01*
X127679605Y-87100000D01*
X127693748Y-87114143D01*
X127514143Y-87293748D01*
X127500000Y-87279605D01*
X127485858Y-87293748D01*
X127306253Y-87114143D01*
X127320395Y-87100000D01*
X126401744Y-86181349D01*
X126316566Y-86210765D01*
X126107910Y-86001744D01*
X126581349Y-86001744D01*
X127500000Y-86920395D01*
X128418651Y-86001744D01*
X128329179Y-85742668D01*
X127746632Y-85528675D01*
X127126539Y-85553903D01*
X126670821Y-85742668D01*
X126581349Y-86001744D01*
X126107910Y-86001744D01*
X125884823Y-85778268D01*
X125560000Y-85643390D01*
X125560000Y-85114802D01*
X125639680Y-85035122D01*
X125685167Y-85035162D01*
X126028943Y-84893117D01*
X126292192Y-84630327D01*
X126434838Y-84286799D01*
X126435162Y-83914833D01*
X126293117Y-83571057D01*
X126246910Y-83524769D01*
X155764803Y-83524769D01*
X155937233Y-83942080D01*
X156256235Y-84261639D01*
X156256710Y-84261836D01*
X159997440Y-88002566D01*
X160365660Y-88248603D01*
X160800006Y-88335000D01*
X169867074Y-88335000D01*
X169871838Y-88360317D01*
X170010910Y-88576441D01*
X170223110Y-88721431D01*
X170475000Y-88772440D01*
X172325000Y-88772440D01*
X172560317Y-88728162D01*
X172776441Y-88589090D01*
X172921431Y-88376890D01*
X172926183Y-88353425D01*
X172981350Y-88298258D01*
X173070821Y-88557332D01*
X173653368Y-88771325D01*
X174273461Y-88746097D01*
X174729179Y-88557332D01*
X174818651Y-88298256D01*
X173900000Y-87379605D01*
X173885858Y-87393748D01*
X173706253Y-87214143D01*
X173720395Y-87200000D01*
X174079605Y-87200000D01*
X174998256Y-88118651D01*
X175257332Y-88029179D01*
X175471325Y-87446632D01*
X175446097Y-86826539D01*
X175257332Y-86370821D01*
X174998256Y-86281349D01*
X174079605Y-87200000D01*
X173720395Y-87200000D01*
X173706253Y-87185858D01*
X173885858Y-87006253D01*
X173900000Y-87020395D01*
X174745395Y-86175000D01*
X183527560Y-86175000D01*
X183527560Y-88025000D01*
X183571838Y-88260317D01*
X183710910Y-88476441D01*
X183923110Y-88621431D01*
X184175000Y-88672440D01*
X186025000Y-88672440D01*
X186260317Y-88628162D01*
X186476441Y-88489090D01*
X186621431Y-88276890D01*
X186626183Y-88253425D01*
X186681350Y-88198258D01*
X186770821Y-88457332D01*
X187353368Y-88671325D01*
X187973461Y-88646097D01*
X188429179Y-88457332D01*
X188518651Y-88198256D01*
X187600000Y-87279605D01*
X187585858Y-87293748D01*
X187406253Y-87114143D01*
X187420395Y-87100000D01*
X187779605Y-87100000D01*
X188698256Y-88018651D01*
X188783434Y-87989235D01*
X189215177Y-88421732D01*
X189788336Y-88659728D01*
X190408942Y-88660270D01*
X190982514Y-88423275D01*
X191350256Y-88056174D01*
X191715177Y-88421732D01*
X192288336Y-88659728D01*
X192908942Y-88660270D01*
X193482514Y-88423275D01*
X193850256Y-88056174D01*
X194215177Y-88421732D01*
X194788336Y-88659728D01*
X195408942Y-88660270D01*
X195982514Y-88423275D01*
X196207926Y-88198256D01*
X196681349Y-88198256D01*
X196770821Y-88457332D01*
X197353368Y-88671325D01*
X197973461Y-88646097D01*
X198429179Y-88457332D01*
X198518651Y-88198256D01*
X197600000Y-87279605D01*
X196681349Y-88198256D01*
X196207926Y-88198256D01*
X196417121Y-87989426D01*
X196501744Y-88018651D01*
X197420395Y-87100000D01*
X197779605Y-87100000D01*
X198698256Y-88018651D01*
X198957332Y-87929179D01*
X199171325Y-87346632D01*
X199146097Y-86726539D01*
X198957332Y-86270821D01*
X198698256Y-86181349D01*
X197779605Y-87100000D01*
X197420395Y-87100000D01*
X196501744Y-86181349D01*
X196416566Y-86210765D01*
X196207910Y-86001744D01*
X196681349Y-86001744D01*
X197600000Y-86920395D01*
X198518651Y-86001744D01*
X198429179Y-85742668D01*
X198097569Y-85620854D01*
X221864457Y-85620854D01*
X222340727Y-86773515D01*
X223221847Y-87656174D01*
X224373674Y-88134454D01*
X225620854Y-88135543D01*
X226773515Y-87659273D01*
X227656174Y-86778153D01*
X228134454Y-85626326D01*
X228135543Y-84379146D01*
X227659273Y-83226485D01*
X226778153Y-82343826D01*
X225626326Y-81865546D01*
X224379146Y-81864457D01*
X223226485Y-82340727D01*
X222343826Y-83221847D01*
X221865546Y-84373674D01*
X221864457Y-85620854D01*
X198097569Y-85620854D01*
X197846632Y-85528675D01*
X197226539Y-85553903D01*
X196770821Y-85742668D01*
X196681349Y-86001744D01*
X196207910Y-86001744D01*
X195984823Y-85778268D01*
X195411664Y-85540272D01*
X194791058Y-85539730D01*
X194217486Y-85776725D01*
X193849744Y-86143826D01*
X193484823Y-85778268D01*
X192911664Y-85540272D01*
X192291058Y-85539730D01*
X191717486Y-85776725D01*
X191349744Y-86143826D01*
X190984823Y-85778268D01*
X190411664Y-85540272D01*
X189791058Y-85539730D01*
X189217486Y-85776725D01*
X188782879Y-86210574D01*
X188698256Y-86181349D01*
X187779605Y-87100000D01*
X187420395Y-87100000D01*
X187406253Y-87085858D01*
X187585858Y-86906253D01*
X187600000Y-86920395D01*
X188518651Y-86001744D01*
X188429179Y-85742668D01*
X187846632Y-85528675D01*
X187226539Y-85553903D01*
X186770821Y-85742668D01*
X186681350Y-86001742D01*
X186630218Y-85950610D01*
X186628162Y-85939683D01*
X186489090Y-85723559D01*
X186276890Y-85578569D01*
X186025000Y-85527560D01*
X184175000Y-85527560D01*
X183939683Y-85571838D01*
X183723559Y-85710910D01*
X183578569Y-85923110D01*
X183527560Y-86175000D01*
X174745395Y-86175000D01*
X174818651Y-86101744D01*
X174729179Y-85842668D01*
X174146632Y-85628675D01*
X173526539Y-85653903D01*
X173070821Y-85842668D01*
X172981350Y-86101742D01*
X172930218Y-86050610D01*
X172928162Y-86039683D01*
X172789090Y-85823559D01*
X172576890Y-85678569D01*
X172325000Y-85627560D01*
X170475000Y-85627560D01*
X170239683Y-85671838D01*
X170023559Y-85810910D01*
X169878569Y-86023110D01*
X169870086Y-86065000D01*
X161270138Y-86065000D01*
X157702980Y-82497842D01*
X157543765Y-82338349D01*
X157126756Y-82165191D01*
X156675225Y-82164797D01*
X156257914Y-82337227D01*
X155938355Y-82656229D01*
X155765197Y-83073238D01*
X155764803Y-83524769D01*
X126246910Y-83524769D01*
X126030327Y-83307808D01*
X125686799Y-83165162D01*
X125314833Y-83164838D01*
X124971057Y-83306883D01*
X124707808Y-83569673D01*
X124565162Y-83913201D01*
X124565121Y-83960076D01*
X124262599Y-84262599D01*
X124097852Y-84509161D01*
X124040000Y-84800000D01*
X124040000Y-85854076D01*
X123749744Y-86143826D01*
X123384823Y-85778268D01*
X122811664Y-85540272D01*
X122191058Y-85539730D01*
X121617486Y-85776725D01*
X121249744Y-86143826D01*
X120884823Y-85778268D01*
X120311664Y-85540272D01*
X119691058Y-85539730D01*
X119117486Y-85776725D01*
X118682879Y-86210574D01*
X118598256Y-86181349D01*
X117679605Y-87100000D01*
X118598256Y-88018651D01*
X118683434Y-87989235D01*
X119115177Y-88421732D01*
X119688336Y-88659728D01*
X120308942Y-88660270D01*
X120433855Y-88608657D01*
X121062599Y-89237401D01*
X121216150Y-89340000D01*
X96812463Y-89340000D01*
X96780327Y-89307808D01*
X96436799Y-89165162D01*
X96064833Y-89164838D01*
X95721057Y-89306883D01*
X95457808Y-89569673D01*
X95315162Y-89913201D01*
X95314838Y-90285167D01*
X71106296Y-90285167D01*
X71126065Y-85620854D01*
X71864457Y-85620854D01*
X72340727Y-86773515D01*
X73221847Y-87656174D01*
X74373674Y-88134454D01*
X75620854Y-88135543D01*
X76773515Y-87659273D01*
X77656174Y-86778153D01*
X77906624Y-86175000D01*
X113427560Y-86175000D01*
X113427560Y-88025000D01*
X113471838Y-88260317D01*
X113610910Y-88476441D01*
X113823110Y-88621431D01*
X114075000Y-88672440D01*
X115925000Y-88672440D01*
X116160317Y-88628162D01*
X116376441Y-88489090D01*
X116521431Y-88276890D01*
X116526183Y-88253425D01*
X116581350Y-88198258D01*
X116670821Y-88457332D01*
X117253368Y-88671325D01*
X117873461Y-88646097D01*
X118329179Y-88457332D01*
X118418651Y-88198256D01*
X117500000Y-87279605D01*
X117485858Y-87293748D01*
X117306253Y-87114143D01*
X117320395Y-87100000D01*
X117306253Y-87085858D01*
X117485858Y-86906253D01*
X117500000Y-86920395D01*
X118418651Y-86001744D01*
X118329179Y-85742668D01*
X117746632Y-85528675D01*
X117126539Y-85553903D01*
X116670821Y-85742668D01*
X116581350Y-86001742D01*
X116530218Y-85950610D01*
X116528162Y-85939683D01*
X116389090Y-85723559D01*
X116176890Y-85578569D01*
X115925000Y-85527560D01*
X114075000Y-85527560D01*
X113839683Y-85571838D01*
X113623559Y-85710910D01*
X113478569Y-85923110D01*
X113427560Y-86175000D01*
X77906624Y-86175000D01*
X78134454Y-85626326D01*
X78135543Y-84379146D01*
X77659273Y-83226485D01*
X76778153Y-82343826D01*
X75626326Y-81865546D01*
X74379146Y-81864457D01*
X73226485Y-82340727D01*
X72343826Y-83221847D01*
X71865546Y-84373674D01*
X71864457Y-85620854D01*
X71126065Y-85620854D01*
X71126999Y-85400538D01*
X71127000Y-85400000D01*
X71127000Y-82542333D01*
X72370000Y-80885000D01*
X227205394Y-80885000D01*
X229115000Y-82794606D01*
M02*
